<svg width="21" height="52" viewBox="0 0 21 52" fill="none" xmlns="http://www.w3.org/2000/svg">
<path d="M20.4877 49.2733C19.5028 49.0558 18.5232 48.7388 17.4926 48.3042C17.4802 48.2984 17.4496 48.2639 17.44 48.2328C17.3373 47.8826 17.3029 47.5298 17.3346 47.1542C17.5364 44.756 16.1083 42.2291 13.9393 41.1458C13.8932 41.1223 13.8451 41.1021 13.7897 41.0794L13.7383 41.0581C13.6894 41.0372 13.6299 41.0459 13.5905 41.0776C13.5479 41.1104 13.5267 41.164 13.5354 41.2177L13.5948 41.5855C13.6474 41.9109 13.699 42.2293 13.7485 42.548L13.761 42.6314C13.9002 43.5371 14.0442 44.4737 14.3247 45.3735C14.5778 46.1853 14.9684 46.8259 15.5115 47.3168C14.364 46.6401 13.2946 45.8269 12.3235 44.8916C12.3031 44.872 12.2789 44.82 12.2754 44.777L12.2493 44.1352C12.2492 44.1124 12.2489 44.0518 12.2618 44.0218C12.7402 42.9074 12.8627 41.653 12.6367 40.1872C12.4187 38.7734 11.8151 37.4734 10.8424 36.3229C10.7286 36.1882 10.6281 36.12 10.5438 36.12C10.5233 36.12 10.5047 36.1241 10.4901 36.1317C10.4453 36.154 10.4151 36.197 10.4091 36.2468L10.3831 36.4707C10.363 36.6369 10.3437 36.8 10.3263 36.9635C10.2963 37.2515 10.2635 37.539 10.2304 37.8266L10.2257 37.8682C10.1435 38.5864 10.0583 39.3291 10.0132 40.0728C9.96089 40.9403 9.97642 41.9535 10.4892 42.8907C10.4919 42.8954 10.4943 42.9004 10.4971 42.9052C9.78434 42.0139 9.1337 41.0547 8.55322 40.0384C8.50193 39.948 8.49751 39.8687 8.5071 39.7536C8.54835 39.267 8.77451 38.8716 9.0127 38.517C9.4728 37.8303 9.75132 37.0186 9.91584 35.885C10.1458 34.2997 9.91356 32.7094 9.22593 31.1579C9.20706 31.1152 9.18499 31.0739 9.1614 31.0296L9.10767 30.9283C9.08195 30.8788 9.02701 30.8462 8.96902 30.8488C8.91119 30.8519 8.8602 30.8885 8.8392 30.9418C8.67239 31.3625 8.51106 31.7678 8.35079 32.17L8.24836 32.4271C7.90653 33.2857 7.52314 34.288 7.30032 35.3222C7.14326 36.052 7.13367 36.7564 7.27141 37.427C6.73689 36.1547 6.29749 34.8104 5.96098 33.4164C5.95718 33.4009 5.95596 33.3607 5.98929 33.268C6.14666 32.8373 6.43325 32.4467 6.7964 32.1684C7.59133 31.5587 8.04229 30.7112 8.37849 29.9627C9.06688 28.4319 9.25363 26.8057 8.94923 24.9907C8.94604 24.9717 8.94026 24.9528 8.93341 24.9323L8.92793 24.9158C8.91469 24.8752 8.88455 24.8423 8.84468 24.8251C8.80571 24.8088 8.7567 24.8119 8.72642 24.8268C8.69598 24.8379 8.64986 24.8548 8.61988 24.8988C8.44759 25.1289 8.27272 25.3612 8.09769 25.5933L8.06831 25.6324C7.62694 26.2185 7.1705 26.8242 6.73186 27.4277C6.22368 28.1249 5.86479 28.8027 5.63452 29.4997C5.52341 29.8364 5.45082 30.1604 5.41657 30.4752C5.27031 29.3442 5.18736 28.1895 5.16925 27.0251C5.16499 26.7472 5.2003 26.5264 5.39009 26.2846C5.59099 26.0267 5.77865 25.8828 6.03739 25.7878C7.10049 25.3994 7.78249 24.5786 8.2578 23.9069C9.02564 22.8204 9.47599 21.5561 9.63458 20.0417C9.65147 19.8859 9.66106 19.7282 9.67096 19.5614L9.67339 19.5235C9.67811 19.4423 9.68313 19.3579 9.68952 19.2684C9.69348 19.209 9.66167 19.1533 9.60855 19.1264C9.55711 19.1005 9.49121 19.1081 9.44646 19.146L9.32029 19.2541C9.27281 19.2946 9.23217 19.3293 9.19001 19.3631C8.98744 19.5258 8.7841 19.6868 8.58031 19.8483L8.559 19.865C8.11169 20.2193 7.64901 20.5857 7.20718 20.964C6.34985 21.6952 5.79783 22.423 5.46984 23.2548C5.41566 23.3919 5.36817 23.5275 5.32738 23.6617C5.46223 22.34 5.68124 21.0384 5.98199 19.7757C6.01851 19.6212 6.03891 19.5758 6.11394 19.5512C6.16112 19.5352 6.20511 19.5044 6.23722 19.4664C6.45532 19.2185 6.74252 19.1792 7.02074 19.1736C7.94914 19.1518 8.68548 18.6887 9.28316 18.2385C10.7487 17.1347 11.7577 14.3343 11.7577 14.2393C11.7577 14.1899 11.7331 14.1437 11.6912 14.1159C11.65 14.0886 11.5943 14.0848 11.5523 14.1036C11.247 14.2331 10.9417 14.3592 10.6255 14.49C9.93 14.7784 9.21086 15.0764 8.52019 15.4023C7.8251 15.7312 7.27582 16.171 6.88315 16.7122C7.2574 15.6488 7.69132 14.6063 8.17714 13.6043C8.23299 13.4963 8.49538 13.3815 8.87161 13.3815C8.99398 13.3815 9.11254 13.3946 9.21497 13.4193C10.0989 13.6311 10.9754 13.5027 11.9456 13.0179C12.938 12.5218 13.7614 11.7105 14.4628 10.5373C14.4761 10.5146 14.5025 10.4453 14.5166 10.4065C14.5344 10.359 14.5273 10.3067 14.4978 10.267C14.4704 10.2292 14.4265 10.2067 14.3707 10.2067C14.3702 10.2067 14.3699 10.2067 14.3695 10.2067L14.0191 10.2288C13.8043 10.2423 13.5958 10.2555 13.3873 10.2662L13.1647 10.2775C12.4999 10.3109 11.8122 10.3453 11.1395 10.5056C10.3723 10.6901 9.809 10.9733 9.37706 11.3934C9.88829 10.5424 10.4358 9.73274 11.0124 8.97434C11.028 8.95425 11.1024 8.9235 11.1634 8.91331C11.1938 8.90615 11.3046 8.88287 11.452 8.88287C11.6474 8.88287 11.8185 8.92259 11.9635 9.00234C12.8851 9.453 13.92 9.48648 15.0437 9.10051C15.9654 8.78561 16.746 8.20072 17.4303 7.31295C17.4525 7.28433 17.4726 7.25313 17.4909 7.22026C17.5117 7.18236 17.5131 7.14066 17.4948 7.10261C17.4419 6.9915 17.2127 6.9393 17.1162 6.92195C16.8793 6.88055 16.611 6.83337 16.345 6.7973C16.2231 6.78025 16.101 6.76245 15.9786 6.74433L15.963 6.7419C15.5484 6.68072 15.1198 6.6174 14.688 6.59564C13.899 6.55531 13.1984 6.71633 12.6251 7.07278C13.0106 6.66245 13.4045 6.27313 13.8045 5.9074C13.931 5.79203 14.074 5.67575 14.269 5.5298C14.2841 5.51823 14.3224 5.50468 14.3695 5.50194C15.7513 5.44791 16.9011 4.8379 17.8843 3.63737C18.4199 2.98383 18.8305 2.15953 19.1399 1.11728L19.1506 1.08151C19.1836 0.971929 19.2019 0.911658 19.1259 0.841039C19.0673 0.786552 18.9642 0.802685 18.696 0.908919C18.4525 1.00252 18.2074 1.09338 17.9558 1.18668C17.4504 1.37404 16.9276 1.56778 16.4231 1.78664C15.5799 2.15314 14.9066 2.70866 14.4221 3.43753C14.0532 3.99214 13.9074 4.54934 13.976 5.13804C13.9756 5.14458 13.9698 5.16026 13.9689 5.16209C13.0887 5.92201 12.2474 6.77751 11.3835 7.79572C11.9596 6.91495 12.335 5.90085 12.5234 4.72528C12.7134 3.54011 12.7254 2.48523 12.5604 1.50051C12.5499 1.43887 12.5358 1.37723 12.5177 1.30007L12.4907 1.1812C12.4785 1.13021 12.4402 1.08897 12.3898 1.07314C12.3394 1.05823 12.283 1.07147 12.2454 1.10723C12.1851 1.164 12.1261 1.21758 12.0684 1.26963L12.0277 1.30631C11.8801 1.43933 11.7407 1.56489 11.6145 1.70689C10.3886 3.08991 9.67354 4.55071 9.42866 6.17283C9.3171 6.90597 9.36336 7.53013 9.5702 8.08048C9.63869 8.26281 9.74553 8.42566 9.85192 8.5873C9.90062 8.66111 9.94933 8.73523 9.99392 8.81133C10.0268 8.86597 10.0295 8.88013 10.0294 8.87754C10.0091 9.09442 9.98007 9.33611 9.9408 9.6262C9.93913 9.62985 9.93365 9.63838 9.91615 9.66151L9.90199 9.68114C9.23156 10.6131 8.61303 11.5955 8.05644 12.6123C8.2753 11.8529 8.44957 10.8916 8.43724 9.77459C8.42233 8.4348 8.11382 7.23989 7.49377 6.12109C7.46926 6.07756 7.42482 6.04925 7.36257 6.04499C7.31737 6.04499 7.27384 6.06736 7.24538 6.10556C7.22681 6.13143 7.20794 6.15579 7.18998 6.17892C7.14995 6.23067 7.11251 6.27967 7.07903 6.33203C6.5853 7.10626 6.32047 7.95994 6.14469 8.61728C5.8234 9.82284 5.67576 10.8295 5.68003 11.7854C5.68246 12.598 5.83055 13.2226 6.14621 13.7512C6.24438 13.9157 6.36796 14.0597 6.49215 14.2046C6.55805 14.2815 6.62578 14.3605 6.68712 14.4414C6.73004 14.4977 6.75074 14.5551 6.75196 14.5871C6.76002 14.7798 6.75576 14.9756 6.75165 15.165L6.74876 15.2959C6.7483 15.3184 6.74313 15.3443 6.73537 15.3641C6.33904 16.3243 5.99066 17.3222 5.69357 18.3471C5.73725 17.9981 5.76191 17.6603 5.76815 17.3306C5.80407 15.4595 5.23013 13.7885 4.06186 12.3635L3.81834 12.0668C3.79019 12.032 3.74848 12.0122 3.70404 12.0122L3.67969 12.0143C3.62764 12.023 3.58381 12.0591 3.56569 12.1082C3.54347 12.1674 3.52171 12.2233 3.50055 12.2773C3.45976 12.3817 3.42126 12.4807 3.38869 12.5813C3.13802 13.3665 3.01504 14.2242 2.99008 15.3621L2.98963 15.3843C2.9709 16.2121 2.94518 17.3461 3.28519 18.4313C3.61988 19.4996 4.2101 20.0394 4.32455 20.1364L4.33673 20.1473C4.64828 20.4254 4.85116 20.6797 4.89316 20.8449C4.91006 20.9115 4.92726 20.9783 4.94735 21.0444C5.03623 21.3383 4.98068 21.6183 4.92071 21.9207C4.89088 22.0734 4.85983 22.2311 4.84903 22.3929C4.80611 23.0403 4.75345 23.6987 4.70246 24.3354L4.69789 24.3943C4.6848 24.5567 4.67172 24.719 4.65878 24.8814C4.5288 23.4246 4.04633 22.1003 3.21625 20.9292C2.70791 20.2126 2.10186 19.5996 1.41453 19.1066C1.38485 19.0853 1.35365 19.0663 1.31195 19.0415C1.29171 19.0297 1.26827 19.0157 1.23981 18.9979C1.19689 18.9722 1.14179 18.9699 1.0975 18.9915C1.05215 19.0136 1.02095 19.0585 1.01577 19.1093C1.00649 19.2014 0.995682 19.2906 0.984267 19.3831C0.961285 19.5726 0.939521 19.7516 0.938608 19.9355C0.928411 21.8413 1.33158 23.6272 2.13732 25.2429C2.36181 25.6937 2.65844 26.0837 3.0193 26.4024C3.37712 26.7166 3.76325 26.902 4.19899 26.9687C4.20858 26.9704 4.23141 26.9842 4.23491 26.9869C4.2585 27.0343 4.283 27.0818 4.30751 27.1294C4.39456 27.2976 4.48451 27.4715 4.52926 27.646C4.56655 27.7934 4.56655 27.9546 4.56655 28.1254C4.56655 28.1879 4.56655 28.2509 4.56853 28.3127C4.61038 29.7891 4.66532 30.3032 4.90153 31.6223C4.7574 31.2301 4.57644 30.8368 4.34282 30.4584C3.39675 28.9272 2.19485 27.8878 0.668457 27.2813C0.571355 27.2422 0.473948 27.214 0.361017 27.1812L0.338492 27.1745C0.29268 27.1611 0.244129 27.1468 0.19223 27.1309C0.145353 27.1156 0.0919316 27.1261 0.0537299 27.1577C0.0156805 27.1892 -0.00425743 27.2375 0.000765096 27.2877C0.0120277 27.3924 0.0197898 27.4942 0.0269431 27.5936C0.0426195 27.8116 0.0573827 28.0173 0.110195 28.221C0.602707 30.1233 1.41788 31.6384 2.60213 32.8531C3.10849 33.3724 3.6421 33.6701 4.23339 33.7634C4.38254 33.7867 4.56487 33.7896 4.87353 33.7704L4.96241 33.7651C4.97596 33.7643 4.98783 33.7636 4.99864 33.7636C5.02299 33.7636 5.02497 33.7636 5.04186 33.7885L5.45538 34.3564C5.46071 34.3638 5.46847 34.3908 5.4738 34.4093L5.47989 34.4297C5.90908 35.8847 6.44162 37.2862 7.06959 38.6162C6.78696 38.2261 6.47724 37.87 6.13205 37.535C4.54463 35.9948 1.83064 35.9502 1.5264 35.9502L1.4885 35.9505L1.4646 35.9549C1.39003 35.9814 1.34969 36.0611 1.37268 36.1362C1.39383 36.2069 1.41362 36.2785 1.43629 36.3625C1.47967 36.5203 1.52472 36.6833 1.58788 36.841C1.88863 37.5925 2.37612 38.3155 3.12234 39.117C3.6351 39.6664 4.21314 40.2236 4.96485 40.5759C5.78809 40.9625 6.53142 41.0569 7.27064 40.8675C7.39636 40.8345 7.54095 40.7927 7.66529 40.712C7.75387 40.6552 7.77807 40.657 7.86513 40.7219C7.96832 40.7986 8.07805 40.863 8.18459 40.9254C8.24349 40.9599 8.30285 40.9948 8.35825 41.0298C8.36708 41.0372 8.38595 41.0681 8.39295 41.0795C9.05623 42.1614 9.78693 43.1668 10.5759 44.0839C10.1492 43.7734 9.71098 43.5488 9.24556 43.3992C7.82328 42.9409 6.3325 42.9992 4.85603 43.5701C4.63564 43.6555 4.39411 43.7849 4.37797 43.794C4.34419 43.8162 4.3209 43.8521 4.31359 43.8934C4.3072 43.9339 4.3177 43.9753 4.34236 44.0069C4.38848 44.0669 4.43307 44.1272 4.47721 44.187L4.48695 44.2001C4.58664 44.3358 4.69957 44.4894 4.8262 44.6255C5.39648 45.2368 6.09979 45.6467 6.77494 45.9986C7.70334 46.4803 8.65275 46.7398 9.59699 46.7702C9.64143 46.7717 9.68587 46.7727 9.73016 46.7727C10.5988 46.7727 11.2768 46.4864 11.7994 45.9009C11.8058 45.8963 11.8285 45.8876 11.841 45.8875C12.0407 45.9018 12.2305 45.9309 12.3723 45.9544C12.3947 45.9584 12.4222 45.9718 12.4394 45.9873C13.3126 46.7603 14.2373 47.4388 15.2033 48.0163C15.0569 47.9729 14.9061 47.9351 14.7518 47.9049C13.7194 47.7064 12.6659 47.8309 11.509 48.2905C10.7286 48.6016 10.0027 49.0587 9.29001 49.6877C9.23126 49.7393 9.22304 49.828 9.27144 49.8895C9.52363 50.2105 9.85177 50.3902 10.1396 50.5236C10.8415 50.8497 11.6339 51.0586 12.5627 51.1623C12.5655 51.1625 12.8639 51.1884 13.2825 51.1884C13.5846 51.1884 13.8657 51.1748 14.1176 51.1482C14.3583 51.1229 14.5985 51.0817 14.8315 51.0257C15.9018 50.7651 16.627 50.2294 17.0425 49.3976C17.05 49.3905 17.0819 49.3719 17.1224 49.362C17.3155 49.3141 17.4894 49.2803 17.6546 49.2582C17.6936 49.252 17.7422 49.2625 17.8033 49.2871C18.5424 49.5719 19.3246 49.8092 20.1265 49.9921C20.1378 49.9948 20.1495 49.9962 20.1612 49.9962C20.2151 49.9962 20.2647 49.9665 20.2909 49.9181C20.3674 49.7757 20.4607 49.639 20.568 49.5119C20.6017 49.4719 20.6117 49.4186 20.5951 49.3693C20.5793 49.3215 20.5391 49.2853 20.4877 49.2733Z" fill="#00542F"/>
</svg>
