<svg width="21" height="52" viewBox="0 0 21 52" fill="none" xmlns="http://www.w3.org/2000/svg">
<path d="M20.9125 27.1573C20.8741 27.1256 20.8184 27.1156 20.7751 27.1302C20.7221 27.1465 20.6735 27.1606 20.6277 27.174L20.6054 27.1806C20.4924 27.2136 20.3949 27.2419 20.2982 27.2807C18.7714 27.8874 17.5693 28.9267 16.6233 30.458C16.3896 30.8363 16.2087 31.2296 16.0645 31.6218C16.3009 30.3026 16.3557 29.7886 16.3976 28.3124C16.3995 28.2505 16.3995 28.1875 16.3995 28.1249C16.3995 27.9542 16.3995 27.7928 16.4368 27.6457C16.4816 27.4712 16.5715 27.2973 16.6586 27.129C16.6831 27.0813 16.7076 27.0337 16.7278 26.9918C16.7348 26.9836 16.7575 26.9698 16.7663 26.9684C17.203 26.9017 17.5891 26.7163 17.9471 26.4018C18.3078 26.0832 18.6044 25.6933 18.8289 25.2425C19.6346 23.6267 20.0378 21.8408 20.0276 19.935C20.0267 19.7512 20.0051 19.5722 19.9813 19.3775C19.9705 19.2903 19.9596 19.2011 19.9505 19.1087C19.9453 19.0581 19.9141 19.013 19.8689 18.9911C19.8243 18.9695 19.7704 18.971 19.7254 18.9982C19.6981 19.0153 19.6748 19.0291 19.6537 19.0415C19.6127 19.0658 19.5815 19.0848 19.552 19.1062C18.8647 19.5988 18.2585 20.2122 17.75 20.9287C16.9202 22.0999 16.4376 23.4242 16.3076 24.881C16.2947 24.7186 16.2816 24.5562 16.2685 24.3938L16.2639 24.3349C16.2129 23.6983 16.1603 23.0399 16.1174 22.3924C16.1065 22.2285 16.075 22.069 16.0446 21.9147C15.9859 21.618 15.9303 21.3378 16.0192 21.0442C16.0394 20.9779 16.0565 20.9111 16.0735 20.8444C16.1155 20.6793 16.3184 20.4249 16.63 20.1469L16.6417 20.1364C16.7566 20.039 17.3468 19.499 17.6816 18.4309C18.0215 17.3457 17.9958 16.2118 17.9771 15.3839L17.9766 15.3618C17.9516 14.2236 17.8287 13.366 17.5778 12.5805C17.5454 12.4801 17.5069 12.381 17.4661 12.2769C17.445 12.2227 17.4234 12.1667 17.4011 12.1081C17.3829 12.0585 17.339 12.0224 17.2878 12.0139L17.2626 12.0116C17.2182 12.0116 17.1766 12.0315 17.1485 12.0659L16.9048 12.3629C15.7366 13.7878 15.1626 15.4589 15.1985 17.33C15.2048 17.6595 15.2294 17.9975 15.2731 18.3465C14.9762 17.3218 14.6279 16.3243 14.2319 15.3647C14.2237 15.3437 14.2184 15.3176 14.2178 15.2956L14.215 15.1644C14.2109 14.975 14.2067 14.7792 14.2147 14.5865C14.2159 14.5545 14.2366 14.4971 14.2797 14.4407C14.3409 14.3599 14.4088 14.2809 14.4791 14.1987C14.5989 14.0593 14.7226 13.9153 14.8206 13.7509C15.1363 13.2222 15.2845 12.5976 15.287 11.785C15.2912 10.8284 15.1437 9.82178 14.8223 8.61684C14.6467 7.95949 14.3815 7.10551 13.8878 6.33128C13.8543 6.27923 13.8169 6.23022 13.777 6.17832C13.759 6.15534 13.7402 6.13084 13.721 6.10451C13.693 6.06691 13.6543 6.045 13.5919 6.045C13.5422 6.04865 13.4977 6.07696 13.4729 6.12094C12.8532 7.23944 12.5445 8.43435 12.5299 9.77399C12.5174 10.891 12.6918 11.8521 12.9105 12.6117C12.354 11.5949 11.7354 10.6125 11.065 9.68054L11.0496 9.65939C11.0344 9.63915 11.028 9.62925 11.0291 9.63626C10.9869 9.33475 10.9577 9.09352 10.9375 8.88349C10.9379 8.88029 10.9419 8.86263 10.9732 8.81028C11.0175 8.73479 11.0661 8.66082 11.1177 8.58259C11.2212 8.42522 11.328 8.26237 11.3965 8.08003C11.6032 7.52969 11.6496 6.90552 11.538 6.17254C11.2931 4.55026 10.578 3.08947 9.35216 1.70645C9.22599 1.56445 9.08658 1.43888 8.9391 1.30617L8.89831 1.26918C8.84062 1.21698 8.78142 1.16356 8.7216 1.10709C8.68355 1.07087 8.62907 1.05732 8.57626 1.07285C8.52634 1.08868 8.48783 1.13007 8.47596 1.18152L8.44917 1.29901C8.4309 1.37694 8.41675 1.43843 8.40625 1.50022C8.24127 2.48494 8.25329 3.53967 8.44324 4.72498C8.63166 5.90056 9.00713 6.9145 9.5832 7.79527C8.71932 6.77737 7.87904 5.92263 7.00086 5.16514C6.9969 5.15997 6.99112 5.14429 6.99066 5.14033C7.0593 4.54904 6.9135 3.992 6.54457 3.43739C6.06012 2.70852 5.38695 2.15299 4.54378 1.7865C4.03924 1.56764 3.51644 1.37389 3.0046 1.1841C2.75941 1.09309 2.51422 1.00238 2.26172 0.905124C2.00801 0.804217 1.89949 0.786258 1.84059 0.840745C1.7648 0.911365 1.78306 0.971635 1.81609 1.08122L1.82674 1.11698C2.13616 2.15923 2.54679 2.98354 3.08237 3.63692C4.06557 4.83761 5.21543 5.44762 6.59586 5.5015C6.64426 5.50439 6.68261 5.51778 6.69829 5.52996C6.89264 5.67546 7.03571 5.79189 7.16218 5.90726C7.56216 6.27284 7.95605 6.66231 8.34142 7.07248C7.76824 6.71634 7.06767 6.55562 6.27868 6.5955C5.84689 6.61726 5.4183 6.68057 5.00387 6.74176L4.98804 6.74419C4.86552 6.76215 4.74361 6.77996 4.622 6.79716C4.35566 6.83323 4.08718 6.88041 3.85006 6.92181C3.75402 6.93901 3.52466 6.99121 3.47185 7.10247C3.45358 7.14052 3.45511 7.18222 3.47581 7.22012C3.49407 7.25314 3.51416 7.28419 3.53608 7.3125C4.22051 8.20057 5.00128 8.78547 5.92299 9.10037C7.04682 9.48634 8.07903 9.45453 9.00652 9.00053C9.14837 8.92245 9.31944 8.88288 9.51486 8.88288C9.66234 8.88288 9.77299 8.90616 9.80967 8.91453C9.86461 8.92367 9.93919 8.95441 9.95441 8.9742C10.5312 9.7326 11.0787 10.5426 11.5899 11.3935C11.158 10.9735 10.5947 10.6902 9.82732 10.5058C9.15476 10.3455 8.46713 10.3111 7.80233 10.2776L7.57966 10.2664C7.37115 10.2557 7.16264 10.2425 6.94789 10.2289L6.58779 10.2067C6.54122 10.2067 6.49693 10.2292 6.46984 10.2667C6.43986 10.307 6.4327 10.3593 6.45036 10.4064C6.46481 10.4456 6.49115 10.5149 6.50469 10.538C7.20587 11.7109 8.02926 12.5221 9.02159 13.0182C9.9917 13.5028 10.8682 13.631 11.7523 13.4196C11.8546 13.3949 11.9732 13.3818 12.0957 13.3818C12.4718 13.3818 12.734 13.4966 12.7891 13.6028C13.2755 14.6063 13.7096 15.649 14.084 16.7125C13.6913 16.1712 13.1422 15.7315 12.447 15.4026C11.7563 15.0766 11.0371 14.7786 10.3296 14.4853C10.0255 14.3596 9.72017 14.2334 9.41623 14.1043C9.37103 14.0845 9.31761 14.0886 9.27545 14.1165C9.23405 14.144 9.2094 14.19 9.2094 14.2395C9.2094 14.3344 10.2185 17.135 11.684 18.2386C12.2818 18.6888 13.0181 19.152 13.9467 19.1737C14.2246 19.1794 14.512 19.2186 14.729 19.4653C14.7622 19.5046 14.8062 19.5352 14.8541 19.5515C14.9282 19.5758 14.9486 19.6212 14.9852 19.7758C15.2859 21.0385 15.5049 22.3399 15.6398 23.6614C15.599 23.5273 15.5516 23.3919 15.4973 23.2548C15.1693 22.423 14.6173 21.6952 13.7601 20.9642C13.3183 20.5858 12.8556 20.2195 12.4081 19.865L12.3868 19.8483C12.183 19.6868 11.9797 19.5259 11.777 19.3631C11.7351 19.3294 11.6943 19.2947 11.647 19.2542L11.5205 19.1459C11.4762 19.1084 11.4103 19.1007 11.3586 19.1265C11.3055 19.1535 11.2737 19.2092 11.2778 19.2687C11.284 19.358 11.289 19.4425 11.2937 19.5236L11.2962 19.5615C11.3062 19.7285 11.3157 19.886 11.3326 20.0416C11.4911 21.5561 11.9415 22.8205 12.7093 23.9071C13.1847 24.5787 13.8665 25.3997 14.9298 25.7879C15.1885 25.8829 15.3761 26.0267 15.5772 26.2849C15.7668 26.5266 15.8022 26.7474 15.7979 27.0253C15.7798 28.1895 15.6968 29.3443 15.5506 30.4753C15.5163 30.1606 15.4439 29.8366 15.3326 29.4999C15.1023 28.8028 14.7435 28.1251 14.2353 27.428C13.7966 26.8244 13.3402 26.2187 12.8988 25.6325L12.8695 25.5934C12.6944 25.3613 12.5195 25.1289 12.3492 24.9015C12.3173 24.8548 12.2712 24.8381 12.2445 24.8288C12.2068 24.8104 12.1617 24.8085 12.1217 24.8256C12.0824 24.8423 12.0523 24.8754 12.0391 24.9158L12.0339 24.9317C12.0266 24.953 12.0208 24.9719 12.0178 24.9907C11.7134 26.8058 11.9001 28.4321 12.5885 29.9629C12.9247 30.7114 13.3757 31.5588 14.1707 32.1685C14.5337 32.4469 14.8203 32.8374 14.9777 33.268C15.011 33.3607 15.0098 33.4009 15.006 33.4164C14.6695 34.8102 14.2299 36.1546 13.6956 37.427C13.8332 36.7564 13.8237 36.052 13.6667 35.3222C13.4437 34.2879 13.0605 33.2855 12.7186 32.4271L12.6162 32.17C12.4559 31.7678 12.2946 31.3623 12.1279 30.9421C12.1068 30.8884 12.0558 30.8517 11.9878 30.8484C11.9342 30.8484 11.8849 30.879 11.8593 30.9286L11.8056 31.0296C11.782 31.0739 11.7599 31.1152 11.7411 31.1578C11.0534 32.7093 10.8212 34.2998 11.0511 35.885C11.2155 37.0186 11.494 37.8303 11.9543 38.517C12.1925 38.8719 12.4188 39.2673 12.4599 39.7536C12.4696 39.8687 12.4651 39.948 12.4138 40.0382C11.8333 41.0548 11.1825 42.0141 10.4697 42.9053C10.4725 42.9005 10.4751 42.8956 10.4778 42.8907C10.9906 41.9536 11.0061 40.9404 10.9537 40.0728C10.9085 39.329 10.8233 38.5863 10.7413 37.8682L10.7366 37.8266C10.7035 37.539 10.6707 37.2515 10.6407 36.9634C10.6233 36.8001 10.604 36.6368 10.584 36.471L10.5577 36.2467C10.5519 36.1971 10.5216 36.1541 10.4781 36.1325C10.3972 36.0902 10.2661 36.1555 10.1246 36.3229C9.15187 37.4734 8.54825 38.7735 8.33031 40.1872C8.10429 41.653 8.22681 42.9075 8.70532 44.0222C8.7181 44.0518 8.7178 44.1124 8.71765 44.1326L8.69192 44.774C8.68812 44.8201 8.66377 44.8722 8.64368 44.8915C7.67235 45.8269 6.60301 46.6401 5.45544 47.3169C5.99863 46.8259 6.38917 46.1853 6.64228 45.3735C6.92278 44.4737 7.06676 43.5372 7.20632 42.6292L7.2185 42.5484C7.26796 42.2294 7.31956 41.911 7.37222 41.5856L7.43173 41.2178C7.44025 41.1642 7.4191 41.1106 7.37755 41.0785C7.3363 41.0456 7.27664 41.0377 7.22915 41.0581L7.17725 41.0796C7.12185 41.1022 7.07361 41.1225 7.0281 41.1458C4.85867 42.2293 3.4306 44.7564 3.63242 47.1544C3.66407 47.53 3.62967 47.8828 3.52709 48.2323C3.5175 48.2641 3.48676 48.2986 3.47428 48.3044C2.4439 48.7389 1.46421 49.0559 0.478422 49.2736C0.42774 49.2853 0.387557 49.3215 0.37112 49.3704C0.35453 49.4195 0.364578 49.473 0.398366 49.5131C0.505513 49.6401 0.598808 49.7766 0.675516 49.9195C0.707021 49.978 0.782054 50.0079 0.838215 49.9933C1.64136 49.8101 2.42351 49.5728 3.16364 49.2876C3.22346 49.2635 3.26912 49.2521 3.31188 49.2591C3.47656 49.281 3.65053 49.3148 3.84367 49.3628C3.88354 49.3725 3.91657 49.3909 3.91718 49.3893C4.33907 50.2303 5.06414 50.766 6.13455 51.0268C6.36741 51.0826 6.60758 51.1239 6.84836 51.1491C7.1004 51.1758 7.3815 51.1893 7.68361 51.1893C8.10216 51.1893 8.40062 51.1634 8.40427 51.1631C9.33207 51.0593 10.1244 50.8505 10.8262 50.5247C11.1142 50.3912 11.4423 50.2114 11.6945 49.8904C11.7427 49.829 11.7347 49.7402 11.6761 49.6886C10.9632 49.0596 10.2373 48.6025 9.45672 48.2915C8.30017 47.8318 7.24666 47.7073 6.214 47.9059C6.05967 47.9359 5.90899 47.9737 5.76258 48.017C6.72858 47.4396 7.65348 46.761 8.52694 45.9878C8.54369 45.9726 8.57123 45.9592 8.59269 45.9554C8.73561 45.9316 8.9254 45.9024 9.1196 45.8884C9.13756 45.8884 9.16039 45.8971 9.16298 45.898C9.68928 46.487 10.3673 46.7733 11.2359 46.7733C11.2802 46.7733 11.3246 46.7724 11.3689 46.7708C12.3133 46.7404 13.2627 46.4809 14.1913 45.9992C14.8661 45.6472 15.5696 45.2373 16.14 44.6261C16.2665 44.4902 16.3794 44.3364 16.4791 44.2008L16.4889 44.1876C16.533 44.1278 16.5776 44.0675 16.6234 44.008C16.6484 43.9759 16.6589 43.9345 16.6523 43.8928C16.6453 43.8526 16.622 43.8168 16.5823 43.791C16.5723 43.7855 16.3307 43.656 16.1102 43.5706C14.6336 43 13.1428 42.9415 11.7207 43.3998C11.2551 43.5494 10.8169 43.7741 10.3903 44.0846C11.1793 43.1674 11.9098 42.162 12.5731 41.0802C12.5803 41.0688 12.5991 41.0379 12.6052 41.0322C12.6632 40.9952 12.7226 40.9602 12.7818 40.9257C12.8879 40.8634 12.9978 40.7991 13.1009 40.7224C13.188 40.6574 13.2125 40.6557 13.3005 40.7123C13.425 40.7931 13.5697 40.8351 13.6959 40.8682C14.434 41.0572 15.1781 40.963 16.0012 40.5765C16.7531 40.2241 17.3311 39.6669 17.844 39.1174C18.5901 38.316 19.0776 37.5929 19.3783 36.8416C19.4415 36.6839 19.4866 36.5209 19.5334 36.3505C19.5528 36.2789 19.5725 36.2074 19.5936 36.1371C19.6165 36.0616 19.5764 35.9817 19.5018 35.9554L19.44 35.9506C19.1357 35.9506 16.4217 35.9952 14.8343 37.5355C14.489 37.8706 14.1794 38.2268 13.8968 38.6167C14.5248 37.2868 15.0573 35.8852 15.4865 34.4303L15.4927 34.409C15.4979 34.3912 15.5057 34.3643 15.5108 34.357L15.926 33.7868C15.9416 33.764 15.9434 33.764 15.9677 33.764C15.9785 33.764 15.9904 33.7648 16.004 33.7655L16.0927 33.7709C16.4017 33.79 16.5835 33.7873 16.7331 33.7639C17.3243 33.6706 17.8579 33.3729 18.3643 32.8536C19.5485 31.639 20.3637 30.1238 20.8562 28.2216C20.909 28.0178 20.9238 27.812 20.9396 27.5938C20.9466 27.4948 20.9543 27.3929 20.9656 27.2875C20.9703 27.237 20.9505 27.1888 20.9125 27.1573Z" fill="#00542F"/>
</svg>
