<svg width="52" height="52" viewBox="0 0 52 52" fill="none" xmlns="http://www.w3.org/2000/svg">
<g clip-path="url(#clip0_445_1052)">
<path fill-rule="evenodd" clip-rule="evenodd" d="M40.9434 18.58C48.9883 4.6457 34.1942 -4.61436 25.999 3.58096C17.8037 -4.61436 3.00957 4.6457 11.0546 18.58C14.7571 24.993 22.2247 30.8727 25.999 31.884C29.7733 30.8726 37.2407 24.993 40.9434 18.58Z" fill="#FFBEBC"/>
<path d="M51.8717 36.6323C51.4621 35.2228 49.9672 33.9403 47.654 34.4545C47.6376 34.4561 38.0263 36.7807 38.0084 36.7834C37.7435 35.2549 36.2325 34.0632 34.681 34.2377C33.6199 34.3343 26.9382 35.0957 25.8298 35.1983C24.7025 35.3023 23.2274 35.0806 21.5192 34.8237C18.7015 34.4001 15.5079 33.9199 12.304 34.642C8.5031 35.4988 5.59764 37.854 3.42185 41.8425L0.395837 47.1864C-0.1312 48.1343 -0.132012 49.2787 0.393805 50.1726C0.879402 50.9984 1.73745 51.4913 2.68904 51.4913C2.68924 51.4914 13.2994 51.4911 13.2997 51.4913C15.9145 51.5934 16.2408 50.2218 17.4591 48.3728L23.517 48.6617C27.9925 48.8752 29.4211 48.6481 33.7067 47.0412C37.023 45.7977 41.1669 44.1016 44.4965 42.7387C46.8807 41.7629 48.9397 40.9201 49.713 40.6497C51.6862 39.9441 52.2972 38.0904 51.8717 36.6323ZM49.0372 38.734C44.9945 40.2628 37.5367 43.4695 32.9935 45.1391C28.9591 46.6517 27.8193 46.8333 23.6138 46.6326L16.9635 46.3155C16.5946 46.2991 16.2505 46.4791 16.0555 46.7891L14.857 48.6938C14.5994 49.1032 14.4532 49.2869 14.3357 49.3493C14.151 49.4473 13.6845 49.4598 13.2992 49.4598H2.68904C2.00752 49.424 1.89356 48.672 2.16739 48.1804C2.17541 48.1659 5.19422 42.8353 5.20122 42.8219C9.30996 35.4541 15.0124 35.8805 21.217 36.8325C25.1597 37.512 26.0396 37.2256 30.459 36.7389C32.3611 36.5282 34.3281 36.3102 34.8678 36.2603C35.4547 36.1978 35.9966 36.7108 36.0317 37.2982C36.0493 37.501 36.096 38.0398 34.7439 38.6251C31.9394 39.8394 28.9603 40.8576 26.5703 41.4189C26.0242 41.5471 25.6855 42.0938 25.8137 42.6398C25.942 43.1859 26.4888 43.5244 27.0347 43.3964C29.5367 42.8088 32.6407 41.7493 35.5511 40.4892C36.5657 40.0498 37.1938 39.5203 37.5686 38.9791L48.1031 36.4355C49.0433 36.2291 49.7219 36.5142 49.9209 37.199C50.0799 37.7457 49.8679 38.4315 49.0372 38.734Z" fill="#075450"/>
<path d="M6.10883 17.2096H19.7508C20.1582 17.2096 20.5262 16.9663 20.6856 16.5914L22.8749 11.4424L28.1883 23.9385C28.3478 24.3134 28.7156 24.5568 29.123 24.5568C29.5304 24.5568 29.8983 24.3134 30.0578 23.9385L32.9188 17.2096H45.8892C47.231 17.1618 47.2383 15.2292 45.8892 15.1783H32.2471C31.8397 15.1783 31.4718 15.4216 31.3123 15.7965L29.123 20.9455L23.8096 8.4493C23.6501 8.07441 23.2823 7.83105 22.8749 7.83105C22.4675 7.83105 22.0995 8.07441 21.9401 8.4493L19.0791 15.1782H6.10883C4.76397 15.2275 4.76244 17.1597 6.10883 17.2096Z" fill="#075450"/>
</g>
<defs>
<clipPath id="clip0_445_1052">
<rect width="52" height="52" fill="white"/>
</clipPath>
</defs>
</svg>
