<svg width="57" height="56" viewBox="0 0 57 56" fill="none" xmlns="http://www.w3.org/2000/svg">
<g clip-path="url(#clip0_237_2037)">
<path d="M11.0733 22.5047H5.5843V20.2785C5.5843 15.7462 9.25823 12.0723 13.7905 12.0723H31.3007C26.7673 12.0723 23.0934 15.7462 23.0934 20.2785V22.5047V31.8502C23.0934 32.7742 23.5494 33.591 24.2481 34.0874V34.5947H11.0733V31.8502V22.5047Z" fill="#A4E772"/>
<path d="M28.5835 22.5047H23.0934V20.2785C23.0934 15.7462 26.7673 12.0723 31.3007 12.0723H39.04C42.6078 12.0723 45.6421 14.3477 46.7738 17.5252C47.08 18.3857 47.2473 19.313 47.2473 20.2785V22.5047H41.7572V31.8502V34.2284V34.5947H28.5835V31.8502V22.5047Z" fill="#A4E772"/>
<path d="M49.447 36.2764H49.8045C50.6946 36.2764 51.4173 36.9991 51.4173 37.8892V42.5734C51.4173 43.4646 50.6946 44.1862 49.8045 44.1862H41.7569H41.2823C40.3912 44.1862 39.6695 43.4646 39.6695 42.5734V37.8892C39.6695 36.9991 40.3912 36.2764 41.2823 36.2764H41.7569H49.447Z" stroke="#075450" stroke-width="2.34306" stroke-miterlimit="10" stroke-linecap="round" stroke-linejoin="round"/>
<path d="M41.7569 34.2283C41.7569 32.9326 42.8077 31.8818 44.1034 31.8818H47.1005C47.1486 31.8818 47.1978 31.8829 47.2448 31.8873C48.4749 31.9606 49.447 32.9807 49.447 34.2283V36.2763" stroke="#075450" stroke-width="2.34306" stroke-miterlimit="10" stroke-linecap="round" stroke-linejoin="round"/>
<path d="M41.7568 34.5959V34.5947" stroke="#075450" stroke-width="2.34306" stroke-miterlimit="10" stroke-linecap="round" stroke-linejoin="round"/>
<path d="M35.2521 12.0358C38.2739 12.0358 40.7236 9.58613 40.7236 6.5643C40.7236 3.54246 38.2739 1.09277 35.2521 1.09277C32.2302 1.09277 29.7805 3.54246 29.7805 6.5643C29.7805 9.58613 32.2302 12.0358 35.2521 12.0358Z" stroke="#075450" stroke-width="2.34306" stroke-miterlimit="10" stroke-linecap="round" stroke-linejoin="round"/>
<path d="M28.5832 34.5941V31.8496" stroke="#075450" stroke-width="2.34306" stroke-miterlimit="10" stroke-linecap="round" stroke-linejoin="round"/>
<path d="M41.7569 20.334V22.5044V31.85V34.2282V34.5945" stroke="#075450" stroke-width="2.34306" stroke-miterlimit="10" stroke-linecap="round" stroke-linejoin="round"/>
<path d="M39.0398 12.0723C42.6077 12.0723 45.642 14.3477 46.7737 17.5252C47.0798 18.3857 47.2471 19.313 47.2471 20.2785V22.5047V31.8502" stroke="#075450" stroke-width="2.34306" stroke-miterlimit="10" stroke-linecap="round" stroke-linejoin="round"/>
<path d="M28.5831 20.3342V22.5047V31.8502C28.5831 32.6091 28.2758 33.2946 27.7794 33.7921C27.2819 34.2886 26.5952 34.5958 25.8375 34.5958C25.2448 34.5958 24.6959 34.4078 24.2476 34.0874C23.5489 33.591 23.093 32.7742 23.093 31.8502V22.5047V20.2785C23.093 15.7462 26.7669 12.0723 31.3002 12.0723" stroke="#075450" stroke-width="2.34306" stroke-miterlimit="10" stroke-linecap="round" stroke-linejoin="round"/>
<path d="M41.7569 36.2763V34.5957" stroke="#075450" stroke-width="2.34306" stroke-miterlimit="10" stroke-linecap="round" stroke-linejoin="round"/>
<path d="M41.7569 44.1855V51.6613C41.7569 52.5568 41.3939 53.3682 40.8067 53.9553C40.2196 54.5425 39.4093 54.9055 38.5138 54.9055C36.7217 54.9055 35.2696 53.4535 35.2696 51.6613V51.5618" stroke="#075450" stroke-width="2.34306" stroke-miterlimit="10" stroke-linecap="round" stroke-linejoin="round"/>
<path d="M35.2695 40.0803V51.5625C35.2695 52.4853 34.8955 53.3218 34.2897 53.9264C33.6851 54.5322 32.8497 54.9062 31.9257 54.9062C30.08 54.9062 28.5831 53.4093 28.5831 51.5625V34.5957" stroke="#075450" stroke-width="2.34306" stroke-miterlimit="10" stroke-linecap="round" stroke-linejoin="round"/>
<path d="M28.5831 22.5049H23.093" stroke="#075450" stroke-width="2.34306" stroke-miterlimit="10" stroke-linecap="round" stroke-linejoin="round"/>
<path d="M47.247 22.5049H41.7569" stroke="#075450" stroke-width="2.34306" stroke-miterlimit="10" stroke-linecap="round" stroke-linejoin="round"/>
<path d="M17.7419 12.0358C20.7637 12.0358 23.2134 9.58613 23.2134 6.5643C23.2134 3.54246 20.7637 1.09277 17.7419 1.09277C14.72 1.09277 12.2704 3.54246 12.2704 6.5643C12.2704 9.58613 14.72 12.0358 17.7419 12.0358Z" stroke="#075450" stroke-width="2.34306" stroke-miterlimit="10" stroke-linecap="round" stroke-linejoin="round"/>
<path d="M11.073 34.5941V31.8496" stroke="#075450" stroke-width="2.34306" stroke-miterlimit="10" stroke-linecap="round" stroke-linejoin="round"/>
<path d="M24.2478 34.0869V34.5943" stroke="#075450" stroke-width="2.34306" stroke-miterlimit="10" stroke-linecap="round" stroke-linejoin="round"/>
<path d="M17.7591 51.5625V51.662C17.7591 53.4541 19.2123 54.9062 21.0033 54.9062C21.8999 54.9062 22.7102 54.5431 23.2973 53.956C23.8845 53.3688 24.2475 52.5575 24.2475 51.662V34.5957" stroke="#075450" stroke-width="2.34306" stroke-miterlimit="10" stroke-linecap="round" stroke-linejoin="round"/>
<path d="M11.0731 34.5957V51.5625C11.0731 53.4093 12.57 54.9062 14.4168 54.9062C15.3397 54.9062 16.175 54.5322 16.7808 53.9264C17.3855 53.3218 17.7594 52.4853 17.7594 51.5625V40.0803" stroke="#075450" stroke-width="2.34306" stroke-miterlimit="10" stroke-linecap="round" stroke-linejoin="round"/>
<path d="M11.073 22.5049H5.58402H5.58293" stroke="#075450" stroke-width="2.34306" stroke-miterlimit="10" stroke-linecap="round" stroke-linejoin="round"/>
<path d="M46.7735 17.525H47.2754C48.0331 17.525 48.7198 17.2177 49.2162 16.7213C49.7126 16.2249 50.0199 15.5382 50.0199 14.7805C50.0199 13.265 48.7909 12.036 47.2797 12.0721H39.0397H31.3004H13.7902C9.25791 12.0721 5.58398 15.746 5.58398 20.2783V22.5045V31.85C5.58398 33.3666 6.81191 34.5956 8.32849 34.5956C9.08624 34.5956 9.77182 34.2884 10.2693 33.7919C10.7657 33.2944 11.073 32.6089 11.073 31.85V22.5045V20.334" stroke="#075450" stroke-width="2.34306" stroke-miterlimit="10" stroke-linecap="round" stroke-linejoin="round"/>
</g>
<defs>
<clipPath id="clip0_237_2037">
<rect width="56" height="56" fill="white" transform="translate(0.5)"/>
</clipPath>
</defs>
</svg>
