<svg width="56" height="56" viewBox="0 0 56 56" fill="none" xmlns="http://www.w3.org/2000/svg">
<path d="M23.3628 31.8477L23.0722 32.9414H19.7866C14.3429 32.9414 8.83594 37.3667 8.83594 42.8256V54.9061H26.3534L24.0478 31.8477H23.3628Z" fill="#009855"/>
<path d="M47.163 54.9061V42.8256C47.163 37.3667 41.656 32.9414 36.2124 32.9414H32.9268L32.6362 31.8477H31.9511L29.6455 54.9061H47.163Z" fill="#009855"/>
<path d="M24.167 15.375C23.563 15.375 23.0732 15.8647 23.0732 16.4688V17.567C23.0732 18.1711 23.563 18.6607 24.167 18.6607C24.7711 18.6607 25.2607 18.1711 25.2607 17.567V16.4688C25.2607 15.8647 24.7711 15.375 24.167 15.375Z" fill="#A4E772"/>
<path d="M31.832 18.6607C32.4361 18.6607 32.9258 18.1711 32.9258 17.567V16.4688C32.9258 15.8647 32.4361 15.375 31.832 15.375C31.2281 15.375 30.7383 15.8647 30.7383 16.4688V17.567C30.7383 18.1711 31.2281 18.6607 31.832 18.6607Z" fill="#A4E772"/>
<path d="M36.2125 31.8478H33.7679L33.114 29.3873C36.2658 27.5937 38.4081 24.1989 38.4283 20.312C38.4283 19.7088 38.428 7.76989 38.428 7.50006C38.4281 3.36448 35.0636 0 30.928 0H15.4061C14.8021 0 14.3123 0.489672 14.3123 1.09375V4.57144C14.3123 7.13355 15.6045 9.3987 17.5706 10.7522V20.3177C17.5909 24.2007 19.7331 27.5941 22.8848 29.3874L22.2311 31.8478H19.7866C13.8239 31.8478 7.74219 36.6719 7.74219 42.8258V54.9062C7.74219 55.5103 8.23197 56 8.83594 56H47.1631C47.7671 56 48.2569 55.5103 48.2569 54.9062V42.8258C48.2569 36.6744 42.1784 31.8478 36.2125 31.8478ZM39.5309 41.7233C40.139 41.7233 40.6334 42.2178 40.6334 42.8258C40.6334 43.4338 40.139 43.9283 39.5309 43.9283C38.9229 43.9283 38.4284 43.4337 38.4284 42.8258C38.4284 42.2179 38.9229 41.7233 39.5309 41.7233ZM16.4998 4.57144V2.1875H30.928C33.8573 2.1875 36.2405 4.57067 36.2405 7.50006V9.88389H21.8125C18.883 9.88389 16.4998 7.50072 16.4998 4.57144ZM19.7581 20.312V11.783C20.4115 11.9695 21.1002 12.0714 21.8124 12.0714H36.2409V20.3063C36.2173 24.8538 32.5202 28.5534 27.9995 28.5534C23.479 28.5534 19.7819 24.8538 19.7581 20.312ZM46.0694 53.8125H41.7228V49.4156C41.7228 48.8115 41.233 48.3219 40.6291 48.3219C40.0251 48.3219 39.5353 48.8115 39.5353 49.4156V53.8125H16.4637V49.4156C16.4637 48.8115 15.974 48.3219 15.37 48.3219C14.7659 48.3219 14.2762 48.8115 14.2762 49.4156V53.8125H9.92969V42.8258C9.92969 39.3913 12.355 36.55 15.3744 35.0921V40.8216C14.0964 41.2734 13.1781 42.4932 13.1781 43.9239V45.022C13.1781 45.6261 13.6679 46.1158 14.2719 46.1158C14.8758 46.1158 15.3656 45.6261 15.3656 45.022V43.9239C15.3656 43.316 15.8601 42.8214 16.4681 42.8214C17.0761 42.8214 17.5706 43.316 17.5706 43.9239V45.022C17.5706 45.6261 18.0603 46.1158 18.6644 46.1158C19.2683 46.1158 19.7581 45.6261 19.7581 45.022V43.9239C19.7581 42.4931 18.8398 41.2734 17.5619 40.8216V34.3074C18.3021 34.1295 19.0511 34.0353 19.7866 34.0353C23.2997 34.0294 23.1054 34.0511 23.2909 34.0133C23.7118 33.9288 24.0234 33.6198 24.1292 33.2227C24.1437 33.1682 24.8965 30.3355 24.9135 30.271C26.9172 30.8978 29.0817 30.8978 31.0855 30.2708L31.8698 33.2223C31.9972 33.7016 32.431 34.0352 32.9269 34.0352H36.2125C36.9479 34.0352 37.6969 34.1294 38.4372 34.3073V39.7234C37.1592 40.1752 36.2409 41.3949 36.2409 42.8257C36.2409 44.6398 37.7168 46.1157 39.5309 46.1157C41.345 46.1157 42.8209 44.6398 42.8209 42.8257C42.8209 41.3949 41.9026 40.1753 40.6247 39.7234V35.092C43.6441 36.5498 46.0694 39.3912 46.0694 42.8257V53.8125Z" fill="#A4E772"/>
<path d="M30.326 24.2862C30.7531 23.8591 30.7531 23.1665 30.326 22.7393C29.8988 22.3122 29.2064 22.3122 28.7791 22.7393C28.3483 23.1702 27.6509 23.1704 27.2197 22.7394C26.7929 22.3124 26.1002 22.3122 25.673 22.7393C25.2457 23.1664 25.2457 23.8588 25.6729 24.2861C26.9587 25.5721 29.04 25.5722 30.326 24.2862Z" fill="#A4E772"/>
<path d="M31.7443 37.1383C29.5374 38.8839 26.4642 38.8847 24.2585 37.1408C23.8291 36.7841 23.1906 36.8074 22.7878 37.2102C22.3262 37.6718 22.3698 38.4331 22.8807 38.8399C25.8461 41.2001 30.0966 41.2427 33.1172 38.8415C33.6391 38.4263 33.6714 37.6498 33.1914 37.1926C32.7872 36.808 32.1653 36.7934 31.7443 37.1383Z" fill="#A4E772"/>
</svg>
