<svg width="52" height="52" viewBox="0 0 52 52" fill="none" xmlns="http://www.w3.org/2000/svg">
<g clip-path="url(#clip0_647_351)">
<path fill-rule="evenodd" clip-rule="evenodd" d="M26.0048 24.9479C32.1634 24.9479 37.1864 19.9249 37.1864 13.7663C36.6144 -1.04529 15.3929 -1.04118 14.8232 13.7665C14.8232 19.9249 19.8461 24.9479 26.0048 24.9479Z" fill="#A4E772"/>
<path d="M48.5167 17.1129C47.4988 16.5535 45.9483 16.6669 44.9492 18.2376C44.9397 18.2489 41.2019 24.3729 41.1923 24.3859C40.1933 23.7775 38.7741 23.9959 38.0394 24.9152C37.5337 25.5229 34.427 29.4275 33.8986 30.0643C31.5017 32.8632 27.7945 33.9989 26.0048 37.6361C24.2154 33.9992 20.5077 32.8631 18.1109 30.0643C17.5822 29.4272 14.4763 25.5232 13.9701 24.9152C13.2358 23.996 11.816 23.7776 10.8173 24.3859C10.8083 24.3718 7.06889 18.2504 7.0604 18.2376C5.07775 15.1282 1.0774 17.6201 2.44662 20.5542C3.77018 23.5035 5.98332 29.0395 7.49482 32.3133C8.91217 35.4311 9.54787 36.3073 12.0295 38.563L15.3868 41.6146V41.9259H14.8233C14.3189 41.9259 13.91 42.3349 13.91 42.8392V48.43C13.91 48.9343 14.3189 49.3432 14.8233 49.3432H37.1864C37.6908 49.3432 38.0996 48.9343 38.0996 48.43V42.8392C38.0996 42.3349 37.6908 41.9259 37.1864 41.9259H36.6228V41.6146L39.9802 38.563C42.4618 36.3073 43.0975 35.4311 44.515 32.3133C45.6039 29.9178 46.8891 26.8515 47.9218 24.3877C48.6598 22.6272 49.297 21.1065 49.5591 20.5627C50.1742 19.2636 49.7255 17.7767 48.5167 17.1129ZM16.9142 40.535L13.2579 37.2114C10.967 35.1291 10.4687 34.4422 9.15737 31.5575C7.65911 28.3125 5.40542 22.6812 4.0984 19.775C3.83182 19.2026 4.14497 18.8385 4.37246 18.7135C4.75401 18.5037 5.18086 18.69 5.5152 19.2118L9.67481 26.0195C9.59737 26.5164 9.65892 27.1347 9.96175 27.8999C10.8311 30.0968 11.9086 32.2911 12.9181 33.92C13.1838 34.3487 13.7466 34.4809 14.1754 34.2152C14.6041 33.9495 14.7363 33.3866 14.4706 32.9578C13.5157 31.4169 12.4913 29.3284 11.6601 27.2278C11.3001 26.3179 11.5434 26.1135 11.635 26.0365C11.8973 25.8045 12.3431 25.8079 12.5653 26.0824C13.0926 26.7178 16.1985 30.6214 16.7061 31.2315C19.6273 34.7703 24.6099 35.7132 25.0916 41.0614V41.926H17.2133V41.2107C17.2132 40.9534 17.1047 40.708 16.9142 40.535ZM15.7364 43.7525H25.0915V47.5169H15.7364V43.7525ZM36.2731 47.5169H26.9179V43.7525H36.273L36.2731 47.5169ZM47.911 19.7751C46.5946 22.6996 44.3575 28.2975 42.852 31.5576C41.5407 34.4423 41.0425 35.1292 38.7516 37.2115L35.0953 40.5351C34.9049 40.7081 34.7963 40.9535 34.7963 41.2108V41.9261H26.918V41.0614C27.3993 35.7137 32.3825 34.7701 35.3035 31.2316C35.8107 30.6218 38.9173 26.7176 39.4442 26.0825C39.6663 25.8085 40.1119 25.8041 40.3744 26.0366C40.466 26.1136 40.7094 26.318 40.3493 27.2279C39.5181 29.3285 38.4937 31.417 37.5388 32.9579C37.2732 33.3866 37.4053 33.9495 37.834 34.2153C38.2626 34.4809 38.8257 34.3489 39.0913 33.9201C40.1008 32.2912 41.1783 30.0969 42.0477 27.9C42.3505 27.1348 42.4119 26.5166 42.3346 26.0196L46.4942 19.2119C46.8285 18.6901 47.2553 18.5037 47.6369 18.7136C47.8644 18.8386 48.1776 19.2026 47.911 19.7751Z" fill="#075450"/>
<path d="M20.4142 17.0094H22.7622V19.3574C22.7622 19.8617 23.1711 20.2707 23.6755 20.2707H28.3345C28.8388 20.2707 29.2477 19.8617 29.2477 19.3574V17.0094H31.5957C32.1001 17.0094 32.509 16.6005 32.509 16.0962V11.4373C32.509 10.933 32.1001 10.5241 31.5957 10.5241H29.2477V8.17593C29.2477 7.67164 28.8388 7.2627 28.3345 7.2627H23.6755C23.1711 7.2627 22.7622 7.67164 22.7622 8.17593V10.5241H20.4142C19.9098 10.5241 19.501 10.933 19.501 11.4373V16.0963C19.501 16.6006 19.9098 17.0094 20.4142 17.0094ZM21.3275 12.3505H23.6755C24.1799 12.3505 24.5887 11.9416 24.5887 11.4373V9.08917H27.4212V11.4373C27.4212 11.9416 27.8301 12.3505 28.3345 12.3505H30.6825V15.183H28.3345C27.8301 15.183 27.4212 15.592 27.4212 16.0963V18.4443H24.5887V16.0963C24.5887 15.592 24.1799 15.183 23.6755 15.183H21.3275V12.3505Z" fill="#075450"/>
</g>
<defs>
<clipPath id="clip0_647_351">
<rect width="47.6667" height="47.6667" fill="white" transform="translate(2.16699 2.16699)"/>
</clipPath>
</defs>
</svg>
