<svg width="52" height="52" viewBox="0 0 52 52" fill="none" xmlns="http://www.w3.org/2000/svg">
<path d="M19.2441 40.7828L16.2836 39.7624L16.8957 38.7514C14.951 36.5846 13.7666 33.7224 13.7666 30.5886C13.7666 23.8432 19.2543 18.3555 25.9997 18.3555C32.7451 18.3555 38.2329 23.8433 38.2329 30.5887C38.2329 33.7224 37.0485 36.5847 35.1038 38.7515L35.7836 40.1169L32.7554 40.7828C28.6666 43.5014 23.337 43.5043 19.2441 40.7828Z" fill="#A4E772"/>
<path d="M29.8023 29.5769H27.0379V26.8125C27.0379 26.2516 26.5832 25.7969 26.0222 25.7969C25.4613 25.7969 25.0066 26.2516 25.0066 26.8125V29.5769H22.2422C21.6813 29.5769 21.2266 30.0316 21.2266 30.5926C21.2266 31.1535 21.6813 31.6082 22.2422 31.6082H25.0066V34.3726C25.0066 34.9335 25.4613 35.3882 26.0222 35.3882C26.5832 35.3882 27.0379 34.9335 27.0379 34.3726V31.6082H29.8023C30.3632 31.6082 30.8179 31.1535 30.8179 30.5926C30.8179 30.0316 30.3632 29.5769 29.8023 29.5769Z" fill="#075450"/>
<path d="M49.4218 23.4836L50.0065 22.8989C51.3362 21.5692 51.2046 19.3692 49.7168 18.2099L26.6239 0.2145C26.257 -0.0715 25.7423 -0.0715 25.3754 0.2145L2.28262 18.2099C0.799303 19.3656 0.659147 21.5652 1.99276 22.8989L2.57746 23.4836C3.52412 24.4304 4.94783 24.6532 6.11823 24.108V45.8897H4.62902C3.20095 45.8897 2.03918 47.0515 2.03918 48.4795V49.4102C2.03918 50.8382 3.20095 52 4.62902 52H47.3702C48.7982 52 49.96 50.8382 49.96 49.4102V48.4795C49.96 47.0515 48.7982 45.8897 47.3702 45.8897H45.881V24.1057C47.0982 24.673 48.5073 24.3979 49.4218 23.4836ZM47.3702 47.9209C47.6781 47.9209 47.9288 48.1716 47.9288 48.4795V49.4102C47.9288 49.7182 47.6781 49.9688 47.3702 49.9688H4.62902C4.32108 49.9688 4.07043 49.7182 4.07043 49.4102V48.4795C4.07043 48.1716 4.32108 47.9209 4.62902 47.9209H47.3702ZM16.8961 38.7513H8.14958V22.6243L25.9996 8.6907L43.8497 22.6243V38.7513H35.1032C34.4104 39.523 33.6214 40.2065 32.7549 40.7825H43.8498V45.8897H8.14948V40.7825H19.2444C18.3779 40.2064 17.5888 39.523 16.8961 38.7513ZM26.6246 6.60177C26.2573 6.31516 25.7421 6.31516 25.3747 6.60177L5.4729 22.1368C5.03456 22.4791 4.40721 22.4406 4.01386 22.0472L3.42916 21.4625C2.96421 20.9975 3.0023 20.2241 3.53113 19.812L25.9996 2.30323L48.4682 19.8121C48.9869 20.2163 49.0442 20.9885 48.5701 21.4626L47.9854 22.0473C47.5921 22.4406 46.9647 22.4792 46.5264 22.1369L26.6246 6.60177Z" fill="#075450"/>
</svg>
