<svg width="52" height="52" viewBox="0 0 52 52" fill="none" xmlns="http://www.w3.org/2000/svg">
<path d="M29.4772 34.4848C27.428 36.1057 24.5743 36.1064 22.5261 34.4871C22.1273 34.1559 21.5345 34.1776 21.1605 34.5516C20.7319 34.9802 20.7723 35.6871 21.2467 36.0649C24.0003 38.2565 27.9472 38.296 30.752 36.0663C31.2367 35.6808 31.2666 34.9598 30.821 34.5353C30.4456 34.1781 29.8681 34.1646 29.4772 34.4848Z" fill="#075450"/>
<path d="M21.6943 29.5732L21.4245 30.5889H18.3735C13.3186 30.5889 8.20508 34.6981 8.20508 39.7671V50.9846H24.4713L22.3304 29.5732H21.6943Z" fill="#A4E772"/>
<path d="M43.7946 50.9846V39.7671C43.7946 34.6981 38.6809 30.5889 33.6261 30.5889H30.5752L30.3053 29.5732H29.6693L27.5283 50.9846H43.7946Z" fill="#A4E772"/>
<path d="M22.4404 14.2764C21.8796 14.2764 21.4248 14.7311 21.4248 15.292V16.3118C21.4248 16.8727 21.8796 17.3274 22.4404 17.3274C23.0014 17.3274 23.4561 16.8727 23.4561 16.3118V15.292C23.4561 14.7311 23.0014 14.2764 22.4404 14.2764Z" fill="#075450"/>
<path d="M29.5586 17.3274C30.1195 17.3274 30.5742 16.8727 30.5742 16.3118V15.292C30.5742 14.7311 30.1195 14.2764 29.5586 14.2764C28.9978 14.2764 28.543 14.7311 28.543 15.292V16.3118C28.543 16.8727 28.9978 17.3274 29.5586 17.3274Z" fill="#075450"/>
<path d="M33.6262 29.573H31.3562L30.749 27.2882C33.6756 25.6227 35.6649 22.4704 35.6837 18.8612C35.6837 18.3011 35.6834 7.2149 35.6834 6.96434C35.6835 3.12416 32.5594 0 28.7192 0H14.3059C13.7451 0 13.2903 0.454695 13.2903 1.01562V4.24491C13.2903 6.62401 14.4902 8.72737 16.3159 9.9842V18.8665C16.3346 22.4721 18.3239 25.6231 21.2505 27.2883L20.6434 29.573H18.3735C12.8367 29.573 7.18945 34.0525 7.18945 39.7668V50.9844C7.18945 51.5453 7.64425 52 8.20508 52H43.7946C44.3554 52 44.8102 51.5453 44.8102 50.9844V39.7668C44.8102 34.0548 39.1659 29.573 33.6262 29.573ZM36.7076 38.743C37.2722 38.743 37.7313 39.2022 37.7313 39.7668C37.7313 40.3314 37.2722 40.7905 36.7076 40.7905C36.143 40.7905 35.6838 40.3313 35.6838 39.7668C35.6838 39.2023 36.143 38.743 36.7076 38.743ZM15.3216 4.24491V2.03125H28.7192C31.4392 2.03125 33.6522 4.24419 33.6522 6.96434V9.1779H20.2548C17.5345 9.1779 15.3216 6.96495 15.3216 4.24491ZM18.3471 18.8612V10.9413C18.9538 11.1145 19.5933 11.2091 20.2547 11.2091H33.6526V18.8559C33.6306 23.0786 30.1976 26.5139 25.9998 26.5139C21.8022 26.5139 18.3691 23.0786 18.3471 18.8612ZM42.779 49.9688H38.7429V45.8859C38.7429 45.325 38.2881 44.8703 37.7273 44.8703C37.1664 44.8703 36.7116 45.325 36.7116 45.8859V49.9688H15.288V45.8859C15.288 45.325 14.8333 44.8703 14.2724 44.8703C13.7115 44.8703 13.2568 45.325 13.2568 45.8859V49.9688H9.2207V39.7668C9.2207 36.5776 11.4728 33.9392 14.2765 32.5855V37.9058C13.0898 38.3253 12.2371 39.4579 12.2371 40.7865V41.8062C12.2371 42.3671 12.6919 42.8218 13.2527 42.8218C13.8136 42.8218 14.2684 42.3671 14.2684 41.8062V40.7865C14.2684 40.222 14.7275 39.7627 15.2921 39.7627C15.8567 39.7627 16.3159 40.222 16.3159 40.7865V41.8062C16.3159 42.3671 16.7706 42.8218 17.3315 42.8218C17.8923 42.8218 18.3471 42.3671 18.3471 41.8062V40.7865C18.3471 39.4578 17.4944 38.3253 16.3077 37.9058V31.8569C16.9951 31.6917 17.6906 31.6042 18.3735 31.6042C21.6357 31.5987 21.4553 31.6188 21.6276 31.5838C22.0184 31.5053 22.3077 31.2184 22.406 30.8496C22.4195 30.799 23.1184 28.1687 23.1343 28.1087C24.9948 28.6908 27.0047 28.6908 28.8654 28.1086L29.5936 30.8493C29.712 31.2944 30.1147 31.6041 30.5752 31.6041H33.6262C34.3091 31.6041 35.0046 31.6916 35.692 31.8568V36.886C34.5053 37.3055 33.6526 38.4382 33.6526 39.7667C33.6526 41.4512 35.0231 42.8217 36.7076 42.8217C38.3921 42.8217 39.7626 41.4512 39.7626 39.7667C39.7626 38.4382 38.9099 37.3056 37.7232 36.886V32.5854C40.5269 33.9391 42.779 36.5775 42.779 39.7667V49.9688Z" fill="#075450"/>
<path d="M28.1602 22.5512C28.5568 22.1546 28.5568 21.5115 28.1602 21.1148C27.7635 20.7182 27.1206 20.7182 26.7238 21.1148C26.3238 21.515 25.6762 21.5152 25.2758 21.1149C24.8794 20.7184 24.2362 20.7182 23.8395 21.1148C23.4428 21.5114 23.4428 22.1544 23.8394 22.5511C25.0334 23.7453 26.966 23.7454 28.1602 22.5512Z" fill="#075450"/>
</svg>
