<svg width="44" height="44" viewBox="0 0 44 44" fill="none" xmlns="http://www.w3.org/2000/svg">
<path d="M29.2746 14.7762C29.2856 14.8767 29.298 14.9875 29.3115 15.1067C29.3742 15.6576 29.4633 16.3909 29.5683 17.1156C29.6726 17.8352 29.7954 18.5653 29.9274 19.1013C29.9912 19.3607 30.0671 19.617 30.1609 19.808C30.2024 19.8925 30.2824 20.0396 30.4231 20.1505C30.5017 20.2125 30.6248 20.2833 30.7881 20.298C30.9601 20.3135 31.1101 20.2608 31.2217 20.1864L31.2217 20.1864C32.2452 19.504 32.8042 18.3212 33.1184 16.9024C33.4342 15.4761 33.5262 13.7024 33.5262 11.6992C33.5263 7.63362 30.9308 5.17133 28.0445 3.70307C25.1678 2.23972 21.8914 1.69698 20.2367 1.47638C18.8027 1.28519 17.6889 1.46369 16.8267 1.89374C15.9627 2.32469 15.4079 2.9801 15.044 3.64246C14.684 4.2976 14.5049 4.97073 14.391 5.45526C14.3694 5.54732 14.3511 5.62783 14.3349 5.69924C14.3053 5.82987 14.2826 5.93004 14.2588 6.01466C14.258 6.01748 14.2572 6.02021 14.2565 6.02284C10.6949 8.94975 10.2714 12.4761 10.7529 15.2406C10.993 16.6195 11.4563 17.8098 11.8568 18.6528C12.0576 19.0754 12.244 19.4138 12.3816 19.6483C12.4504 19.7657 12.5071 19.8573 12.5474 19.9208C12.5675 19.9525 12.5836 19.9772 12.595 19.9946L12.6086 20.0151L12.6127 20.0212L12.614 20.0232L12.6145 20.0239C12.6147 20.0242 12.6149 20.0244 13.1111 19.6872L12.6149 20.0244L13.5435 21.3908L13.7081 19.7471L13.7081 19.747L13.7081 19.747L13.7082 19.7462L13.7086 19.742L13.7105 19.7239L13.7187 19.6501C13.726 19.5846 13.7374 19.4877 13.7532 19.3637C13.7849 19.1157 13.8341 18.7603 13.904 18.3339C14.0443 17.4791 14.2666 16.3486 14.5948 15.2303C14.9257 14.103 15.352 13.0316 15.8824 12.2669C16.3713 11.5621 16.873 11.2175 17.3971 11.1898C20.7488 13.388 23.8337 14.2772 26.102 14.6124C27.2521 14.7824 28.1914 14.8099 28.8484 14.794C29.0073 14.7901 29.1496 14.7838 29.2746 14.7762Z" fill="#A4E772" stroke="#075450" stroke-width="1.2"/>
<path d="M12.0637 32.6775L11.6835 32.911C10.8989 33.3926 10.3778 34.2569 10.3778 35.2424C10.3778 36.7519 11.6015 37.9757 13.1111 37.9757C14.6207 37.9757 15.8444 36.7519 15.8444 35.2424C15.8444 33.8542 14.8092 32.707 13.4689 32.5321L13.0755 32.4808L12.9687 32.0986C12.9293 31.9575 12.889 31.7977 12.8486 31.6213L12.8486 31.6213C12.7101 31.0163 12.5799 30.2582 12.4834 29.4846C12.3867 28.7104 12.3254 27.9329 12.3213 27.2878C12.3198 27.0504 12.3262 26.8374 12.3402 26.6528L12.3716 26.2365L12.7729 26.1214C13.2107 25.9957 13.6501 25.8824 14.089 25.7825L12.0637 32.6775ZM12.0637 32.6775L11.9496 32.2462M12.0637 32.6775L11.9496 32.2462M11.9496 32.2462C11.9162 32.12 11.8837 31.9872 11.8522 31.8496L11.8522 31.8495C11.7046 31.2045 11.5689 30.4116 11.4689 29.6112C11.3764 28.8695 11.3132 28.1097 11.301 27.4458L11.2852 26.583L10.4819 26.8983C8.08725 27.8383 5.84332 29.1353 4.18682 30.6504C2.54131 32.1555 1.4 33.9486 1.4 35.8756V41.9091V42.5091H2H42H42.6V41.9091V35.8756C42.6 34.0297 41.5521 32.3068 40.0214 30.845C38.482 29.3749 36.3873 28.1014 34.1245 27.1454L33.2641 26.7819L33.2913 27.7155L33.2921 27.7454L11.9496 32.2462ZM31.3123 31.5916L31.8993 31.7159C31.8993 31.716 31.8993 31.7161 31.8993 31.7161C31.8733 31.8388 31.847 31.9523 31.8208 32.056L31.7064 32.5091H31.2391H29.7778C29.5842 32.5091 29.4073 32.6184 29.3207 32.7916L28.784 32.5233L29.3207 32.7916L28.2095 35.0138L28.2094 35.0142C28.174 35.0848 28.1556 35.1629 28.1556 35.2424V37.4646C28.1556 37.7469 28.3844 37.9757 28.6667 37.9757H30.2889V36.9535H29.7778H29.1778V36.3535V35.5046V35.363L29.2411 35.2363L29.9278 33.863L30.0936 33.5313H30.4644H33.5356H33.9064L34.0722 33.863L34.7589 35.2363L34.8222 35.363V35.5046V36.3535V36.9535H34.2222H33.7111V37.9757H35.3333C35.6156 37.9757 35.8444 37.7469 35.8444 37.4646V35.2424C35.8444 35.1629 35.826 35.0848 35.7906 35.0142L35.7905 35.0138L34.6793 32.7916C34.5927 32.6184 34.4158 32.5091 34.2222 32.5091H33.5159H32.7837L32.9276 31.7911C33.0416 31.2225 33.1377 30.5513 33.2031 29.875L33.2031 29.8749C33.274 29.1432 33.3102 28.3922 33.2921 27.7461L29.911 25.7825C30.5223 25.9217 31.1352 26.0868 31.7432 26.2755L33.1434 26.7099L32.2317 27.18C32.2513 27.3549 32.2641 27.5544 32.2703 27.774M31.3123 31.5916C31.4234 31.0679 31.5221 30.4042 31.5886 29.7186C31.6549 29.0324 31.6863 28.3513 31.6706 27.7909M31.3123 31.5916C31.2878 31.7076 31.2632 31.8136 31.2391 31.9091L31.3123 31.5916ZM31.6706 27.7909L32.2703 27.774M31.6706 27.7909L32.2703 27.774C32.2703 27.774 32.2703 27.774 32.2703 27.774M31.6706 27.7909L32.2703 27.774M28.3881 27.491C28.6417 27.0092 29.2191 26.2403 29.7778 26.3675C30.1802 26.4591 30.5837 26.5624 30.9861 26.6765C31.0077 26.6049 31.05 26.5124 31.1334 26.4277C31.229 26.3307 31.358 26.2661 31.5012 26.2518C31.5997 26.2419 31.6828 26.258 31.7427 26.277C31.7616 26.283 31.7781 26.2893 31.7922 26.2952C31.8987 26.3397 31.9643 26.4041 31.9807 26.4201L31.981 26.4205C32.0234 26.4621 32.0502 26.5014 32.0556 26.5093L32.0561 26.5101C32.0656 26.524 32.0726 26.5354 32.0758 26.5408C32.0826 26.5522 32.0876 26.5613 32.0891 26.5641L32.0937 26.5729L31.5655 26.8485L31.5654 26.8485L31.5647 26.8509L31.5647 26.851L31.5637 26.8541L31.5632 26.8558C31.5703 26.8776 31.5932 26.9506 31.6158 27.0977L31.6839 27.0872L31.6882 27.0866L32.1367 27.0174L29.911 25.7825C29.3186 25.6476 28.83 26.0016 28.5526 26.2685C28.3546 26.4589 28.1826 26.6817 28.0461 26.891M28.3881 27.491V26.891H28.0461M28.3881 27.491H23.8723H28.3881ZM28.0461 26.891H23.8723H23.8722C22.8784 26.8912 22.3753 26.8911 21.8782 26.891L21.874 26.891C21.3666 26.8909 20.8635 26.8907 19.8488 26.891M28.0461 26.891H19.8488M19.8488 26.891C19.8487 26.891 19.8487 26.891 19.8486 26.891H15.7018C15.5972 26.6861 15.457 26.4311 15.2802 26.2261C15.0472 25.9558 14.6438 25.6562 14.0891 25.7825L19.8488 26.891ZM33.5159 31.9091C33.5541 31.7183 33.5903 31.5172 33.624 31.3091H33.5159V31.9091ZM33.5159 31.9091L34.1042 32.027C34.112 31.9881 34.1197 31.9488 34.1273 31.9091H33.5159ZM33.5356 34.1313H30.4644L29.7778 35.5046V35.7535V36.3535H30.2889L33.5356 34.1313ZM33.5356 34.1313L34.2222 35.5046L33.5356 34.1313ZM13.1111 36.9699C14.0382 36.9699 14.8222 36.2143 14.8222 35.2424C14.8222 34.2704 14.0382 33.515 13.1111 33.515C12.184 33.515 11.4 34.2704 11.4 35.2424C11.4 36.2143 12.184 36.9699 13.1111 36.9699Z" fill="#A4E772" stroke="#075450" stroke-width="1.2"/>
<mask id="mask0_1260_16874" style="mask-type:luminance" maskUnits="userSpaceOnUse" x="0" y="25" width="44" height="19">
<path d="M12.0637 32.6765L11.6835 32.91C10.8989 33.3916 10.3778 34.2559 10.3778 35.2414C10.3778 36.751 11.6015 37.9748 13.1111 37.9748C14.6207 37.9748 15.8444 36.751 15.8444 35.2414C15.8444 33.8533 14.8092 32.706 13.4689 32.5312L13.0755 32.4798L12.9687 32.0977C12.9293 31.9565 12.889 31.7967 12.8486 31.6203L12.8486 31.6203C12.7101 31.0153 12.5799 30.2573 12.4834 29.4836C12.3867 28.7095 12.3254 27.932 12.3213 27.2868C12.3198 27.0495 12.3262 26.8364 12.3402 26.6519L12.3716 26.2355L12.7729 26.1204C13.2107 25.9948 13.6501 25.8814 14.089 25.7815L12.0637 32.6765ZM12.0637 32.6765L11.9496 32.2452M12.0637 32.6765L11.9496 32.2452M11.9496 32.2452C11.9162 32.1191 11.8837 31.9862 11.8522 31.8486L11.8522 31.8486C11.7046 31.2035 11.5689 30.4107 11.4689 29.6103C11.3764 28.8685 11.3132 28.1087 11.301 27.4449L11.2852 26.582L10.4819 26.8974C8.08725 27.8373 5.84332 29.1343 4.18682 30.6494C2.54131 32.1545 1.4 33.9477 1.4 35.8747V41.9081V42.5081H2H42H42.6V41.9081V35.8747C42.6 34.0287 41.5521 32.3058 40.0214 30.844C38.482 29.3739 36.3873 28.1004 34.1245 27.1444L33.2641 26.7809L33.2913 27.7145L33.2921 27.7445L11.9496 32.2452ZM31.3123 31.5907L31.8993 31.7149C31.8993 31.715 31.8993 31.7151 31.8993 31.7152C31.8733 31.8378 31.847 31.9513 31.8208 32.0551L31.7064 32.5081H31.2391H29.7778C29.5842 32.5081 29.4073 32.6174 29.3207 32.7906L28.784 32.5223L29.3207 32.7906L28.2095 35.0129L28.2094 35.0132C28.174 35.0838 28.1556 35.1619 28.1556 35.2414V37.4637C28.1556 37.7459 28.3844 37.9748 28.6667 37.9748H30.2889V36.9525H29.7778H29.1778V36.3525V35.5037V35.362L29.2411 35.2353L29.9278 33.862L30.0936 33.5303H30.4644H33.5356H33.9064L34.0722 33.862L34.7589 35.2353L34.8222 35.362V35.5037V36.3525V36.9525H34.2222H33.7111V37.9748H35.3333C35.6156 37.9748 35.8444 37.7459 35.8444 37.4637V35.2414C35.8444 35.1619 35.826 35.0838 35.7906 35.0132L35.7905 35.0129L34.6793 32.7906C34.5927 32.6174 34.4158 32.5081 34.2222 32.5081H33.5159H32.7837L32.9276 31.7902C33.0416 31.2215 33.1377 30.5503 33.2031 29.874L33.2031 29.8739C33.274 29.1422 33.3102 28.3912 33.2921 27.7451L29.911 25.7815C30.5223 25.9207 31.1352 26.0858 31.7432 26.2745L33.1434 26.7089L32.2317 27.1791C32.2513 27.3539 32.2641 27.5534 32.2703 27.773M31.3123 31.5907C31.4234 31.0669 31.5221 30.4032 31.5886 29.7177C31.6549 29.0314 31.6863 28.3503 31.6706 27.7899M31.3123 31.5907C31.2878 31.7067 31.2632 31.8127 31.2391 31.9081L31.3123 31.5907ZM31.6706 27.7899L32.2703 27.773M31.6706 27.7899L32.2703 27.773C32.2703 27.773 32.2703 27.773 32.2703 27.773M31.6706 27.7899L32.2703 27.773M28.3881 27.49C28.6417 27.0082 29.2191 26.2393 29.7778 26.3665C30.1802 26.4582 30.5837 26.5614 30.9861 26.6755C31.0077 26.6039 31.05 26.5114 31.1334 26.4267C31.229 26.3297 31.358 26.2651 31.5012 26.2508C31.5997 26.2409 31.6828 26.257 31.7427 26.2761C31.7616 26.282 31.7781 26.2883 31.7922 26.2942C31.8987 26.3387 31.9643 26.4031 31.9807 26.4192L31.981 26.4195C32.0234 26.4611 32.0502 26.5004 32.0556 26.5084L32.0561 26.5091C32.0656 26.523 32.0726 26.5344 32.0758 26.5399C32.0826 26.5512 32.0876 26.5603 32.0891 26.5631L32.0937 26.5719L31.5655 26.8475L31.5654 26.8475L31.5647 26.85L31.5647 26.8501L31.5637 26.8532L31.5632 26.8549C31.5703 26.8766 31.5932 26.9496 31.6158 27.0968L31.6839 27.0863L31.6882 27.0856L32.1367 27.0165L29.911 25.7815C29.3186 25.6466 28.83 26.0006 28.5526 26.2675C28.3546 26.458 28.1826 26.6808 28.0461 26.89M28.3881 27.49V26.89H28.0461M28.3881 27.49H23.8723H28.3881ZM28.0461 26.89H23.8723H23.8722C22.8784 26.8902 22.3753 26.8901 21.8782 26.89L21.874 26.89C21.3666 26.8899 20.8635 26.8898 19.8488 26.89M28.0461 26.89H19.8488M19.8488 26.89C19.8487 26.89 19.8487 26.89 19.8486 26.89H15.7018C15.5972 26.6851 15.457 26.4301 15.2802 26.2251C15.0472 25.9548 14.6438 25.6552 14.0891 25.7815L19.8488 26.89ZM33.5159 31.9081C33.5541 31.7174 33.5903 31.5163 33.624 31.3081H33.5159V31.9081ZM33.5159 31.9081L34.1042 32.026C34.112 31.9871 34.1197 31.9478 34.1273 31.9081H33.5159ZM33.5356 34.1303H30.4644L29.7778 35.5037V35.7525V36.3525H30.2889L33.5356 34.1303ZM33.5356 34.1303L34.2222 35.5037L33.5356 34.1303ZM13.1111 36.9689C14.0382 36.9689 14.8222 36.2133 14.8222 35.2414C14.8222 34.2694 14.0382 33.514 13.1111 33.514C12.184 33.514 11.4 34.2694 11.4 35.2414C11.4 36.2133 12.184 36.9689 13.1111 36.9689Z" fill="white" stroke="#075450" stroke-width="1.2"/>
</mask>
<g mask="url(#mask0_1260_16874)">
<mask id="path-4-outside-1_1260_16874" maskUnits="userSpaceOnUse" x="-2.22168" y="22.127" width="48" height="24" fill="black">
<rect fill="white" x="-2.22168" y="22.127" width="48" height="24"/>
<path d="M11.3701 32.3984L12.5328 34.2922L13.9404 33.428L13.5185 31.8309L11.3701 32.3984ZM13.5471 31.936L11.4067 32.5333L11.8018 33.9494L13.2597 34.1395L13.5471 31.936ZM12.939 26.6969L12.3259 24.5609L10.8394 24.9875L10.723 26.5297L12.939 26.6969ZM15.3339 27.4898L13.3675 28.525L13.9924 29.712H15.3339V27.4898ZM28.3887 27.4898V29.712H29.7301L30.355 28.525L28.3887 27.4898ZM31.566 26.8473L32.5598 28.835L37.5043 26.3629L32.2244 24.7249L31.566 26.8473ZM31.5623 26.8492L29.5754 27.8447L30.5701 29.8298L32.556 28.8369L31.5623 26.8492ZM31.5624 26.8508L33.7274 26.35L33.7031 26.2447L33.6687 26.1422L31.5624 26.8508ZM31.5624 26.8508L29.3973 27.3517L29.422 27.4582L29.457 27.5619L31.5624 26.8508ZM31.5624 26.8508L33.6687 26.1422L33.6679 26.1398L31.5624 26.8508ZM31.2397 31.9079V34.1301H32.9704L33.3942 32.452L31.2397 31.9079ZM30.8894 38.5745V40.7968H33.1117V38.5745H30.8894ZM30.8894 36.3523H33.1117V34.1301H30.8894V36.3523ZM29.7783 36.3523H27.5561V38.5745H29.7783V36.3523ZM29.7783 35.5034L27.7907 34.5097L27.5561 34.9789V35.5034H29.7783ZM30.465 34.1301V31.9079H29.0917L28.4774 33.1362L30.465 34.1301ZM33.5361 34.1301L35.5237 33.1362L34.9094 31.9079H33.5361V34.1301ZM34.2228 35.5034H36.445V34.9789L36.2104 34.5097L34.2228 35.5034ZM34.2228 36.3523V38.5745H36.445V36.3523H34.2228ZM33.1117 36.3523V34.1301H30.8894V36.3523H33.1117ZM33.1117 38.5745H30.8894V40.7968H33.1117V38.5745ZM33.5164 31.9079L31.3377 31.4708L30.8042 34.1301H33.5164V31.9079ZM33.8924 27.7274L36.1138 27.6651V27.6622L33.8924 27.7274ZM33.8915 27.6969L34.7564 25.6499L31.5688 24.303L31.6703 27.7621L33.8915 27.6969ZM42.0005 41.9079V44.1301H44.2228V41.9079H42.0005ZM2.00054 41.9079H-0.22168V44.1301H2.00054V41.9079ZM10.7017 27.4557L12.9235 27.4151L12.8653 24.219L9.88965 25.3871L10.7017 27.4557ZM12.0005 35.2412C12.0005 34.8429 12.2087 34.4912 12.5328 34.2922L10.2073 30.5047C8.62165 31.4782 7.5561 33.2343 7.5561 35.2412H12.0005ZM13.1117 36.3523C12.498 36.3523 12.0005 35.8549 12.0005 35.2412H7.5561C7.5561 38.3094 10.0434 40.7968 13.1117 40.7968V36.3523ZM14.2228 35.2412C14.2228 35.8549 13.7253 36.3523 13.1117 36.3523V40.7968C16.1799 40.7968 18.6672 38.3094 18.6672 35.2412H14.2228ZM13.2597 34.1395C13.8024 34.2104 14.2228 34.6784 14.2228 35.2412H18.6672C18.6672 32.4171 16.5621 30.0883 13.8345 29.7324L13.2597 34.1395ZM15.6875 31.3388C15.6621 31.2475 15.6325 31.1313 15.6002 30.9903L11.2679 31.9822C11.3129 32.1788 11.3593 32.3635 11.4067 32.5333L15.6875 31.3388ZM15.6002 30.9903C15.487 30.4955 15.3717 29.8333 15.2844 29.134L10.8741 29.6843C10.976 30.5005 11.1149 31.3138 11.2679 31.9822L15.6002 30.9903ZM15.2844 29.134C15.1967 28.4304 15.1472 27.7694 15.1441 27.2689L10.6998 27.2968C10.7043 28.025 10.7724 28.8694 10.8741 29.6843L15.2844 29.134ZM15.1441 27.2689C15.143 27.0887 15.1481 26.9547 15.1549 26.8641L10.723 26.5297C10.705 26.7682 10.698 27.0268 10.6998 27.2968L15.1441 27.2689ZM13.7293 24.1995C13.2605 24.3063 12.792 24.4271 12.3259 24.5609L13.5521 28.8329C13.9409 28.7212 14.3297 28.6211 14.7162 28.5331L13.7293 24.1995ZM17.225 26.3063C17.1401 26.1371 16.8878 25.6045 16.5094 25.1657C16.0879 24.6767 15.1213 23.8827 13.7293 24.1995L14.7162 28.5331C14.3448 28.6177 13.9561 28.5699 13.6272 28.4187C13.3414 28.2873 13.1872 28.1187 13.1432 28.0675C13.0957 28.0125 13.0892 27.9912 13.1218 28.0481C13.1537 28.1037 13.1885 28.172 13.252 28.2984L17.225 26.3063ZM17.3002 26.4545C17.2814 26.4188 17.2599 26.376 17.225 26.3063L13.252 28.2984C13.2825 28.3594 13.3243 28.443 13.3675 28.525L17.3002 26.4545ZM19.8493 25.2675H15.3339V29.712H19.8493V25.2675ZM21.8795 25.2675C21.3705 25.2674 20.8673 25.2673 19.8493 25.2675V29.712C20.8664 29.7118 21.3695 29.7119 21.8782 29.712L21.8795 25.2675ZM23.8729 25.2675C22.8794 25.2678 22.3764 25.2677 21.8795 25.2675L21.8782 29.712C22.3754 29.7121 22.879 29.7122 23.8733 29.712L23.8729 25.2675ZM28.3887 25.2675H23.8729L23.8733 29.712H28.3887V25.2675ZM30.2718 24.1995C28.8328 23.8719 27.791 24.7494 27.4285 25.0982C26.9631 25.5459 26.6235 26.0721 26.4222 26.4545L30.355 28.525C30.3729 28.4911 30.4039 28.4389 30.4421 28.3853C30.4602 28.36 30.4767 28.3391 30.4901 28.3231C30.5039 28.3068 30.5109 28.3001 30.5097 28.3012C30.5091 28.3018 30.4931 28.3173 30.4602 28.341C30.4281 28.3641 30.3669 28.4045 30.2759 28.4457C30.0897 28.5298 29.7303 28.6344 29.2849 28.5331L30.2718 24.1995ZM32.2244 24.7249C31.5779 24.5243 30.9248 24.3483 30.2718 24.1995L29.2849 28.5331C29.8235 28.6558 30.3665 28.802 30.9075 28.9698L32.2244 24.7249ZM32.556 28.8369L32.5598 28.835L30.5722 24.8597L30.5685 24.8615L32.556 28.8369ZM33.6687 26.1422C33.6664 26.1357 33.671 26.1492 33.6755 26.1632C33.6775 26.1694 33.6855 26.194 33.6949 26.2258C33.6994 26.2417 33.7083 26.2728 33.7182 26.3123C33.7244 26.3374 33.7484 26.4337 33.7649 26.5593C33.7722 26.6158 33.7895 26.7597 33.7815 26.9442C33.7794 26.9911 33.7768 27.6545 33.2753 28.2621C32.9471 28.6598 32.4445 28.9808 31.8228 29.0543C31.2714 29.1197 30.8425 28.9645 30.6202 28.8607C30.2154 28.6714 29.9758 28.4058 29.932 28.3587C29.7857 28.2008 29.6957 28.0549 29.6852 28.0384C29.6553 27.9912 29.6335 27.953 29.6239 27.9358C29.6037 27.8997 29.5889 27.871 29.5857 27.8648C29.5804 27.8544 29.5764 27.8464 29.5754 27.8447L33.5491 25.8538C33.5479 25.8513 33.5435 25.8428 33.5381 25.832C33.5347 25.8253 33.5197 25.7962 33.4993 25.76C33.4895 25.7425 33.4678 25.7042 33.4378 25.657C33.4272 25.6403 33.3373 25.4944 33.1909 25.3365C33.1471 25.2894 32.9074 25.0238 32.5027 24.8345C32.2803 24.7305 31.8513 24.5754 31.3 24.6408C30.6783 24.7144 30.1758 25.0353 29.8475 25.4331C29.3461 26.0407 29.3433 26.7041 29.3413 26.751C29.3332 26.9355 29.3505 27.0795 29.358 27.136C29.3744 27.2617 29.3984 27.358 29.4047 27.3832C29.4145 27.4229 29.4234 27.4542 29.4281 27.4701C29.4375 27.5023 29.4457 27.5272 29.4479 27.5341C29.451 27.5439 29.4537 27.5517 29.4544 27.5541C29.455 27.5558 29.4554 27.5572 29.4557 27.5579C29.456 27.5587 29.4562 27.5593 29.4562 27.5594L33.6687 26.1422ZM33.8127 26.7582C33.7679 26.4672 33.712 26.2709 33.6687 26.1422L29.4562 27.5594C29.4562 27.5594 29.4532 27.5508 29.4498 27.5398C29.4463 27.529 29.4429 27.518 29.4395 27.5069C29.4329 27.4845 29.428 27.466 29.4244 27.4517C29.4174 27.4233 29.4172 27.4162 29.4201 27.435L33.8127 26.7582ZM33.8924 27.7274C33.883 27.3889 33.8589 27.0578 33.8127 26.7582L29.4201 27.435C29.4292 27.4941 29.4435 27.6293 29.4498 27.852L33.8924 27.7274ZM33.8009 29.9315C33.8734 29.1827 33.9114 28.4054 33.8924 27.7274L29.4498 27.852C29.4622 28.2948 29.4375 28.8797 29.3772 29.5034L33.8009 29.9315ZM33.4868 32.0517C33.6188 31.4297 33.7284 30.6812 33.8009 29.9315L29.3772 29.5034C29.317 30.1248 29.2293 30.7038 29.1391 31.1293L33.4868 32.0517ZM33.3942 32.452C33.4261 32.3258 33.457 32.192 33.4868 32.0517L29.1391 31.1293C29.1197 31.221 29.1014 31.2991 29.0851 31.3637L33.3942 32.452ZM29.7783 34.1301H31.2397V29.6857H29.7783V34.1301ZM30.7721 33.5159C30.5839 33.8923 30.1992 34.1301 29.7783 34.1301V29.6857C28.5158 29.6857 27.3615 30.399 26.7969 31.5282L30.7721 33.5159ZM29.661 35.7381L30.7721 33.5159L26.7969 31.5282L25.6858 33.7504L29.661 35.7381ZM29.7783 35.2412C29.7783 35.4137 29.7382 35.5838 29.661 35.7381L25.6858 33.7504C25.4543 34.2133 25.3339 34.7237 25.3339 35.2412H29.7783ZM29.7783 37.4634V35.2412H25.3339V37.4634H29.7783ZM28.6672 36.3523C29.2809 36.3523 29.7783 36.8498 29.7783 37.4634H25.3339C25.3339 39.3043 26.8262 40.7968 28.6672 40.7968V36.3523ZM30.8894 36.3523H28.6672V40.7968H30.8894V36.3523ZM28.6672 36.3523V38.5745H33.1117V36.3523H28.6672ZM29.7783 38.5745H30.8894V34.1301H29.7783V38.5745ZM27.5561 35.5034V36.3523H32.0005V35.5034H27.5561ZM28.4774 33.1362L27.7907 34.5097L31.766 36.4973L32.4527 35.1239L28.4774 33.1362ZM33.5361 31.9079H30.465V36.3523H33.5361V31.9079ZM36.2104 34.5097L35.5237 33.1362L31.5484 35.1239L32.2351 36.4973L36.2104 34.5097ZM36.445 36.3523V35.5034H32.0005V36.3523H36.445ZM33.1117 38.5745H34.2228V34.1301H33.1117V38.5745ZM35.3339 38.5745V36.3523H30.8894V38.5745H35.3339ZM35.3339 36.3523H33.1117V40.7968H35.3339V36.3523ZM34.2228 37.4634C34.2228 36.8498 34.7202 36.3523 35.3339 36.3523V40.7968C37.1749 40.7968 38.6672 39.3043 38.6672 37.4634H34.2228ZM34.2228 35.2412V37.4634H38.6672V35.2412H34.2228ZM34.3401 35.7381C34.2629 35.5838 34.2228 35.4137 34.2228 35.2412H38.6672C38.6672 34.7237 38.5468 34.2133 38.3153 33.7504L34.3401 35.7381ZM33.229 33.5159L34.3401 35.7381L38.3153 33.7504L37.2042 31.5282L33.229 33.5159ZM34.2228 34.1301C33.8019 34.1301 33.4172 33.8923 33.229 33.5159L37.2042 31.5282C36.6395 30.399 35.4853 29.6857 34.2228 29.6857V34.1301ZM33.5164 34.1301H34.2228V29.6857H33.5164V34.1301ZM31.5891 29.7174C31.5279 30.3494 31.439 30.9653 31.3377 31.4708L35.6952 32.3449C35.8313 31.6667 35.9399 30.8992 36.0128 30.1455L31.5891 29.7174ZM31.6711 27.7897C31.6869 28.3501 31.6554 29.0312 31.5891 29.7174L36.0128 30.1455C36.0913 29.3342 36.1361 28.4607 36.1138 27.6651L31.6711 27.7897ZM31.6703 27.7621L31.6712 27.7927L36.1138 27.6622L36.1129 27.6317L31.6703 27.7621ZM44.2228 35.8744C44.2228 33.3992 42.828 31.2804 41.1423 29.6705C39.4244 28.0301 37.1477 26.6601 34.7564 25.6499L33.0267 29.7439C35.0661 30.6055 36.8438 31.7111 38.0728 32.8848C39.3339 34.0891 39.7783 35.1231 39.7783 35.8744H44.2228ZM44.2228 41.9079V35.8744H39.7783V41.9079H44.2228ZM2.00054 44.1301H42.0005V39.6857H2.00054V44.1301ZM-0.22168 35.8744V41.9079H4.22276V35.8744H-0.22168ZM9.88965 25.3871C7.36099 26.3797 4.93142 27.7702 3.0925 29.4522C1.29425 31.097 -0.22168 33.2921 -0.22168 35.8744H4.22276C4.22276 35.0875 4.71235 33.9938 6.09214 32.7317C7.43121 31.5069 9.35232 30.3725 11.5137 29.5242L9.88965 25.3871ZM8.47988 27.4961C8.49421 28.2864 8.56799 29.1497 8.66899 29.9594L13.0793 29.4091C12.9915 28.7064 12.9343 28.0061 12.9235 27.4151L8.47988 27.4961ZM8.66899 29.9594C8.77821 30.8342 8.92877 31.7229 9.10165 32.4782L13.434 31.4862C13.3009 30.9047 13.1739 30.167 13.0793 29.4091L8.66899 29.9594ZM9.10165 32.4782C9.13921 32.6418 9.1791 32.8054 9.22154 32.9661L13.5185 31.8309C13.4904 31.7243 13.4622 31.6091 13.434 31.4862L9.10165 32.4782ZM12.0005 35.2412C12.0005 34.6427 12.4919 34.1464 13.1117 34.1464V38.5909C14.9279 38.5909 16.445 37.1158 16.445 35.2412H12.0005ZM13.1117 36.336C12.4919 36.336 12.0005 35.8397 12.0005 35.2412H16.445C16.445 33.3665 14.9279 31.8915 13.1117 31.8915V36.336ZM14.2228 35.2412C14.2228 35.8397 13.7314 36.336 13.1117 36.336V31.8915C11.2954 31.8915 9.77832 33.3665 9.77832 35.2412H14.2228ZM13.1117 34.1464C13.7314 34.1464 14.2228 34.6427 14.2228 35.2412H9.77832C9.77832 37.1158 11.2954 38.5909 13.1117 38.5909V34.1464Z"/>
</mask>
<path d="M11.3701 32.3984L12.5328 34.2922L13.9404 33.428L13.5185 31.8309L11.3701 32.3984ZM13.5471 31.936L11.4067 32.5333L11.8018 33.9494L13.2597 34.1395L13.5471 31.936ZM12.939 26.6969L12.3259 24.5609L10.8394 24.9875L10.723 26.5297L12.939 26.6969ZM15.3339 27.4898L13.3675 28.525L13.9924 29.712H15.3339V27.4898ZM28.3887 27.4898V29.712H29.7301L30.355 28.525L28.3887 27.4898ZM31.566 26.8473L32.5598 28.835L37.5043 26.3629L32.2244 24.7249L31.566 26.8473ZM31.5623 26.8492L29.5754 27.8447L30.5701 29.8298L32.556 28.8369L31.5623 26.8492ZM31.5624 26.8508L33.7274 26.35L33.7031 26.2447L33.6687 26.1422L31.5624 26.8508ZM31.5624 26.8508L29.3973 27.3517L29.422 27.4582L29.457 27.5619L31.5624 26.8508ZM31.5624 26.8508L33.6687 26.1422L33.6679 26.1398L31.5624 26.8508ZM31.2397 31.9079V34.1301H32.9704L33.3942 32.452L31.2397 31.9079ZM30.8894 38.5745V40.7968H33.1117V38.5745H30.8894ZM30.8894 36.3523H33.1117V34.1301H30.8894V36.3523ZM29.7783 36.3523H27.5561V38.5745H29.7783V36.3523ZM29.7783 35.5034L27.7907 34.5097L27.5561 34.9789V35.5034H29.7783ZM30.465 34.1301V31.9079H29.0917L28.4774 33.1362L30.465 34.1301ZM33.5361 34.1301L35.5237 33.1362L34.9094 31.9079H33.5361V34.1301ZM34.2228 35.5034H36.445V34.9789L36.2104 34.5097L34.2228 35.5034ZM34.2228 36.3523V38.5745H36.445V36.3523H34.2228ZM33.1117 36.3523V34.1301H30.8894V36.3523H33.1117ZM33.1117 38.5745H30.8894V40.7968H33.1117V38.5745ZM33.5164 31.9079L31.3377 31.4708L30.8042 34.1301H33.5164V31.9079ZM33.8924 27.7274L36.1138 27.6651V27.6622L33.8924 27.7274ZM33.8915 27.6969L34.7564 25.6499L31.5688 24.303L31.6703 27.7621L33.8915 27.6969ZM42.0005 41.9079V44.1301H44.2228V41.9079H42.0005ZM2.00054 41.9079H-0.22168V44.1301H2.00054V41.9079ZM10.7017 27.4557L12.9235 27.4151L12.8653 24.219L9.88965 25.3871L10.7017 27.4557ZM12.0005 35.2412C12.0005 34.8429 12.2087 34.4912 12.5328 34.2922L10.2073 30.5047C8.62165 31.4782 7.5561 33.2343 7.5561 35.2412H12.0005ZM13.1117 36.3523C12.498 36.3523 12.0005 35.8549 12.0005 35.2412H7.5561C7.5561 38.3094 10.0434 40.7968 13.1117 40.7968V36.3523ZM14.2228 35.2412C14.2228 35.8549 13.7253 36.3523 13.1117 36.3523V40.7968C16.1799 40.7968 18.6672 38.3094 18.6672 35.2412H14.2228ZM13.2597 34.1395C13.8024 34.2104 14.2228 34.6784 14.2228 35.2412H18.6672C18.6672 32.4171 16.5621 30.0883 13.8345 29.7324L13.2597 34.1395ZM15.6875 31.3388C15.6621 31.2475 15.6325 31.1313 15.6002 30.9903L11.2679 31.9822C11.3129 32.1788 11.3593 32.3635 11.4067 32.5333L15.6875 31.3388ZM15.6002 30.9903C15.487 30.4955 15.3717 29.8333 15.2844 29.134L10.8741 29.6843C10.976 30.5005 11.1149 31.3138 11.2679 31.9822L15.6002 30.9903ZM15.2844 29.134C15.1967 28.4304 15.1472 27.7694 15.1441 27.2689L10.6998 27.2968C10.7043 28.025 10.7724 28.8694 10.8741 29.6843L15.2844 29.134ZM15.1441 27.2689C15.143 27.0887 15.1481 26.9547 15.1549 26.8641L10.723 26.5297C10.705 26.7682 10.698 27.0268 10.6998 27.2968L15.1441 27.2689ZM13.7293 24.1995C13.2605 24.3063 12.792 24.4271 12.3259 24.5609L13.5521 28.8329C13.9409 28.7212 14.3297 28.6211 14.7162 28.5331L13.7293 24.1995ZM17.225 26.3063C17.1401 26.1371 16.8878 25.6045 16.5094 25.1657C16.0879 24.6767 15.1213 23.8827 13.7293 24.1995L14.7162 28.5331C14.3448 28.6177 13.9561 28.5699 13.6272 28.4187C13.3414 28.2873 13.1872 28.1187 13.1432 28.0675C13.0957 28.0125 13.0892 27.9912 13.1218 28.0481C13.1537 28.1037 13.1885 28.172 13.252 28.2984L17.225 26.3063ZM17.3002 26.4545C17.2814 26.4188 17.2599 26.376 17.225 26.3063L13.252 28.2984C13.2825 28.3594 13.3243 28.443 13.3675 28.525L17.3002 26.4545ZM19.8493 25.2675H15.3339V29.712H19.8493V25.2675ZM21.8795 25.2675C21.3705 25.2674 20.8673 25.2673 19.8493 25.2675V29.712C20.8664 29.7118 21.3695 29.7119 21.8782 29.712L21.8795 25.2675ZM23.8729 25.2675C22.8794 25.2678 22.3764 25.2677 21.8795 25.2675L21.8782 29.712C22.3754 29.7121 22.879 29.7122 23.8733 29.712L23.8729 25.2675ZM28.3887 25.2675H23.8729L23.8733 29.712H28.3887V25.2675ZM30.2718 24.1995C28.8328 23.8719 27.791 24.7494 27.4285 25.0982C26.9631 25.5459 26.6235 26.0721 26.4222 26.4545L30.355 28.525C30.3729 28.4911 30.4039 28.4389 30.4421 28.3853C30.4602 28.36 30.4767 28.3391 30.4901 28.3231C30.5039 28.3068 30.5109 28.3001 30.5097 28.3012C30.5091 28.3018 30.4931 28.3173 30.4602 28.341C30.4281 28.3641 30.3669 28.4045 30.2759 28.4457C30.0897 28.5298 29.7303 28.6344 29.2849 28.5331L30.2718 24.1995ZM32.2244 24.7249C31.5779 24.5243 30.9248 24.3483 30.2718 24.1995L29.2849 28.5331C29.8235 28.6558 30.3665 28.802 30.9075 28.9698L32.2244 24.7249ZM32.556 28.8369L32.5598 28.835L30.5722 24.8597L30.5685 24.8615L32.556 28.8369ZM33.6687 26.1422C33.6664 26.1357 33.671 26.1492 33.6755 26.1632C33.6775 26.1694 33.6855 26.194 33.6949 26.2258C33.6994 26.2417 33.7083 26.2728 33.7182 26.3123C33.7244 26.3374 33.7484 26.4337 33.7649 26.5593C33.7722 26.6158 33.7895 26.7597 33.7815 26.9442C33.7794 26.9911 33.7768 27.6545 33.2753 28.2621C32.9471 28.6598 32.4445 28.9808 31.8228 29.0543C31.2714 29.1197 30.8425 28.9645 30.6202 28.8607C30.2154 28.6714 29.9758 28.4058 29.932 28.3587C29.7857 28.2008 29.6957 28.0549 29.6852 28.0384C29.6553 27.9912 29.6335 27.953 29.6239 27.9358C29.6037 27.8997 29.5889 27.871 29.5857 27.8648C29.5804 27.8544 29.5764 27.8464 29.5754 27.8447L33.5491 25.8538C33.5479 25.8513 33.5435 25.8428 33.5381 25.832C33.5347 25.8253 33.5197 25.7962 33.4993 25.76C33.4895 25.7425 33.4678 25.7042 33.4378 25.657C33.4272 25.6403 33.3373 25.4944 33.1909 25.3365C33.1471 25.2894 32.9074 25.0238 32.5027 24.8345C32.2803 24.7305 31.8513 24.5754 31.3 24.6408C30.6783 24.7144 30.1758 25.0353 29.8475 25.4331C29.3461 26.0407 29.3433 26.7041 29.3413 26.751C29.3332 26.9355 29.3505 27.0795 29.358 27.136C29.3744 27.2617 29.3984 27.358 29.4047 27.3832C29.4145 27.4229 29.4234 27.4542 29.4281 27.4701C29.4375 27.5023 29.4457 27.5272 29.4479 27.5341C29.451 27.5439 29.4537 27.5517 29.4544 27.5541C29.455 27.5558 29.4554 27.5572 29.4557 27.5579C29.456 27.5587 29.4562 27.5593 29.4562 27.5594L33.6687 26.1422ZM33.8127 26.7582C33.7679 26.4672 33.712 26.2709 33.6687 26.1422L29.4562 27.5594C29.4562 27.5594 29.4532 27.5508 29.4498 27.5398C29.4463 27.529 29.4429 27.518 29.4395 27.5069C29.4329 27.4845 29.428 27.466 29.4244 27.4517C29.4174 27.4233 29.4172 27.4162 29.4201 27.435L33.8127 26.7582ZM33.8924 27.7274C33.883 27.3889 33.8589 27.0578 33.8127 26.7582L29.4201 27.435C29.4292 27.4941 29.4435 27.6293 29.4498 27.852L33.8924 27.7274ZM33.8009 29.9315C33.8734 29.1827 33.9114 28.4054 33.8924 27.7274L29.4498 27.852C29.4622 28.2948 29.4375 28.8797 29.3772 29.5034L33.8009 29.9315ZM33.4868 32.0517C33.6188 31.4297 33.7284 30.6812 33.8009 29.9315L29.3772 29.5034C29.317 30.1248 29.2293 30.7038 29.1391 31.1293L33.4868 32.0517ZM33.3942 32.452C33.4261 32.3258 33.457 32.192 33.4868 32.0517L29.1391 31.1293C29.1197 31.221 29.1014 31.2991 29.0851 31.3637L33.3942 32.452ZM29.7783 34.1301H31.2397V29.6857H29.7783V34.1301ZM30.7721 33.5159C30.5839 33.8923 30.1992 34.1301 29.7783 34.1301V29.6857C28.5158 29.6857 27.3615 30.399 26.7969 31.5282L30.7721 33.5159ZM29.661 35.7381L30.7721 33.5159L26.7969 31.5282L25.6858 33.7504L29.661 35.7381ZM29.7783 35.2412C29.7783 35.4137 29.7382 35.5838 29.661 35.7381L25.6858 33.7504C25.4543 34.2133 25.3339 34.7237 25.3339 35.2412H29.7783ZM29.7783 37.4634V35.2412H25.3339V37.4634H29.7783ZM28.6672 36.3523C29.2809 36.3523 29.7783 36.8498 29.7783 37.4634H25.3339C25.3339 39.3043 26.8262 40.7968 28.6672 40.7968V36.3523ZM30.8894 36.3523H28.6672V40.7968H30.8894V36.3523ZM28.6672 36.3523V38.5745H33.1117V36.3523H28.6672ZM29.7783 38.5745H30.8894V34.1301H29.7783V38.5745ZM27.5561 35.5034V36.3523H32.0005V35.5034H27.5561ZM28.4774 33.1362L27.7907 34.5097L31.766 36.4973L32.4527 35.1239L28.4774 33.1362ZM33.5361 31.9079H30.465V36.3523H33.5361V31.9079ZM36.2104 34.5097L35.5237 33.1362L31.5484 35.1239L32.2351 36.4973L36.2104 34.5097ZM36.445 36.3523V35.5034H32.0005V36.3523H36.445ZM33.1117 38.5745H34.2228V34.1301H33.1117V38.5745ZM35.3339 38.5745V36.3523H30.8894V38.5745H35.3339ZM35.3339 36.3523H33.1117V40.7968H35.3339V36.3523ZM34.2228 37.4634C34.2228 36.8498 34.7202 36.3523 35.3339 36.3523V40.7968C37.1749 40.7968 38.6672 39.3043 38.6672 37.4634H34.2228ZM34.2228 35.2412V37.4634H38.6672V35.2412H34.2228ZM34.3401 35.7381C34.2629 35.5838 34.2228 35.4137 34.2228 35.2412H38.6672C38.6672 34.7237 38.5468 34.2133 38.3153 33.7504L34.3401 35.7381ZM33.229 33.5159L34.3401 35.7381L38.3153 33.7504L37.2042 31.5282L33.229 33.5159ZM34.2228 34.1301C33.8019 34.1301 33.4172 33.8923 33.229 33.5159L37.2042 31.5282C36.6395 30.399 35.4853 29.6857 34.2228 29.6857V34.1301ZM33.5164 34.1301H34.2228V29.6857H33.5164V34.1301ZM31.5891 29.7174C31.5279 30.3494 31.439 30.9653 31.3377 31.4708L35.6952 32.3449C35.8313 31.6667 35.9399 30.8992 36.0128 30.1455L31.5891 29.7174ZM31.6711 27.7897C31.6869 28.3501 31.6554 29.0312 31.5891 29.7174L36.0128 30.1455C36.0913 29.3342 36.1361 28.4607 36.1138 27.6651L31.6711 27.7897ZM31.6703 27.7621L31.6712 27.7927L36.1138 27.6622L36.1129 27.6317L31.6703 27.7621ZM44.2228 35.8744C44.2228 33.3992 42.828 31.2804 41.1423 29.6705C39.4244 28.0301 37.1477 26.6601 34.7564 25.6499L33.0267 29.7439C35.0661 30.6055 36.8438 31.7111 38.0728 32.8848C39.3339 34.0891 39.7783 35.1231 39.7783 35.8744H44.2228ZM44.2228 41.9079V35.8744H39.7783V41.9079H44.2228ZM2.00054 44.1301H42.0005V39.6857H2.00054V44.1301ZM-0.22168 35.8744V41.9079H4.22276V35.8744H-0.22168ZM9.88965 25.3871C7.36099 26.3797 4.93142 27.7702 3.0925 29.4522C1.29425 31.097 -0.22168 33.2921 -0.22168 35.8744H4.22276C4.22276 35.0875 4.71235 33.9938 6.09214 32.7317C7.43121 31.5069 9.35232 30.3725 11.5137 29.5242L9.88965 25.3871ZM8.47988 27.4961C8.49421 28.2864 8.56799 29.1497 8.66899 29.9594L13.0793 29.4091C12.9915 28.7064 12.9343 28.0061 12.9235 27.4151L8.47988 27.4961ZM8.66899 29.9594C8.77821 30.8342 8.92877 31.7229 9.10165 32.4782L13.434 31.4862C13.3009 30.9047 13.1739 30.167 13.0793 29.4091L8.66899 29.9594ZM9.10165 32.4782C9.13921 32.6418 9.1791 32.8054 9.22154 32.9661L13.5185 31.8309C13.4904 31.7243 13.4622 31.6091 13.434 31.4862L9.10165 32.4782ZM12.0005 35.2412C12.0005 34.6427 12.4919 34.1464 13.1117 34.1464V38.5909C14.9279 38.5909 16.445 37.1158 16.445 35.2412H12.0005ZM13.1117 36.336C12.4919 36.336 12.0005 35.8397 12.0005 35.2412H16.445C16.445 33.3665 14.9279 31.8915 13.1117 31.8915V36.336ZM14.2228 35.2412C14.2228 35.8397 13.7314 36.336 13.1117 36.336V31.8915C11.2954 31.8915 9.77832 33.3665 9.77832 35.2412H14.2228ZM13.1117 34.1464C13.7314 34.1464 14.2228 34.6427 14.2228 35.2412H9.77832C9.77832 37.1158 11.2954 38.5909 13.1117 38.5909V34.1464Z" fill="#A4E772"/>
<path d="M13.434 31.4862L13.3001 30.9013L13.3001 30.9014L13.434 31.4862ZM15.6002 30.9903L15.7341 31.5752L15.4663 30.4055L15.6002 30.9903ZM13.0793 29.4091L13.005 28.8137L13.005 28.8137L13.0793 29.4091ZM15.2844 29.134L15.3587 29.7294L15.2102 28.5386L15.2844 29.134ZM10.6998 27.2968L10.696 26.6968L10.7035 27.8968L10.6998 27.2968ZM17.225 26.3063L17.4939 26.8427L16.9561 25.77L17.225 26.3063ZM21.8787 27.4898L21.2787 27.4895V27.4897L21.8787 27.4898ZM21.8782 29.712L21.2782 29.7119L22.4782 29.7122L21.8782 29.712ZM21.8795 25.2675L22.4795 25.2677L21.2795 25.2673L21.8795 25.2675ZM23.8729 25.2675L24.4729 25.2675L23.2729 25.2675H23.8729ZM33.6687 26.1422L33.86 26.7109L33.4773 25.5735L33.6687 26.1422ZM33.8127 26.7582L33.904 27.3512L33.7213 26.1652L33.8127 26.7582ZM29.4498 27.852L29.4329 27.2522L29.4666 28.4518L29.4498 27.852ZM31.5891 29.7174L31.6469 29.1202L31.6469 29.1202L31.5891 29.7174ZM29.3772 29.5034L29.435 28.9062L29.3194 30.1006L29.3772 29.5034ZM33.4868 32.0517L33.3623 32.6386L33.6113 31.4647L33.4868 32.0517ZM30.7721 33.5159L30.5038 34.0525L31.0404 32.9792L30.7721 33.5159ZM29.661 35.7381L29.3927 36.2748L29.9293 35.2015L29.661 35.7381ZM30.8894 38.5745V37.9745H30.2894V38.5745H30.8894ZM30.8894 40.7968H30.2894V41.3968H30.8894V40.7968ZM33.1117 40.7968V41.3968H33.7117V40.7968H33.1117ZM33.1117 38.5745H33.7117V37.9745H33.1117V38.5745ZM30.8894 36.3523H30.2894V36.9523H30.8894V36.3523ZM33.1117 36.3523V36.9523H33.7117V36.3523H33.1117ZM33.1117 34.1301H33.7117V33.5301H33.1117V34.1301ZM30.8894 34.1301V33.5301H30.2894V34.1301H30.8894ZM38.3153 33.7504L38.5837 34.2871L38.047 33.2138L38.3153 33.7504ZM37.2042 31.5282L37.4726 32.0649L36.9359 30.9916L37.2042 31.5282ZM33.8009 29.9315L33.7431 30.5288L33.7431 30.5288L33.8009 29.9315ZM36.0128 30.1455L35.955 30.7428L36.0706 29.5483L36.0128 30.1455ZM10.8741 29.6843L10.9484 30.2797L10.9484 30.2797L10.8741 29.6843ZM8.66899 29.9594L8.59469 29.3641L8.74327 30.5548L8.66899 29.9594ZM11.2679 31.9822L11.134 31.3973L11.134 31.3973L11.2679 31.9822ZM13.5679 32.0711L15.7341 31.5752L15.4663 30.4055L13.3001 30.9013L13.5679 32.0711ZM13.1536 30.0045L15.3587 29.7294L15.2102 28.5386L13.005 28.8137L13.1536 30.0045ZM12.9181 26.6828L10.696 26.6968L10.7035 27.8968L12.9257 27.8828L12.9181 26.6828ZM14.8078 26.2331L14.3143 24.0663L13.1443 24.3328L13.6377 26.4996L14.8078 26.2331ZM15.5074 27.8388L17.4939 26.8427L16.956 25.77L14.9695 26.7661L15.5074 27.8388ZM19.2493 27.4898V29.712H20.4493V27.4898H19.2493ZM21.2787 27.4897L21.2782 29.7119L22.4782 29.7121L22.4787 27.4899L21.2787 27.4897ZM22.4787 27.49L22.4795 25.2678L21.2795 25.2673L21.2787 27.4895L22.4787 27.49ZM24.4729 27.4898V25.2675H23.2729V27.4898H24.4729ZM30.3633 26.4996L30.8568 24.3328L29.6867 24.0663L29.1933 26.2331L30.3633 26.4996ZM33.4773 25.5735L31.3711 26.2821L31.7537 27.4195L33.86 26.7109L33.4773 25.5735ZM31.7077 27.6896L33.904 27.3512L33.7213 26.1652L31.525 26.5035L31.7077 27.6896ZM31.6543 27.1899L29.4329 27.2522L29.4666 28.4518L31.6879 28.3894L31.6543 27.1899ZM31.6469 29.1202L29.435 28.9062L29.3194 30.1006L31.5313 30.3146L31.6469 29.1202ZM31.1884 32.1774L33.3622 32.6386L33.6113 31.4647L31.4374 31.0035L31.1884 32.1774ZM28.5162 33.0588L30.5038 34.0525L31.0404 32.9792L29.0529 31.9854L28.5162 33.0588ZM27.4051 35.281L29.3927 36.2748L29.9293 35.2014L27.9418 34.2077L27.4051 35.281ZM30.2894 38.5745V40.7968H31.4894V38.5745H30.2894ZM30.8894 41.3968H33.1117V40.1968H30.8894V41.3968ZM33.7117 40.7968V38.5745H32.5117V40.7968H33.7117ZM33.1117 37.9745H30.8894V39.1745H33.1117V37.9745ZM30.8894 36.9523H33.1117V35.7523H30.8894V36.9523ZM33.7117 36.3523V34.1301H32.5117V36.3523H33.7117ZM33.1117 33.5301H30.8894V34.7301H33.1117V33.5301ZM30.2894 34.1301V36.3523H31.4894V34.1301H30.2894ZM36.596 35.281L38.5837 34.2871L38.047 33.2138L36.0593 34.2077L36.596 35.281ZM35.4849 33.0588L37.4726 32.0649L36.9359 30.9916L34.9482 31.9855L35.4849 33.0588ZM33.7431 30.5288L35.955 30.7428L36.0705 29.5483L33.8587 29.3343L33.7431 30.5288ZM10.7998 29.0889L8.59471 29.3641L8.74327 30.5548L10.9484 30.2797L10.7998 29.0889ZM11.134 31.3973L8.96774 31.8934L9.23557 33.0631L11.4018 32.5671L11.134 31.3973ZM7.5561 35.8412H12.0005V34.6412H7.5561V35.8412ZM13.7117 40.7968V36.3523H12.5117V40.7968H13.7117ZM18.6672 34.6412H14.2228V35.8412H18.6672V34.6412ZM15.4663 30.4055L11.134 31.3973L11.4018 32.5671L15.7341 31.5752L15.4663 30.4055ZM15.2101 28.5386L10.7998 29.0889L10.9484 30.2797L15.3587 29.7294L15.2101 28.5386ZM15.1403 26.6689L10.696 26.6968L10.7035 27.8968L15.1479 27.8689L15.1403 26.6689ZM15.3012 28.3999L14.3143 24.0663L13.1443 24.3328L14.1312 28.6663L15.3012 28.3999ZM13.5209 28.8348L17.4939 26.8427L16.9561 25.77L12.9831 27.7621L13.5209 28.8348ZM20.4493 29.712V25.2675H19.2493V29.712H20.4493ZM22.4782 29.7122L22.4795 25.2677L21.2795 25.2674L21.2782 29.7118L22.4782 29.7122ZM24.4733 29.7119L24.4729 25.2675L23.2729 25.2676L23.2733 29.7121L24.4733 29.7119ZM29.8699 28.6663L30.8568 24.3328L29.6867 24.0663L28.6999 28.3999L29.8699 28.6663ZM29.6475 28.1281L33.86 26.7109L33.4773 25.5735L29.2649 26.9908L29.6475 28.1281ZM33.5922 25.7654L29.2621 26.7671L29.5325 27.9362L33.8627 26.9346L33.5922 25.7654ZM33.4759 25.5713L29.265 26.9934L29.649 28.1303L33.8599 26.7082L33.4759 25.5713ZM29.5115 28.028L33.904 27.3512L33.7213 26.1652L29.3287 26.842L29.5115 28.028ZM29.4666 28.4518L33.9092 28.3272L33.8756 27.1277L29.433 27.2522L29.4666 28.4518ZM29.3194 30.1006L33.7431 30.5288L33.8587 29.3343L29.435 28.9062L29.3194 30.1006ZM29.0146 31.7163L33.3623 32.6386L33.6113 31.4647L29.2636 30.5424L29.0146 31.7163ZM29.1783 29.6857V34.1301H30.3783V29.6857H29.1783ZM26.5285 32.0649L30.5038 34.0525L31.0404 32.9792L27.0652 30.9916L26.5285 32.0649ZM25.4174 34.2871L29.3927 36.2748L29.9293 35.2015L25.9541 33.2138L25.4174 34.2871ZM25.3339 35.8412H29.7783V34.6412H25.3339V35.8412ZM25.3339 38.0634H29.7783V36.8634H25.3339V38.0634ZM29.2672 40.7968V36.3523H28.0672V40.7968H29.2672ZM32.6005 36.3523V35.5034H31.4005V36.3523H32.6005ZM35.9339 40.7968V36.3523H34.7339V40.7968H35.9339ZM38.6672 36.8634H34.2228V38.0634H38.6672V36.8634ZM38.6672 34.6412H34.2228V35.8412H38.6672V34.6412ZM38.047 33.2138L34.0718 35.2015L34.6084 36.2748L38.5837 34.2871L38.047 33.2138ZM36.9359 30.9916L32.9607 32.9792L33.4973 34.0525L37.4725 32.0649L36.9359 30.9916ZM33.6228 29.6857V34.1301H34.8228V29.6857H33.6228ZM36.0706 29.5483L31.6469 29.1202L31.5313 30.3146L35.955 30.7428L36.0706 29.5483ZM39.7783 36.4744H44.2228V35.2744H39.7783V36.4744ZM4.22276 35.2744H-0.22168V36.4744H4.22276V35.2744ZM8.74328 30.5548L13.1536 30.0045L13.005 28.8137L8.59469 29.3641L8.74328 30.5548ZM9.23557 33.0631L13.5679 32.0711L13.3001 30.9014L8.96773 31.8934L9.23557 33.0631ZM12.5117 34.1464V38.5909H13.7117V34.1464H12.5117ZM16.445 34.6412H12.0005V35.8412H16.445V34.6412ZM12.5117 31.8915V36.336H13.7117V31.8915H12.5117ZM9.77832 35.8412H14.2228V34.6412H9.77832V35.8412ZM11.3701 32.3984L11.0636 31.2382L9.50283 31.6506L10.3475 33.0263L11.3701 32.3984ZM13.9404 33.428L14.5683 34.4506L15.3285 33.9839L15.1006 33.1215L13.9404 33.428ZM13.5471 31.936L14.737 32.0912L14.9716 30.2926L13.2245 30.7802L13.5471 31.936ZM11.4067 32.5333L10.2507 32.8556L10.2508 32.8558L11.4067 32.5333ZM11.8018 33.9494L10.6459 34.2719L10.8593 35.0367L11.6466 35.1394L11.8018 33.9494ZM13.434 31.4862L12.2642 31.754L12.2644 31.7548L13.434 31.4862ZM15.6002 30.9903L14.4304 31.258L14.4306 31.2585L15.6002 30.9903ZM13.0793 29.4091L14.2701 29.2605L14.2701 29.2604L13.0793 29.4091ZM15.2844 29.134L16.4752 28.9855L16.4752 28.9854L15.2844 29.134ZM10.6998 27.2968L11.8997 27.2893L11.8997 27.2889L10.6998 27.2968ZM12.939 26.6969L12.8487 27.8935L14.5682 28.0232L14.0924 26.3658L12.939 26.6969ZM12.3259 24.5609L11.9948 23.4074L11.9948 23.4075L12.3259 24.5609ZM10.8394 24.9875L10.5084 23.8341L9.70571 24.0645L9.64284 24.8972L10.8394 24.9875ZM10.723 26.5297L9.52639 26.4393L9.52639 26.4394L10.723 26.5297ZM13.7293 24.1995L13.463 23.0295L13.4628 23.0295L13.7293 24.1995ZM17.225 26.3063L18.298 25.769L18.2976 25.7683L17.225 26.3063ZM15.3339 27.4898H16.5339V25.5019L14.7748 26.4279L15.3339 27.4898ZM13.9924 29.712L12.9306 30.271L13.268 30.912H13.9924V29.712ZM19.8493 29.712V30.912H19.8496L19.8493 29.712ZM21.8782 29.712L21.8785 28.512H21.8785L21.8782 29.712ZM21.8795 25.2675L21.8798 24.0675L21.8798 24.0675L21.8795 25.2675ZM23.8729 25.2675V24.0675L23.8726 24.0675L23.8729 25.2675ZM28.3887 27.4898L28.9477 26.4279L27.1887 25.5019V27.4898H28.3887ZM29.7301 29.712V30.912H30.4545L30.7919 30.271L29.7301 29.712ZM30.2718 24.1995L30.5383 23.0295L30.5382 23.0295L30.2718 24.1995ZM31.566 26.8473L30.4199 26.4918L30.2769 26.9525L30.4927 27.384L31.566 26.8473ZM37.5043 26.3629L38.041 27.4362L40.711 26.1013L37.8599 25.2168L37.5043 26.3629ZM32.2244 24.7249L32.58 23.5788L32.58 23.5788L32.2244 24.7249ZM31.5623 26.8492L32.6357 26.3126L32.0986 25.2383L31.0248 25.7763L31.5623 26.8492ZM29.5754 27.8447L29.0379 26.7718L27.965 27.3093L28.5026 28.3822L29.5754 27.8447ZM30.5701 29.8298L29.4972 30.3673L30.0343 31.4393L31.1067 30.9031L30.5701 29.8298ZM32.556 28.8369L33.0926 29.9102L33.0926 29.9102L32.556 28.8369ZM33.7274 26.35L33.9979 27.5191L35.1667 27.2488L34.8966 26.0799L33.7274 26.35ZM33.7031 26.2447L34.8723 25.9746L34.8592 25.9176L34.8405 25.8622L33.7031 26.2447ZM29.3973 27.3517L29.1269 26.1825L27.9576 26.453L28.2282 27.6223L29.3973 27.3517ZM29.422 27.4582L28.2529 27.7288L28.2662 27.7862L28.285 27.8421L29.422 27.4582ZM29.457 27.5619L28.32 27.9457L28.7039 29.0828L29.841 28.6988L29.457 27.5619ZM33.6679 26.1398L34.8111 25.7749L34.44 24.6124L33.2839 25.0028L33.6679 26.1398ZM33.8127 26.7582L32.6266 26.9407L32.6267 26.9412L33.8127 26.7582ZM31.6711 27.7897L31.6375 26.5901L30.4378 26.6238L30.4716 27.8234L31.6711 27.7897ZM29.4498 27.852L28.2502 27.8855L28.2502 27.8857L29.4498 27.852ZM31.5891 29.7174L32.7835 29.8331L32.7835 29.8329L31.5891 29.7174ZM29.3772 29.5034L30.5716 29.6192L30.5716 29.619L29.3772 29.5034ZM33.4868 32.0517L32.3129 31.8025L32.3129 31.8026L33.4868 32.0517ZM31.2397 31.9079L31.5335 30.7444L30.0397 30.3672V31.9079H31.2397ZM32.9704 34.1301V35.3301H33.9051L34.1339 34.4239L32.9704 34.1301ZM29.661 35.7381L28.5877 35.2014L30.7341 36.2751L29.661 35.7381ZM30.8894 40.7968V41.9968H32.0894V40.7968H30.8894ZM33.1117 40.7968H31.9117V41.9968H33.1117V40.7968ZM33.1117 34.1301V32.9301H31.9117V34.1301H33.1117ZM30.8894 34.1301H32.0894V32.9301H30.8894V34.1301ZM29.7783 36.3523H30.9783V35.1523H29.7783V36.3523ZM27.5561 38.5745H26.3561V39.7745H27.5561V38.5745ZM29.7783 35.5034V36.7034L30.315 34.4301L29.7783 35.5034ZM27.7907 34.5097L26.7174 33.973L26.7173 33.9731L27.7907 34.5097ZM27.5561 34.9789L26.4827 34.4423L26.3561 34.6957V34.9789H27.5561ZM30.465 34.1301L29.9283 35.2034L31.665 36.0718V34.1301H30.465ZM29.0917 31.9079V30.7079H28.35L28.0184 31.3712L29.0917 31.9079ZM28.4774 33.1362L27.4041 32.5995L27.4041 32.5995L28.4774 33.1362ZM33.5361 34.1301H32.3361V36.0718L34.0728 35.2034L33.5361 34.1301ZM35.5237 33.1362L36.597 32.5995L36.5969 32.5995L35.5237 33.1362ZM34.9094 31.9079L35.9827 31.3712L35.651 30.7079H34.9094V31.9079ZM34.2228 35.5034L33.6861 34.4301L34.2228 36.7034V35.5034ZM36.445 34.9789H37.645V34.6957L37.5184 34.4423L36.445 34.9789ZM36.2104 34.5097L37.2838 33.9731L37.2837 33.973L36.2104 34.5097ZM34.2228 36.3523V35.1523H33.0228V36.3523H34.2228ZM36.445 38.5745V39.7745H37.645V38.5745H36.445ZM37.2042 31.5282L38.2775 30.9916L38.2775 30.9915L37.2042 31.5282ZM33.5164 31.9079H34.7164V30.9247L33.7525 30.7313L33.5164 31.9079ZM30.8042 34.1301L29.6276 33.8941L29.3396 35.3301H30.8042V34.1301ZM33.8009 29.9315L32.6065 29.8158L32.6064 29.8161L33.8009 29.9315ZM36.0128 30.1455L34.8184 30.0299L34.8183 30.03L36.0128 30.1455ZM33.8924 27.7274L32.6929 27.7609L32.6929 27.7611L33.8924 27.7274ZM36.1138 27.6622H37.3138V27.6447L37.3133 27.6273L36.1138 27.6622ZM33.8915 27.6969L33.9268 28.8964L34.697 28.8737L34.9969 28.1639L33.8915 27.6969ZM31.5688 24.303L32.0358 23.1976L30.3144 22.4703L30.3693 24.3382L31.5688 24.303ZM42.0005 41.9079V40.7079H40.8005V41.9079H42.0005ZM44.2228 44.1301V45.3301H45.4228V44.1301H44.2228ZM2.00054 41.9079H3.20054V40.7079H2.00054V41.9079ZM-0.22168 44.1301H-1.42168V45.3301H-0.22168V44.1301ZM10.7017 27.4557L9.58463 27.8941L9.88946 28.6707L10.7236 28.6555L10.7017 27.4557ZM12.8653 24.219L14.0651 24.1971L14.0337 22.4712L12.4268 23.102L12.8653 24.219ZM10.8741 29.6843L9.68333 29.8329L9.68334 29.833L10.8741 29.6843ZM8.66899 29.9594L7.47821 30.108L7.47823 30.1081L8.66899 29.9594ZM11.2679 31.9822L10.0981 32.25L10.0981 32.25L11.2679 31.9822ZM9.10165 32.4782L7.9319 32.746L7.93209 32.7468L9.10165 32.4782ZM10.2073 30.5047L11.23 29.8768L10.6021 28.8542L9.57945 29.482L10.2073 30.5047ZM13.8345 29.7324L13.9898 28.5425L12.7999 28.3873L12.6446 29.5772L13.8345 29.7324ZM15.6875 31.3388L16.0101 32.4946L17.1658 32.1721L16.8434 31.0164L15.6875 31.3388ZM15.1441 27.2689L13.9441 27.2763V27.2763L15.1441 27.2689ZM15.1549 26.8641L16.3515 26.9537L16.441 25.7577L15.2452 25.6675L15.1549 26.8641ZM13.5521 28.8329L12.3987 29.164L12.7298 30.3176L13.8834 29.9862L13.5521 28.8329ZM14.7162 28.5331L14.9826 29.7032L14.4499 27.363L14.7162 28.5331ZM16.5094 25.1657L17.4183 24.3822L17.4183 24.3821L16.5094 25.1657ZM13.6272 28.4187L14.1285 27.3284L14.1283 27.3283L13.6272 28.4187ZM13.1432 28.0675L14.0526 27.2846L14.0509 27.2827L13.1432 28.0675ZM13.1218 28.0481L12.0802 28.6441L12.081 28.6455L13.1218 28.0481ZM13.252 28.2984L14.3249 27.761L14.3245 27.7603L13.252 28.2984ZM17.3002 26.4545L17.8592 27.5164L18.9197 26.9581L18.3628 25.8969L17.3002 26.4545ZM19.8493 25.2675V26.4675H19.8496L19.8493 25.2675ZM15.3339 25.2675V24.0675H14.1339V25.2675H15.3339ZM23.8733 29.712V28.512H23.8731L23.8733 29.712ZM28.3887 25.2675H29.5887V24.0675H28.3887V25.2675ZM27.4285 25.0982L28.2604 25.9631L28.2606 25.9629L27.4285 25.0982ZM26.4222 26.4545L25.3604 25.8955L24.8014 26.9574L25.8632 27.5164L26.4222 26.4545ZM30.4421 28.3853L29.4659 27.6874L29.4653 27.6882L30.4421 28.3853ZM30.4901 28.3231L29.5729 27.5494L29.5714 27.5511L30.4901 28.3231ZM30.5097 28.3012L29.7024 27.4133L29.6813 27.4325L29.6611 27.4527L30.5097 28.3012ZM30.4602 28.341L29.7593 27.367L29.7592 27.367L30.4602 28.341ZM30.2759 28.4457L30.7698 29.5393L30.7699 29.5392L30.2759 28.4457ZM29.2849 28.5331L29.5511 27.363L29.0184 29.7031L29.2849 28.5331ZM30.9075 28.9698L30.5521 30.1159L31.6981 30.4713L32.0537 29.3253L30.9075 28.9698ZM30.5722 24.8597L31.6455 24.323L31.1024 23.2368L30.0228 23.7928L30.5722 24.8597ZM30.5685 24.8615L30.0191 23.7947L28.965 24.3376L29.4952 25.3982L30.5685 24.8615ZM33.6755 26.1632L34.818 25.796L34.8167 25.7919L33.6755 26.1632ZM33.6949 26.2258L34.8484 25.895L34.8462 25.8876L33.6949 26.2258ZM33.7182 26.3123L34.883 26.0237L34.8824 26.0213L33.7182 26.3123ZM33.7649 26.5593L34.9549 26.4047L34.9547 26.4036L33.7649 26.5593ZM33.7815 26.9442L34.9803 26.9982L34.9804 26.9962L33.7815 26.9442ZM33.2753 28.2621L34.2008 29.026L34.2008 29.026L33.2753 28.2621ZM31.8228 29.0543L31.6818 27.8626L31.6816 27.8627L31.8228 29.0543ZM30.6202 28.8607L30.112 29.9477L30.1122 29.9478L30.6202 28.8607ZM29.932 28.3587L29.0519 29.1744L29.0529 29.1755L29.932 28.3587ZM29.6852 28.0384L28.6712 28.6802L28.6723 28.6818L29.6852 28.0384ZM29.6239 27.9358L28.5769 28.5221L28.5774 28.5231L29.6239 27.9358ZM29.5857 27.8648L28.5146 28.4061L28.5201 28.4166L29.5857 27.8648ZM33.5491 25.8538L34.0866 26.9266L35.1586 26.3896L34.6224 25.3171L33.5491 25.8538ZM33.5381 25.832L34.6092 25.2909L34.6042 25.2812L33.5381 25.832ZM33.4993 25.76L32.4525 26.3467L32.4529 26.3474L33.4993 25.76ZM33.4378 25.657L32.424 26.2991L32.4249 26.3005L33.4378 25.657ZM33.1909 25.3365L34.0707 24.5205L34.0699 24.5197L33.1909 25.3365ZM32.5027 24.8345L31.9942 25.9215L31.9945 25.9216L32.5027 24.8345ZM31.3 24.6408L31.4412 25.8324L31.4412 25.8324L31.3 24.6408ZM29.8475 25.4331L30.773 26.197L30.7731 26.1968L29.8475 25.4331ZM29.3413 26.751L30.5402 26.8037L30.5402 26.8021L29.3413 26.751ZM29.358 27.136L30.5478 26.9803L30.5477 26.9791L29.358 27.136ZM29.4047 27.3832L28.2396 27.6706L28.2403 27.6735L29.4047 27.3832ZM29.4281 27.4701L30.5797 27.1326L30.5795 27.1319L29.4281 27.4701ZM29.4479 27.5341L30.5914 27.1703L30.5899 27.1657L29.4479 27.5341ZM29.4544 27.5541L28.3109 27.9179L28.3134 27.9258L28.316 27.9336L29.4544 27.5541ZM29.4557 27.5579L28.3172 27.9374L28.333 27.9847L28.3527 28.0306L29.4557 27.5579ZM29.4562 27.5594L28.3223 27.9521L30.6562 27.5594H29.4562ZM29.4498 27.5398L30.595 27.1812L30.5928 27.1745L29.4498 27.5398ZM29.4395 27.5069L28.2897 27.8501L28.2902 27.8517L29.4395 27.5069ZM29.4244 27.4517L28.2595 27.7395L28.2597 27.7406L29.4244 27.4517ZM29.4201 27.435L28.2341 27.6175L28.2341 27.6178L29.4201 27.435ZM29.1391 31.1293L30.313 31.3783L30.313 31.3782L29.1391 31.1293ZM29.0851 31.3637L27.9218 31.0693L27.6273 32.2332L28.7912 32.5271L29.0851 31.3637ZM29.7783 34.1301V32.9301H28.5783V34.1301H29.7783ZM31.2397 29.6857H32.4397V28.4857H31.2397V29.6857ZM26.7969 31.5282L25.7236 30.9915L25.7236 30.9916L26.7969 31.5282ZM28.6672 36.3523V35.1523H27.4672V36.3523H28.6672ZM28.6672 38.5745H27.4672V39.7745H28.6672V38.5745ZM31.766 36.4973L31.2293 37.5706L32.3027 38.1073L32.8393 37.0339L31.766 36.4973ZM32.4527 35.1239L33.526 35.6605L34.0626 34.5872L32.9893 34.0506L32.4527 35.1239ZM30.465 36.3523H29.265V37.5523H30.465V36.3523ZM33.5361 36.3523V37.5523H34.7361V36.3523H33.5361ZM31.5484 35.1239L31.0118 34.0506L29.9385 34.5872L30.4751 35.6605L31.5484 35.1239ZM32.2351 36.4973L31.1618 37.0339L31.6984 38.1073L32.7718 37.5706L32.2351 36.4973ZM34.2228 34.1301H35.4228V32.9301H34.2228V34.1301ZM35.3339 38.5745V39.7745H36.5339V38.5745H35.3339ZM35.3339 36.3523H36.5339V35.1523H35.3339V36.3523ZM34.3401 35.7381L33.2669 36.2751L35.4134 35.2014L34.3401 35.7381ZM33.5164 29.6857V28.4857H32.3164V29.6857H33.5164ZM35.6952 32.3449L35.4592 33.5214L36.6357 33.7574L36.8717 32.581L35.6952 32.3449ZM31.6712 27.7927L30.4717 27.8276L30.5067 29.0274L31.7064 28.9921L31.6712 27.7927ZM36.1129 27.6317L37.3124 27.5967L37.2774 26.3969L36.0777 26.4322L36.1129 27.6317ZM41.1423 29.6705L41.9711 28.8027L41.9711 28.8027L41.1423 29.6705ZM33.0267 29.7439L31.9213 29.2768L31.4542 30.3822L32.5596 30.8493L33.0267 29.7439ZM38.0728 32.8848L38.9015 32.0169V32.0169L38.0728 32.8848ZM39.7783 41.9079H38.5783V43.1079H39.7783V41.9079ZM42.0005 39.6857H43.2005V38.4857H42.0005V39.6857ZM2.00054 39.6857V38.4857H0.800543V39.6857H2.00054ZM4.22276 41.9079V43.1079H5.42276V41.9079H4.22276ZM3.0925 29.4522L3.9024 30.3377L3.9024 30.3377L3.0925 29.4522ZM6.09214 32.7317L5.28224 31.8462L5.28221 31.8462L6.09214 32.7317ZM11.5137 29.5242L11.9521 30.6413L13.0692 30.2028L12.6307 29.0857L11.5137 29.5242ZM8.47988 27.4961L8.45801 26.2963L7.25832 26.3182L7.28007 27.5179L8.47988 27.4961ZM9.22154 32.9661L8.06135 33.2726L8.36785 34.4328L9.52806 34.1263L9.22154 32.9661ZM10.3475 33.0263L11.5101 34.9201L13.5554 33.6644L12.3927 31.7706L10.3475 33.0263ZM13.1606 35.3149L14.5683 34.4506L13.3126 32.4053L11.9049 33.2696L13.1606 35.3149ZM15.1006 33.1215L14.6787 31.5244L12.3583 32.1374L12.7802 33.7345L15.1006 33.1215ZM13.2121 30.6707L11.0636 31.2382L11.6766 33.5586L13.825 32.9911L13.2121 30.6707ZM13.2245 30.7802L11.0841 31.3775L11.7292 33.6892L13.8697 33.0918L13.2245 30.7802ZM10.2508 32.8558L10.6459 34.2719L12.9576 33.6269L12.5625 32.2108L10.2508 32.8558ZM11.6466 35.1394L13.1045 35.3295L13.4148 32.9496L11.9569 32.7595L11.6466 35.1394ZM14.4496 34.2948L14.737 32.0912L12.3572 31.7808L12.0697 33.9843L14.4496 34.2948ZM14.0924 26.3658L13.4793 24.2298L11.1725 24.892L11.7856 27.028L14.0924 26.3658ZM11.9948 23.4075L10.5084 23.8341L11.1705 26.141L12.657 25.7143L11.9948 23.4075ZM9.64284 24.8972L9.52639 26.4393L11.9196 26.62L12.036 25.0779L9.64284 24.8972ZM10.6327 27.7263L12.8487 27.8935L13.0293 25.5003L10.8133 25.3331L10.6327 27.7263ZM14.7748 26.4279L12.8085 27.4632L13.9266 29.5868L15.8929 28.5516L14.7748 26.4279ZM12.3057 29.084L12.9306 30.271L15.0543 29.153L14.4294 27.966L12.3057 29.084ZM13.9924 30.912H15.3339V28.512H13.9924V30.912ZM16.5339 29.712V27.4898H14.1339V29.712H16.5339ZM27.1887 27.4898V29.712H29.5887V27.4898H27.1887ZM28.3887 30.912H29.7301V28.512H28.3887V30.912ZM30.7919 30.271L31.4168 29.084L29.2931 27.966L28.6683 29.153L30.7919 30.271ZM30.914 27.4632L28.9477 26.4279L27.8296 28.5516L29.796 29.5868L30.914 27.4632ZM30.4927 27.384L31.4864 29.3716L33.6331 28.2984L32.6393 26.3107L30.4927 27.384ZM33.0964 29.9083L38.041 27.4362L36.9677 25.2896L32.0231 27.7617L33.0964 29.9083ZM37.8599 25.2168L32.58 23.5788L31.8689 25.871L37.1488 27.509L37.8599 25.2168ZM31.0783 24.3693L30.4199 26.4918L32.7121 27.2029L33.3705 25.0804L31.0783 24.3693ZM31.0248 25.7763L29.0379 26.7718L30.113 28.9175L32.0998 27.9221L31.0248 25.7763ZM28.5026 28.3822L29.4972 30.3673L31.643 29.2922L30.6483 27.3071L28.5026 28.3822ZM31.1067 30.9031L33.0926 29.9102L32.0194 27.7636L30.0335 28.7564L31.1067 30.9031ZM33.6293 28.3003L32.6357 26.3126L30.489 27.3858L31.4826 29.3735L33.6293 28.3003ZM31.8329 28.0199L33.9979 27.5191L33.457 25.1809L31.292 25.6816L31.8329 28.0199ZM34.8966 26.0799L34.8723 25.9746L32.5339 26.5148L32.5582 26.6201L34.8966 26.0799ZM34.8405 25.8622L34.8061 25.7598L32.5312 26.5246L32.5657 26.6271L34.8405 25.8622ZM31.292 25.6816L29.1269 26.1825L29.6678 28.5208L31.8329 28.0199L31.292 25.6816ZM28.2282 27.6223L28.2529 27.7288L30.5911 27.1876L30.5664 27.081L28.2282 27.6223ZM28.285 27.8421L28.32 27.9457L30.5939 27.178L30.5589 27.0744L28.285 27.8421ZM29.841 28.6988L31.9464 27.9877L31.1784 25.7139L29.073 26.425L29.841 28.6988ZM34.8118 25.7773L34.8111 25.7749L32.5247 26.5046L32.5255 26.5071L34.8118 25.7773ZM33.2839 25.0028L31.1785 25.7138L31.9464 27.9877L34.0518 27.2767L33.2839 25.0028ZM30.0397 31.9079V34.1301H32.4397V31.9079H30.0397ZM31.2397 35.3301H32.9704V32.9301H31.2397V35.3301ZM34.1339 34.4239L34.5577 32.7458L32.2307 32.1582L31.807 33.8363L34.1339 34.4239ZM33.688 31.2885L31.5335 30.7444L30.9458 33.0714L33.1004 33.6155L33.688 31.2885ZM29.7783 35.1523H27.5561V37.5523H29.7783V35.1523ZM26.3561 36.3523V38.5745H28.7561V36.3523H26.3561ZM27.5561 39.7745H29.7783V37.3745H27.5561V39.7745ZM30.9783 38.5745V36.3523H28.5783V38.5745H30.9783ZM30.315 34.4301L28.3273 33.4363L27.254 35.583L29.2417 36.5768L30.315 34.4301ZM26.7173 33.9731L26.4827 34.4423L28.6295 35.5154L28.864 35.0462L26.7173 33.9731ZM26.3561 34.9789V35.5034H28.7561V34.9789H26.3561ZM27.5561 36.7034H29.7783V34.3034H27.5561V36.7034ZM31.665 34.1301V31.9079H29.265V34.1301H31.665ZM30.465 30.7079H29.0917V33.1079H30.465V30.7079ZM28.0184 31.3712L27.4041 32.5995L29.5507 33.6729L30.1649 32.4446L28.0184 31.3712ZM27.9407 34.2095L29.9283 35.2034L31.0017 33.0568L29.0141 32.0629L27.9407 34.2095ZM34.0728 35.2034L36.0604 34.2095L34.9869 32.0629L32.9994 33.0568L34.0728 35.2034ZM36.5969 32.5995L35.9827 31.3712L33.8361 32.4446L34.4504 33.6729L36.5969 32.5995ZM34.9094 30.7079H33.5361V33.1079H34.9094V30.7079ZM32.3361 31.9079V34.1301H34.7361V31.9079H32.3361ZM34.2228 36.7034H36.445V34.3034H34.2228V36.7034ZM37.645 35.5034V34.9789H35.245V35.5034H37.645ZM37.5184 34.4423L37.2838 33.9731L35.1371 35.0462L35.3716 35.5154L37.5184 34.4423ZM35.6738 33.4363L33.6861 34.4301L34.7594 36.5768L36.7471 35.583L35.6738 33.4363ZM33.0228 36.3523V38.5745H35.4228V36.3523H33.0228ZM34.2228 39.7745H36.445V37.3745H34.2228V39.7745ZM37.645 38.5745V36.3523H35.245V38.5745H37.645ZM36.445 35.1523H34.2228V37.5523H36.445V35.1523ZM33.7525 30.7313L31.5737 30.2942L31.1016 32.6473L33.2804 33.0844L33.7525 30.7313ZM30.1611 31.2348L29.6276 33.8941L31.9808 34.3661L32.5142 31.7068L30.1611 31.2348ZM30.8042 35.3301H33.5164V32.9301H30.8042V35.3301ZM34.7164 34.1301V31.9079H32.3164V34.1301H34.7164ZM33.9261 28.927L36.1474 28.8646L36.0801 26.4656L33.8588 26.5279L33.9261 28.927ZM37.3138 27.6651V27.6622H34.9138V27.6651H37.3138ZM36.0785 26.4627L33.8572 26.528L33.9277 28.9269L36.149 28.8617L36.0785 26.4627ZM34.9969 28.1639L35.8618 26.1169L33.6511 25.1828L32.7862 27.2298L34.9969 28.1639ZM35.2235 24.5445L32.0358 23.1976L31.1017 25.4084L34.2894 26.7553L35.2235 24.5445ZM30.3693 24.3382L30.4708 27.7973L32.8698 27.7269L32.7682 24.2678L30.3693 24.3382ZM31.7055 28.9616L33.9268 28.8964L33.8563 26.4974L31.6351 26.5626L31.7055 28.9616ZM40.8005 41.9079V44.1301H43.2005V41.9079H40.8005ZM42.0005 45.3301H44.2228V42.9301H42.0005V45.3301ZM45.4228 44.1301V41.9079H43.0228V44.1301H45.4228ZM44.2228 40.7079H42.0005V43.1079H44.2228V40.7079ZM2.00054 40.7079H-0.22168V43.1079H2.00054V40.7079ZM-1.42168 41.9079V44.1301H0.97832V41.9079H-1.42168ZM-0.22168 45.3301H2.00054V42.9301H-0.22168V45.3301ZM3.20054 44.1301V41.9079H0.800543V44.1301H3.20054ZM10.7236 28.6555L12.9454 28.6149L12.9016 26.2153L10.6798 26.2559L10.7236 28.6555ZM14.1233 27.3932L14.0651 24.1971L11.6655 24.2408L11.7237 27.437L14.1233 27.3932ZM12.4268 23.102L9.45116 24.2701L10.3281 26.5041L13.3038 25.336L12.4268 23.102ZM8.77263 25.8256L9.58463 27.8941L11.8187 27.0172L11.0067 24.9486L8.77263 25.8256ZM13.2005 35.2412C13.2005 35.2536 13.1968 35.2702 13.188 35.2856C13.1799 35.2998 13.1697 35.3093 13.1606 35.3148L11.9049 33.2696C11.2369 33.6797 10.8005 34.4123 10.8005 35.2412H13.2005ZM13.5554 33.6643L11.23 29.8768L9.18469 31.1325L11.5101 34.9201L13.5554 33.6643ZM9.57945 29.482C7.6538 30.6643 6.3561 32.7993 6.3561 35.2412H8.7561C8.7561 33.6694 9.58951 32.2921 10.8352 31.5273L9.57945 29.482ZM13.1117 35.1523C13.1607 35.1523 13.2005 35.1921 13.2005 35.2412H10.8005C10.8005 36.5176 11.8352 37.5523 13.1117 37.5523V35.1523ZM6.3561 35.2412C6.3561 38.9722 9.38069 41.9968 13.1117 41.9968V39.5968C10.7062 39.5968 8.7561 37.6467 8.7561 35.2412H6.3561ZM13.0228 35.2412C13.0228 35.1921 13.0626 35.1523 13.1117 35.1523V37.5523C14.3881 37.5523 15.4228 36.5176 15.4228 35.2412H13.0228ZM13.1117 41.9968C16.8426 41.9968 19.8672 38.9722 19.8672 35.2412H17.4672C17.4672 37.6467 15.5171 39.5968 13.1117 39.5968V41.9968ZM13.1042 35.3294C13.0759 35.3257 13.0557 35.3121 13.0445 35.2994C13.0322 35.2855 13.0228 35.2638 13.0228 35.2412H15.4228C15.4228 34.0716 14.5513 33.098 13.4151 32.9497L13.1042 35.3294ZM19.8672 35.2412C19.8672 31.8058 17.3064 28.9753 13.9898 28.5425L13.6793 30.9224C15.8178 31.2014 17.4672 33.0284 17.4672 35.2412H19.8672ZM12.6446 29.5772L12.0697 33.9843L14.4496 34.2948L15.0245 29.8877L12.6446 29.5772ZM16.8434 31.0164C16.8239 30.9464 16.7989 30.8487 16.7699 30.7221L14.4306 31.2585C14.4662 31.414 14.5003 31.5487 14.5317 31.6612L16.8434 31.0164ZM10.0981 32.25C10.1466 32.4617 10.1976 32.665 10.2507 32.8556L12.5626 32.2111C12.5211 32.0621 12.4791 31.8958 12.4376 31.7144L10.0981 32.25ZM11.7292 33.6892L16.0101 32.4946L15.365 30.1829L11.0841 31.3775L11.7292 33.6892ZM16.77 30.7226C16.6674 30.2746 16.5585 29.6531 16.4752 28.9855L14.0937 29.2825C14.1848 30.0136 14.3065 30.7165 14.4304 31.258L16.77 30.7226ZM9.68334 29.833C9.78918 30.6808 9.93442 31.5347 10.0981 32.25L12.4376 31.7145C12.2953 31.0928 12.1628 30.3203 12.0649 29.5357L9.68334 29.833ZM16.4752 28.9854C16.3912 28.3118 16.3468 27.7004 16.3441 27.2614L13.9441 27.2763C13.9476 27.8385 14.0022 28.5491 14.0937 29.2826L16.4752 28.9854ZM9.49979 27.3043C9.50473 28.0939 9.5779 28.9879 9.68333 29.8329L12.0649 29.5358C11.967 28.751 11.9039 27.9561 11.8997 27.2893L9.49979 27.3043ZM16.3441 27.2615C16.3431 27.1055 16.3477 27.0048 16.3515 26.9537L13.9582 26.7745C13.9485 26.9046 13.9429 27.0718 13.9441 27.2763L16.3441 27.2615ZM15.2452 25.6675L10.8133 25.3331L10.6327 27.7263L15.0646 28.0607L15.2452 25.6675ZM9.52639 26.4394C9.50537 26.718 9.49785 27.0102 9.49979 27.3047L11.8997 27.2889C11.8981 27.0433 11.9046 26.8185 11.9196 26.6199L9.52639 26.4394ZM13.4628 23.0295C12.9719 23.1413 12.4818 23.2677 11.9948 23.4074L12.6569 25.7143C13.1022 25.5865 13.5492 25.4713 13.9958 25.3696L13.4628 23.0295ZM11.1725 24.892L12.3987 29.164L14.7055 28.5018L13.4793 24.2298L11.1725 24.892ZM13.8834 29.9862C14.2511 29.8806 14.6182 29.7861 14.9826 29.7032L14.4498 27.363C14.0411 27.4561 13.6307 27.5618 13.2208 27.6795L13.8834 29.9862ZM18.2976 25.7683C18.2264 25.6263 17.9109 24.9536 17.4183 24.3822L15.6005 25.9492C15.8646 26.2555 16.0538 26.6479 16.1524 26.8444L18.2976 25.7683ZM17.4183 24.3821C16.8694 23.7453 15.4863 22.5689 13.463 23.0295L13.9957 25.3696C14.7563 25.1964 15.3064 25.608 15.6005 25.9492L17.4183 24.3821ZM14.4499 27.363C14.3455 27.3868 14.2262 27.3733 14.1285 27.3284L13.1259 29.5089C13.686 29.7664 14.344 29.8485 14.9826 29.7032L14.4499 27.363ZM14.1283 27.3283C14.0886 27.31 14.0638 27.2919 14.0523 27.2826C14.0465 27.2778 14.044 27.2753 14.0447 27.276C14.0459 27.2772 14.0489 27.2803 14.0526 27.2846L12.2338 28.8504C12.346 28.9808 12.632 29.282 13.1261 29.509L14.1283 27.3283ZM14.0509 27.2827C14.059 27.292 14.0729 27.3092 14.0929 27.3384C14.0946 27.3409 14.1 27.3487 14.1068 27.3592C14.1071 27.3596 14.1146 27.3711 14.1236 27.3857C14.1261 27.3897 14.1322 27.3998 14.1398 27.4128C14.1437 27.4196 14.1533 27.4368 14.1589 27.4471C14.1682 27.4647 14.1943 27.5186 14.2102 27.5553C14.2509 27.6697 14.131 28.6311 13.4577 29.1604C12.8884 29.1954 12.2982 28.9059 12.2337 28.8433C12.2109 28.8188 12.1776 28.7802 12.1665 28.7667C12.1599 28.7583 12.1488 28.7441 12.1444 28.7383C12.1304 28.7198 12.1198 28.7046 12.119 28.7034C12.1156 28.6986 12.1129 28.6947 12.1115 28.6926C12.1085 28.6883 12.1062 28.6848 12.1049 28.6829C12.0967 28.6706 12.091 28.6616 12.0887 28.658C12.0824 28.6479 12.0796 28.643 12.0802 28.6441L14.1633 27.4521C14.1477 27.4248 14.1335 27.4012 14.1207 27.3809C14.1152 27.372 14.1075 27.36 14.0985 27.3466C14.0971 27.3446 14.0947 27.341 14.0917 27.3365C14.0902 27.3344 14.0875 27.3305 14.0841 27.3257C14.0833 27.3245 14.0727 27.3092 14.0587 27.2907C14.0542 27.2849 14.0432 27.2707 14.0365 27.2623C14.0255 27.2488 13.9921 27.2102 13.9693 27.1857C13.9049 27.1231 13.3147 26.8336 12.7453 26.8686C12.072 27.3979 11.9521 28.3593 11.9929 28.4737C12.0088 28.5105 12.0349 28.5643 12.0441 28.5819C12.0498 28.5922 12.0594 28.6094 12.0633 28.6162C12.0708 28.6292 12.077 28.6393 12.0795 28.6433C12.0885 28.658 12.0961 28.6696 12.0964 28.67C12.1035 28.6809 12.1094 28.6895 12.112 28.6933C12.1389 28.7328 12.1798 28.7881 12.2355 28.8524L14.0509 27.2827ZM12.081 28.6455C12.093 28.6663 12.1124 28.703 12.1794 28.8366L14.3245 27.7603C14.2647 27.641 14.2143 27.541 14.1625 27.4507L12.081 28.6455ZM18.3628 25.8969C18.3502 25.8729 18.3338 25.8405 18.298 25.769L16.152 26.8437C16.186 26.9115 16.2127 26.9646 16.2377 27.0122L18.3628 25.8969ZM12.1791 28.8359C12.2086 28.8949 12.256 28.9897 12.306 29.0845L14.4291 27.9654C14.3927 27.8963 14.3564 27.824 14.3249 27.761L12.1791 28.8359ZM13.9266 29.5868L17.8592 27.5164L16.7412 25.3927L12.8085 27.4632L13.9266 29.5868ZM19.8493 24.0675H15.3339V26.4675H19.8493V24.0675ZM14.1339 25.2675V29.712H16.5339V25.2675H14.1339ZM15.3339 30.912H19.8493V28.512H15.3339V30.912ZM21.8798 24.0675C21.3707 24.0674 20.8673 24.0673 19.8491 24.0675L19.8496 26.4675C20.8673 26.4673 21.3704 26.4674 21.8793 26.4675L21.8798 24.0675ZM19.8496 30.912C20.8665 30.9118 21.3694 30.9119 21.8779 30.912L21.8785 28.512C21.3697 28.5119 20.8664 28.5118 19.8491 28.512L19.8496 30.912ZM23.8726 24.0675C22.8794 24.0678 22.3766 24.0677 21.8798 24.0675L21.8793 26.4675C22.3763 26.4677 22.8795 26.4678 23.8731 26.4675L23.8726 24.0675ZM21.8779 30.912C22.3753 30.9121 22.879 30.9122 23.8736 30.912L23.8731 28.512C22.879 28.5122 22.3756 28.5121 21.8785 28.512L21.8779 30.912ZM28.3887 24.0675H23.8729V26.4675H28.3887V24.0675ZM23.8733 30.912H28.3887V28.512H23.8733V30.912ZM29.5887 29.712V25.2675H27.1887V29.712H29.5887ZM30.5382 23.0295C28.4673 22.5579 27.0144 23.8314 26.5965 24.2335L28.2606 25.9629C28.5676 25.6675 29.1982 25.1858 30.0053 25.3696L30.5382 23.0295ZM26.5967 24.2333C26.0127 24.795 25.602 25.4365 25.3604 25.8955L27.4841 27.0135C27.6451 26.7077 27.9135 26.2968 28.2604 25.9631L26.5967 24.2333ZM25.8632 27.5164L29.796 29.5868L30.914 27.4632L26.9812 25.3927L25.8632 27.5164ZM31.4162 29.0852C31.4135 29.0903 31.412 29.093 31.4118 29.0933C31.4115 29.0937 31.4119 29.0931 31.4128 29.0916C31.415 29.0881 31.4173 29.0846 31.4189 29.0824L29.4653 27.6882C29.395 27.7868 29.336 27.8849 29.2938 27.9648L31.4162 29.0852ZM31.4183 29.0832C31.4182 29.0833 31.4175 29.0843 31.4162 29.086C31.4148 29.0878 31.4124 29.0908 31.4088 29.0951L29.5714 27.5511C29.5376 27.5913 29.502 27.6369 29.4659 27.6874L31.4183 29.0832ZM31.4073 29.0968C31.4014 29.1039 31.3938 29.1126 31.3843 29.1227C31.3794 29.128 31.3751 29.1325 31.3721 29.1357C31.3639 29.1442 31.3766 29.131 31.3845 29.1226C31.3868 29.1202 31.3912 29.1155 31.3966 29.1096C31.4003 29.1054 31.4126 29.092 31.4276 29.0741C31.4346 29.0658 31.4504 29.0469 31.4692 29.0218C31.4703 29.0205 31.5405 28.9313 31.5991 28.8045C31.6169 28.7641 31.6542 28.6622 31.6719 28.6003C31.6926 28.5032 31.7085 28.2449 31.6904 28.086C31.6223 27.8513 31.3229 27.4186 31.0918 27.2517C30.8859 27.1616 30.5243 27.1012 30.3815 27.108C30.1501 27.1329 29.985 27.2217 29.965 27.2319C29.9106 27.2596 29.8701 27.2856 29.8514 27.2978C29.8119 27.3238 29.7827 27.3464 29.773 27.354C29.7595 27.3644 29.749 27.3731 29.743 27.3781C29.731 27.388 29.7218 27.396 29.7181 27.3993C29.71 27.4064 29.7038 27.4121 29.7024 27.4133L31.3169 29.1891C31.3156 29.1903 31.3094 29.1959 31.3014 29.203C31.2977 29.2062 31.2885 29.2142 31.2766 29.2242C31.2706 29.2291 31.26 29.2378 31.2466 29.2482C31.2368 29.2558 31.2077 29.2784 31.1682 29.3044C31.1495 29.3166 31.1089 29.3426 31.0546 29.3703C31.0346 29.3805 30.8695 29.4693 30.6381 29.4942C30.4953 29.501 30.1336 29.4406 29.9278 29.3505C29.6967 29.1836 29.3973 28.7509 29.3292 28.5161C29.3111 28.3573 29.3269 28.099 29.3477 28.0019C29.3654 27.94 29.4027 27.8381 29.4205 27.7977C29.4791 27.6709 29.5493 27.5817 29.5503 27.5804C29.5692 27.5553 29.585 27.5364 29.5919 27.5281C29.607 27.5103 29.6192 27.4968 29.623 27.4927C29.6283 27.4868 29.6327 27.4821 29.635 27.4797C29.6426 27.4715 29.655 27.4589 29.646 27.4681C29.6416 27.4726 29.6349 27.4796 29.6267 27.4885C29.6106 27.5058 29.5926 27.526 29.5729 27.5494L31.4073 29.0968ZM29.6611 27.4527C29.6689 27.4449 29.6751 27.4389 29.6762 27.4379C29.6791 27.4351 29.6817 27.4326 29.6842 27.4303C29.6891 27.4256 29.6937 27.4214 29.698 27.4174C29.7068 27.4094 29.7148 27.4024 29.7222 27.3961C29.7371 27.3836 29.7495 27.3741 29.7593 27.367L31.1611 29.315C31.243 29.2561 31.3089 29.199 31.3582 29.1497L29.6611 27.4527ZM29.7592 27.367C29.7681 27.3606 29.775 27.3562 29.7796 27.3535C29.784 27.3509 29.7847 27.3508 29.7818 27.3521L30.7699 29.5392C30.9472 29.4592 31.0775 29.3752 31.1612 29.315L29.7592 27.367ZM29.7819 27.352C29.782 27.352 29.78 27.3529 29.7761 27.3544C29.7722 27.3558 29.7669 27.3577 29.7602 27.3597C29.7467 27.3637 29.7292 27.3679 29.7086 27.3709C29.6687 27.3766 29.616 27.3778 29.5511 27.363L29.0187 29.7032C29.7825 29.877 30.4123 29.7008 30.7698 29.5393L29.7819 27.352ZM32.58 23.5788C31.9049 23.3693 31.2221 23.1853 30.5383 23.0295L30.0052 25.3696C30.6274 25.5113 31.2509 25.6793 31.8689 25.871L32.58 23.5788ZM29.0184 29.7031C29.5262 29.8188 30.0395 29.957 30.5521 30.1159L31.263 27.8236C30.6936 27.647 30.1209 27.4928 29.5513 27.3631L29.0184 29.7031ZM32.0537 29.3253L33.3705 25.0804L31.0783 24.3693L29.7614 28.6142L32.0537 29.3253ZM33.0926 29.9102L33.0964 29.9083L32.0231 27.7617L32.0193 27.7636L33.0926 29.9102ZM33.6331 28.2984L31.6455 24.323L29.4989 25.3963L31.4864 29.3716L33.6331 28.2984ZM30.0228 23.7928L30.0191 23.7947L31.118 25.9284L31.1217 25.9265L30.0228 23.7928ZM29.4952 25.3982L31.4827 29.3735L33.6293 28.3003L31.6419 24.3249L29.4952 25.3982ZM34.8051 25.757C34.8049 25.7564 34.8046 25.7555 34.8043 25.7546C34.8042 25.7542 34.8034 25.7518 34.8024 25.7488C34.8023 25.7488 34.8001 25.7424 34.7973 25.7346C34.7965 25.7323 34.7948 25.7276 34.7926 25.7216C34.7918 25.7196 34.7852 25.7017 34.776 25.6795C34.7752 25.6775 34.7569 25.6326 34.7287 25.5792C34.706 25.5382 34.6087 25.3954 34.5253 25.3007C33.9828 24.9825 32.7732 25.341 32.482 25.9583C32.469 26.094 32.4761 26.2791 32.4827 26.3276C32.4869 26.3522 32.4946 26.3913 32.4978 26.4059C32.5037 26.4318 32.5091 26.4518 32.5108 26.4578C32.515 26.4732 32.5186 26.4851 32.5195 26.488C32.5209 26.4928 32.5221 26.4967 32.5228 26.4988C32.5241 26.503 32.5252 26.5063 32.5256 26.5077C32.5266 26.5107 32.5274 26.513 32.5276 26.5137C32.5285 26.5165 32.5294 26.5193 32.5295 26.5194C32.5297 26.52 32.5302 26.5216 32.5304 26.5222C32.5317 26.5261 32.5332 26.5306 32.5344 26.5345L34.8167 25.7919C34.8134 25.7818 34.8103 25.7725 34.8087 25.7678C34.8072 25.7631 34.808 25.7655 34.8087 25.7678C34.8089 25.7684 34.8096 25.7706 34.8106 25.7735C34.811 25.7748 34.812 25.7781 34.8134 25.7823C34.814 25.7844 34.8152 25.7882 34.8167 25.7931C34.8175 25.796 34.8212 25.8079 34.8254 25.8232C34.827 25.8292 34.8325 25.8492 34.8384 25.8751C34.8416 25.8897 34.8493 25.9289 34.8534 25.9534C34.8601 26.002 34.8672 26.187 34.8542 26.3227C34.5629 26.94 33.3533 27.2985 32.8109 26.9803C32.7275 26.8857 32.6302 26.7428 32.6075 26.7019C32.5792 26.6485 32.561 26.6035 32.5602 26.6015C32.5509 26.5793 32.5443 26.5615 32.5436 26.5594C32.5414 26.5535 32.5397 26.5488 32.5388 26.5465C32.5371 26.5417 32.5358 26.5379 32.5353 26.5366C32.5347 26.5348 32.5342 26.5333 32.5339 26.5325C32.5326 26.5287 32.5315 26.5255 32.5322 26.5275L34.8051 25.757ZM32.5331 26.5304C32.5349 26.5361 32.5357 26.5384 32.5375 26.5441C32.5392 26.5497 32.5414 26.5566 32.5435 26.5639L34.8462 25.8876C34.8391 25.8632 34.8325 25.8419 34.8274 25.8257C34.8249 25.8175 34.8226 25.8105 34.8209 25.805C34.8198 25.8016 34.8171 25.7934 34.818 25.796L32.5331 26.5304ZM32.5414 26.5565C32.5448 26.5684 32.5492 26.5839 32.554 26.6034L34.8824 26.0213C34.8675 25.9616 34.8541 25.9149 34.8484 25.895L32.5414 26.5565ZM32.5534 26.6009C32.5561 26.6118 32.5674 26.6565 32.575 26.715L34.9547 26.4036C34.9295 26.2108 34.8927 26.0631 34.883 26.0237L32.5534 26.6009ZM32.5749 26.7139C32.5783 26.74 32.5864 26.8066 32.5827 26.8922L34.9804 26.9962C34.9927 26.7127 34.9662 26.4916 34.9549 26.4047L32.5749 26.7139ZM32.5828 26.8902C32.582 26.9063 32.5829 27.2159 32.3498 27.4983L34.2008 29.026C34.5887 28.556 34.7815 28.0669 34.878 27.6914C34.9264 27.5029 34.9517 27.3385 34.9653 27.2122C34.9787 27.0864 34.981 26.9835 34.9803 26.9982L32.5828 26.8902ZM32.3498 27.4982C32.1977 27.6826 31.9661 27.829 31.6818 27.8626L31.9637 30.246C32.923 30.1325 33.6965 29.637 34.2008 29.026L32.3498 27.4982ZM31.6816 27.8627C31.4289 27.8926 31.2319 27.8219 31.1282 27.7735L30.1122 29.9478C30.4532 30.1072 31.114 30.3467 31.964 30.246L31.6816 27.8627ZM31.1284 27.7736C30.9399 27.6855 30.8287 27.5608 30.811 27.5418L29.0529 29.1755C29.0529 29.1755 29.053 29.1756 29.0531 29.1757C29.0533 29.1759 29.0535 29.1761 29.0538 29.1764C29.0544 29.1771 29.055 29.1778 29.0561 29.1789C29.058 29.181 29.0606 29.1839 29.0637 29.1872C29.07 29.1939 29.078 29.2025 29.0875 29.2124C29.1064 29.2324 29.1301 29.2568 29.1582 29.2845C29.2143 29.3399 29.287 29.4075 29.3758 29.481C29.5519 29.6266 29.7983 29.8011 30.112 29.9477L31.1284 27.7736ZM30.8121 27.543C30.7795 27.5078 30.7511 27.4715 30.7303 27.4427C30.7204 27.4289 30.7131 27.4182 30.7088 27.4118C30.7044 27.405 30.7051 27.406 30.6982 27.3951L28.6723 28.6818C28.6705 28.6791 28.6865 28.7045 28.7063 28.7346C28.7265 28.7651 28.7528 28.8038 28.785 28.8483C28.8483 28.936 28.9381 29.0516 29.0519 29.1744L30.8121 27.543ZM30.6992 27.3967C30.6844 27.3733 30.6738 27.3547 30.6703 27.3484L28.5774 28.5231C28.5933 28.5513 28.6262 28.6091 28.6712 28.6802L30.6992 27.3967ZM30.6709 27.3494C30.6606 27.331 30.6531 27.3165 30.6512 27.3129L28.5201 28.4166C28.5247 28.4255 28.5467 28.4683 28.5769 28.5221L30.6709 27.3494ZM30.6567 27.3235C30.6556 27.3215 30.6546 27.3195 30.6535 27.3172C30.6525 27.3152 30.6511 27.3124 30.6498 27.3099C30.6486 27.3076 30.6464 27.3032 30.6439 27.2984C30.6427 27.2961 30.6406 27.2919 30.6379 27.2868C30.6366 27.2843 30.6346 27.2806 30.6322 27.2761C30.6301 27.2721 30.6262 27.265 30.6213 27.2563L28.5295 28.433C28.5248 28.4245 28.5211 28.4177 28.5191 28.414C28.5169 28.4099 28.5151 28.4066 28.514 28.4044C28.5118 28.4002 28.5101 28.397 28.5095 28.3958C28.5082 28.3933 28.5075 28.3919 28.5082 28.3932C28.5086 28.3941 28.5093 28.3953 28.5105 28.3978C28.5116 28.4 28.5131 28.4029 28.5147 28.406L30.6567 27.3235ZM30.113 28.9175L34.0866 26.9266L33.0116 24.7809L29.0379 26.7718L30.113 28.9175ZM34.6224 25.3171C34.621 25.3143 34.6196 25.3115 34.619 25.3103C34.6181 25.3086 34.6171 25.3066 34.6162 25.3047C34.6141 25.3006 34.6118 25.2962 34.6092 25.2909L32.467 26.3731C32.4698 26.3786 32.4724 26.3838 32.4742 26.3873C32.4752 26.3892 32.4758 26.3905 32.4763 26.3914C32.4765 26.3919 32.4766 26.392 32.4766 26.392C32.4766 26.392 32.4765 26.3919 32.4764 26.3917C32.4763 26.3915 32.4761 26.391 32.4758 26.3904L34.6224 25.3171ZM34.6042 25.2812C34.599 25.271 34.5764 25.2272 34.5457 25.1726L32.4529 26.3474C32.4629 26.3652 32.4703 26.3796 32.472 26.3828L34.6042 25.2812ZM34.5461 25.1733C34.5304 25.1453 34.4968 25.0862 34.4506 25.0135L32.4249 26.3005C32.4387 26.3222 32.4487 26.3398 32.4525 26.3467L34.5461 25.1733ZM34.4515 25.0149C34.4527 25.0167 34.437 24.9917 34.4169 24.9612C34.3967 24.9306 34.3703 24.8918 34.3381 24.8472C34.2746 24.7592 34.1847 24.6434 34.0707 24.5205L32.3111 26.1526C32.3435 26.1876 32.3717 26.2236 32.3924 26.2523C32.4023 26.266 32.4095 26.2767 32.4137 26.283C32.418 26.2895 32.4176 26.289 32.424 26.2991L34.4515 25.0149ZM34.0699 24.5197C34.0699 24.5197 34.0699 24.5196 34.0697 24.5195C34.0696 24.5193 34.0694 24.5191 34.0691 24.5188C34.0684 24.5181 34.0679 24.5175 34.0668 24.5163C34.0649 24.5143 34.0622 24.5114 34.0591 24.508C34.0528 24.5013 34.0448 24.4927 34.0354 24.4828C34.0164 24.4628 33.9928 24.4384 33.9647 24.4107C33.9086 24.3553 33.8359 24.2877 33.7471 24.2142C33.571 24.0686 33.3246 23.8941 33.0108 23.7475L31.9945 25.9216C32.183 26.0097 32.2942 26.1344 32.3118 26.1534L34.0699 24.5197ZM33.0111 23.7476C32.6697 23.5879 32.0087 23.3484 31.1588 23.4491L31.4412 25.8324C31.694 25.8025 31.891 25.8732 31.9942 25.9215L33.0111 23.7476ZM31.1588 23.4491C30.1999 23.5627 29.4264 24.058 28.922 24.6694L30.7731 26.1968C30.9251 26.0126 31.1568 25.8661 31.4412 25.8324L31.1588 23.4491ZM28.9221 24.6693C28.5342 25.1392 28.3414 25.6282 28.2449 26.0037C28.1964 26.1923 28.1711 26.3566 28.1576 26.4831C28.144 26.6099 28.142 26.7107 28.1424 26.6999L30.5402 26.8021C30.5408 26.7899 30.5399 26.4794 30.773 26.197L28.9221 24.6693ZM28.1425 26.6983C28.13 26.982 28.1565 27.2036 28.1683 27.2929L30.5477 26.9791C30.5446 26.9555 30.5364 26.8891 30.5402 26.8037L28.1425 26.6983ZM28.1681 27.2917C28.1934 27.4845 28.2301 27.6322 28.2396 27.6706L30.5697 27.0958C30.5668 27.0838 30.5555 27.0389 30.5478 26.9803L28.1681 27.2917ZM28.2403 27.6735C28.2549 27.7321 28.2683 27.7796 28.2767 27.8083L30.5795 27.1319C30.5785 27.1288 30.5742 27.1137 30.569 27.0929L28.2403 27.6735ZM28.2765 27.8076C28.2838 27.8325 28.2905 27.8542 28.2957 27.8709C28.2984 27.8793 28.3007 27.8865 28.3025 27.8922C28.3041 27.8972 28.306 27.903 28.3058 27.9025L30.5899 27.1657C30.5883 27.1607 30.5874 27.1579 30.5857 27.1523C30.5839 27.1468 30.5818 27.1399 30.5797 27.1326L28.2765 27.8076ZM28.3044 27.8979C28.308 27.9094 28.3112 27.919 28.3131 27.9249C28.3136 27.9264 28.3141 27.9277 28.3144 27.9286C28.3148 27.9298 28.3148 27.9299 28.3149 27.9303C28.315 27.9306 28.3147 27.9297 28.3143 27.9284C28.3141 27.9277 28.3137 27.9265 28.3132 27.9249C28.3127 27.9235 28.3119 27.921 28.3109 27.9179L30.5979 27.1903C30.5969 27.1869 30.596 27.1841 30.5954 27.1822C30.5947 27.1803 30.5942 27.1787 30.5938 27.1775C30.5931 27.1752 30.5924 27.1733 30.5921 27.1724C30.5918 27.1715 30.5914 27.1702 30.5913 27.1699C30.5911 27.1694 30.591 27.169 30.5909 27.1688C30.5906 27.1678 30.5908 27.1686 30.5914 27.1703L28.3044 27.8979ZM28.316 27.9336C28.3139 27.9274 28.3124 27.9226 28.3121 27.9216C28.312 27.9214 28.312 27.9212 28.312 27.9214C28.3121 27.9215 28.3123 27.9222 28.3126 27.9231C28.3128 27.9239 28.3134 27.9255 28.314 27.9276C28.3146 27.9295 28.3158 27.933 28.3172 27.9374L30.5941 27.1784C30.5955 27.1826 30.5966 27.1859 30.5971 27.1876C30.5977 27.1895 30.5981 27.1909 30.5983 27.1914C30.5985 27.192 30.5986 27.1924 30.5986 27.1922C30.5986 27.1922 30.5984 27.1917 30.5982 27.1911C30.5975 27.1888 30.5955 27.1825 30.5929 27.1746L28.316 27.9336ZM28.3527 28.0306C28.3427 28.0074 28.3328 27.9822 28.3233 27.9551C28.319 27.9426 28.3113 27.9201 28.3031 27.8915C28.2992 27.8781 28.2919 27.8519 28.2845 27.8185C28.2808 27.8017 28.2751 27.7745 28.27 27.7406C28.2659 27.7137 28.2562 27.6463 28.2562 27.5594H30.6562C30.6562 27.417 30.629 27.3051 30.6279 27.3002C30.6205 27.2668 30.6132 27.2405 30.6093 27.227C30.601 27.1983 30.5933 27.1755 30.5888 27.1628C30.5791 27.1351 30.5689 27.1092 30.5586 27.0852L28.3527 28.0306ZM34.9987 26.5757C34.9428 26.2127 34.8699 25.9493 34.8059 25.7592L32.5314 26.5252C32.5541 26.5925 32.5929 26.7218 32.6266 26.9407L34.9987 26.5757ZM29.4562 27.5594C30.5902 27.1668 30.5902 27.1668 30.5902 27.1668C30.5902 27.1668 30.5902 27.1669 30.5902 27.1669C30.5902 27.1669 30.5902 27.1669 30.5902 27.167C30.5902 27.167 30.5903 27.1671 30.5903 27.1671C30.5903 27.1672 30.5903 27.1673 30.5904 27.1674C30.5905 27.1677 30.5905 27.1679 30.5906 27.1681C30.5907 27.1685 30.5909 27.1688 30.591 27.1692C30.5912 27.1699 30.5915 27.1706 30.5917 27.1711C30.592 27.1723 30.5924 27.1733 30.5927 27.1742C30.5932 27.1757 30.5939 27.178 30.5949 27.1812L28.3046 27.8984C28.309 27.9126 28.313 27.9247 28.3159 27.9333C28.3174 27.9377 28.3187 27.9416 28.3197 27.9447C28.3203 27.9462 28.3207 27.9477 28.3212 27.9489C28.3214 27.9495 28.3216 27.9501 28.3218 27.9506C28.3219 27.9509 28.3219 27.9511 28.322 27.9514C28.3221 27.9515 28.3221 27.9516 28.3221 27.9517C28.3222 27.9518 28.3222 27.9519 28.3222 27.9519C28.3222 27.9519 28.3222 27.952 28.3222 27.952C28.3222 27.952 28.3222 27.952 28.3223 27.952C28.3223 27.9521 28.3223 27.9521 29.4562 27.5594ZM30.5928 27.1745C30.5908 27.1681 30.5896 27.1643 30.5889 27.1621L28.2902 27.8517C28.2962 27.8717 28.3019 27.8899 28.3067 27.9051L30.5928 27.1745ZM30.5894 27.1636L30.5891 27.1627L28.2597 27.7406C28.2671 27.7701 28.2768 27.8071 28.2897 27.8501L30.5894 27.1636ZM30.5894 27.1638C30.5905 27.1685 30.5934 27.1804 30.5972 27.2C30.5976 27.2026 30.5985 27.2072 30.5996 27.2132C30.6 27.2153 30.6012 27.2221 30.6026 27.2309C30.6031 27.2335 30.6051 27.2462 30.6074 27.2624C30.6079 27.2667 30.6116 27.2927 30.6143 27.3261C30.6149 27.3335 30.6201 27.3908 30.6177 27.4633C30.6151 27.5125 30.594 27.6653 30.5684 27.7671C30.4421 28.0506 29.6409 28.6037 28.9627 28.5347C28.6914 28.3793 28.4085 28.0728 28.3554 27.9815C28.3334 27.9372 28.3024 27.8658 28.2923 27.8393C28.2757 27.7941 28.2655 27.7579 28.2629 27.7485C28.2556 27.7224 28.2508 27.7016 28.2497 27.6969C28.2463 27.6825 28.244 27.6711 28.2434 27.6684C28.2417 27.6601 28.2404 27.6536 28.24 27.6515C28.2389 27.6457 28.2381 27.6412 28.2376 27.6387C28.2358 27.6284 28.2346 27.6211 28.2341 27.6175L30.6061 27.2525C30.6041 27.2394 30.6019 27.226 30.5995 27.2127C30.5989 27.2094 30.598 27.2043 30.5968 27.1982C30.5964 27.1958 30.5951 27.1892 30.5934 27.1808C30.5928 27.178 30.5904 27.1667 30.5871 27.1522C30.5859 27.1475 30.5811 27.1267 30.5738 27.1006C30.5712 27.0912 30.561 27.055 30.5444 27.0098C30.5343 26.9833 30.5033 26.9119 30.4813 26.8676C30.4282 26.7763 30.1453 26.4698 29.874 26.3144C29.1958 26.2454 28.3946 26.7985 28.2683 27.082C28.2428 27.1838 28.2216 27.3366 28.219 27.3858C28.2166 27.4583 28.2218 27.5156 28.2224 27.523C28.2251 27.5564 28.2288 27.5824 28.2294 27.5867C28.2316 27.6029 28.2337 27.6156 28.2341 27.6183C28.2356 27.6272 28.2368 27.6341 28.2372 27.6365C28.2383 27.6428 28.2393 27.648 28.24 27.6513C28.2449 27.6769 28.2513 27.7065 28.2595 27.7395L30.5894 27.1638ZM35.092 27.694C35.0816 27.3241 35.0549 26.9399 34.9986 26.5752L32.6267 26.9412C32.6629 27.1757 32.6843 27.4537 32.6929 27.7609L35.092 27.694ZM28.2341 27.6178C28.233 27.6104 28.2359 27.6284 28.2398 27.6775C28.2435 27.7241 28.2476 27.7928 28.2502 27.8855L30.6493 27.8185C30.6422 27.5649 30.6253 27.3765 30.6061 27.2522L28.2341 27.6178ZM34.9953 30.0473C35.0711 29.2644 35.1127 28.4352 35.092 27.6938L32.6929 27.7611C32.7101 28.3756 32.6757 29.1009 32.6065 29.8158L34.9953 30.0473ZM28.2502 27.8857C28.2609 28.2649 28.2399 28.7978 28.1828 29.3879L30.5716 29.619C30.6352 28.9615 30.6635 28.3246 30.6493 27.8183L28.2502 27.8857ZM34.6606 32.3008C34.8039 31.6256 34.9195 30.8314 34.9953 30.047L32.6064 29.8161C32.5374 30.5311 32.4336 31.2337 32.3129 31.8025L34.6606 32.3008ZM28.1828 29.3877C28.1259 29.9745 28.0442 30.5079 27.9652 30.8804L30.313 31.3782C30.4145 30.8997 30.508 30.275 30.5716 29.6192L28.1828 29.3877ZM34.5577 32.7459C34.5937 32.6031 34.6281 32.4543 34.6606 32.3007L32.3129 31.8026C32.2859 31.9297 32.2585 32.0484 32.2308 32.1581L34.5577 32.7459ZM27.9652 30.8803C27.9486 30.9588 27.9338 31.0217 27.9218 31.0693L30.2484 31.658C30.2691 31.5765 30.2907 31.4831 30.313 31.3783L27.9652 30.8803ZM28.7912 32.5271L33.1004 33.6155L33.6881 31.2885L29.379 30.2002L28.7912 32.5271ZM29.7783 35.3301H31.2397V32.9301H29.7783V35.3301ZM32.4397 34.1301V29.6857H30.0397V34.1301H32.4397ZM31.2397 28.4857H29.7783V30.8857H31.2397V28.4857ZM29.6988 32.9792C29.7138 32.9492 29.7446 32.9301 29.7783 32.9301V35.3301C30.6538 35.3301 31.454 34.8355 31.8454 34.0525L29.6988 32.9792ZM29.7783 28.4857C28.0613 28.4857 26.4915 29.4558 25.7236 30.9915L27.8702 32.0649C28.2316 31.3422 28.9703 30.8857 29.7783 30.8857V28.4857ZM30.7343 36.2748L31.8454 34.0525L29.6988 32.9792L28.5877 35.2014L30.7343 36.2748ZM25.7236 30.9916L24.6125 33.2138L26.7591 34.2871L27.8702 32.0649L25.7236 30.9916ZM28.5783 35.2412C28.5783 35.2275 28.5815 35.2138 28.5878 35.2011L30.7341 36.2751C30.8949 35.9538 30.9783 35.5998 30.9783 35.2412H28.5783ZM24.6125 33.2138C24.2977 33.8433 24.1339 34.5374 24.1339 35.2412H26.5339C26.5339 34.9099 26.611 34.5833 26.7591 34.2871L24.6125 33.2138ZM30.9783 37.4634V35.2412H28.5783V37.4634H30.9783ZM24.1339 35.2412V37.4634H26.5339V35.2412H24.1339ZM28.6672 37.5523C28.6181 37.5523 28.5783 37.5125 28.5783 37.4634H30.9783C30.9783 36.187 29.9436 35.1523 28.6672 35.1523V37.5523ZM24.1339 37.4634C24.1339 39.967 26.1634 41.9968 28.6672 41.9968V39.5968C27.489 39.5968 26.5339 38.6416 26.5339 37.4634H24.1339ZM30.8894 35.1523H28.6672V37.5523H30.8894V35.1523ZM28.6672 41.9968H30.8894V39.5968H28.6672V41.9968ZM32.0894 40.7968V36.3523H29.6894V40.7968H32.0894ZM27.4672 36.3523V38.5745H29.8672V36.3523H27.4672ZM28.6672 39.7745H33.1117V37.3745H28.6672V39.7745ZM34.3117 38.5745V36.3523H31.9117V38.5745H34.3117ZM33.1117 35.1523H28.6672V37.5523H33.1117V35.1523ZM29.7783 39.7745H30.8894V37.3745H29.7783V39.7745ZM32.0894 38.5745V34.1301H29.6894V38.5745H32.0894ZM30.8894 32.9301H29.7783V35.3301H30.8894V32.9301ZM28.5783 34.1301V38.5745H30.9783V34.1301H28.5783ZM26.3561 35.5034V36.3523H28.7561V35.5034H26.3561ZM27.5561 37.5523H32.0005V35.1523H27.5561V37.5523ZM32.0005 34.3034H27.5561V36.7034H32.0005V34.3034ZM27.4041 32.5995L26.7174 33.973L28.8639 35.0463L29.5507 33.6729L27.4041 32.5995ZM27.254 35.583L31.2293 37.5706L32.3026 35.424L28.3273 33.4363L27.254 35.583ZM32.8393 37.0339L33.526 35.6605L31.3793 34.5873L30.6927 35.9607L32.8393 37.0339ZM32.9893 34.0506L29.0141 32.0629L27.9408 34.2095L31.916 36.1972L32.9893 34.0506ZM33.5361 30.7079H30.465V33.1079H33.5361V30.7079ZM29.265 31.9079V36.3523H31.665V31.9079H29.265ZM30.465 37.5523H33.5361V35.1523H30.465V37.5523ZM34.7361 36.3523V31.9079H32.3361V36.3523H34.7361ZM37.2837 33.973L36.597 32.5995L34.4504 33.6729L35.1371 35.0463L37.2837 33.973ZM34.987 32.0629L31.0118 34.0506L32.0851 36.1972L36.0603 34.2095L34.987 32.0629ZM30.4751 35.6605L31.1618 37.0339L33.3084 35.9607L32.6218 34.5873L30.4751 35.6605ZM32.7718 37.5706L36.7471 35.583L35.6738 33.4363L31.6984 35.424L32.7718 37.5706ZM37.645 36.3523V35.5034H35.245V36.3523H37.645ZM36.445 34.3034H32.0005V36.7034H36.445V34.3034ZM32.0005 37.5523H36.445V35.1523H32.0005V37.5523ZM33.1117 39.7745H34.2228V37.3745H33.1117V39.7745ZM35.4228 38.5745V34.1301H33.0228V38.5745H35.4228ZM34.2228 32.9301H33.1117V35.3301H34.2228V32.9301ZM31.9117 34.1301V38.5745H34.3117V34.1301H31.9117ZM36.5339 38.5745V36.3523H34.1339V38.5745H36.5339ZM35.3339 35.1523H30.8894V37.5523H35.3339V35.1523ZM29.6894 36.3523V38.5745H32.0894V36.3523H29.6894ZM30.8894 39.7745H35.3339V37.3745H30.8894V39.7745ZM35.3339 35.1523H33.1117V37.5523H35.3339V35.1523ZM31.9117 36.3523V40.7968H34.3117V36.3523H31.9117ZM33.1117 41.9968H35.3339V39.5968H33.1117V41.9968ZM35.4228 37.4634C35.4228 37.5125 35.383 37.5523 35.3339 37.5523V35.1523C34.0575 35.1523 33.0228 36.187 33.0228 37.4634H35.4228ZM35.3339 41.9968C37.8376 41.9968 39.8672 39.967 39.8672 37.4634H37.4672C37.4672 38.6416 36.5121 39.5968 35.3339 39.5968V41.9968ZM33.0228 35.2412V37.4634H35.4228V35.2412H33.0228ZM39.8672 37.4634V35.2412H37.4672V37.4634H39.8672ZM35.4133 35.2011C35.4196 35.2138 35.4228 35.2275 35.4228 35.2412H33.0228C33.0228 35.5998 33.1062 35.9538 33.2669 36.2751L35.4133 35.2011ZM39.8672 35.2412C39.8672 34.5374 39.7034 33.8433 39.3886 33.2138L37.242 34.2871C37.3901 34.5833 37.4672 34.9099 37.4672 35.2412H39.8672ZM32.1557 34.0525L33.2668 36.2748L35.4134 35.2014L34.3023 32.9792L32.1557 34.0525ZM39.3886 33.2138L38.2775 30.9916L36.1309 32.0649L37.242 34.2871L39.3886 33.2138ZM34.2228 32.9301C34.2565 32.9301 34.2873 32.9492 34.3023 32.9792L32.1557 34.0525C32.5471 34.8355 33.3473 35.3301 34.2228 35.3301V32.9301ZM38.2775 30.9915C37.5096 29.4558 35.9398 28.4857 34.2228 28.4857V30.8857C35.0308 30.8857 35.7695 31.3422 36.1309 32.0649L38.2775 30.9915ZM33.5164 35.3301H34.2228V32.9301H33.5164V35.3301ZM34.2228 28.4857H33.5164V30.8857H34.2228V28.4857ZM32.3164 29.6857V34.1301H34.7164V29.6857H32.3164ZM30.3947 29.6017C30.3366 30.201 30.2531 30.776 30.1611 31.2349L32.5142 31.7067C32.6249 31.1547 32.7191 30.4979 32.7835 29.8331L30.3947 29.6017ZM31.1016 32.6473L35.4592 33.5214L35.9312 31.1683L31.5737 30.2942L31.1016 32.6473ZM36.8717 32.581C37.0172 31.856 37.1311 31.0476 37.2072 30.2611L34.8183 30.03C34.7486 30.7509 34.6454 31.4773 34.5187 32.1088L36.8717 32.581ZM30.4716 27.8234C30.4856 28.3202 30.4578 28.9493 30.3947 29.602L32.7835 29.8329C32.8531 29.1131 32.8882 28.38 32.8706 27.7559L30.4716 27.8234ZM37.2072 30.2612C37.289 29.416 37.3374 28.4905 37.3133 27.6314L34.9142 27.6988C34.9348 28.4308 34.8936 29.2524 34.8184 30.0299L37.2072 30.2612ZM36.0801 26.4656L31.6375 26.5901L31.7047 28.9892L36.1474 28.8646L36.0801 26.4656ZM30.4708 27.797L30.4717 27.8276L32.8707 27.7577L32.8698 27.7272L30.4708 27.797ZM31.7064 28.9921L36.149 28.8617L36.0785 26.4627L31.636 26.5932L31.7064 28.9921ZM37.3133 27.6273L37.3124 27.5967L34.9134 27.6666L34.9143 27.6972L37.3133 27.6273ZM36.0777 26.4322L31.6351 26.5626L31.7055 28.9616L36.1481 28.8311L36.0777 26.4322ZM45.4228 35.8744C45.4228 32.9326 43.7701 30.5209 41.9711 28.8027L40.3135 30.5384C41.8859 32.04 43.0228 33.8659 43.0228 35.8744H45.4228ZM41.9711 28.8027C40.1212 27.0362 37.7097 25.5948 35.2234 24.5445L34.2894 26.7553C36.5856 27.7254 38.7277 29.024 40.3136 30.5384L41.9711 28.8027ZM33.6511 25.1828L31.9213 29.2768L34.132 30.2109L35.8618 26.1169L33.6511 25.1828ZM32.5596 30.8493C34.5041 31.6708 36.147 32.705 37.244 33.7526L38.9015 32.0169C37.5406 30.7172 35.6281 29.5403 33.4937 28.6385L32.5596 30.8493ZM37.244 33.7526C38.3878 34.8449 38.5783 35.5861 38.5783 35.8744H40.9783C40.9783 34.6601 40.28 33.3333 38.9015 32.0169L37.244 33.7526ZM45.4228 41.9079V35.8744H43.0228V41.9079H45.4228ZM38.5783 35.8744V41.9079H40.9783V35.8744H38.5783ZM39.7783 43.1079H44.2228V40.7079H39.7783V43.1079ZM2.00054 45.3301H42.0005V42.9301H2.00054V45.3301ZM43.2005 44.1301V39.6857H40.8005V44.1301H43.2005ZM42.0005 38.4857H2.00054V40.8857H42.0005V38.4857ZM0.800543 39.6857V44.1301H3.20054V39.6857H0.800543ZM-1.42168 35.8744V41.9079H0.97832V35.8744H-1.42168ZM-0.22168 43.1079H4.22276V40.7079H-0.22168V43.1079ZM5.42276 41.9079V35.8744H3.02276V41.9079H5.42276ZM9.4512 24.2701C6.82334 25.3016 4.25647 26.7613 2.28259 28.5667L3.9024 30.3377C5.60637 28.7791 7.89863 27.4578 10.3281 26.5041L9.4512 24.2701ZM2.2826 28.5667C0.37281 30.3135 -1.42168 32.8061 -1.42168 35.8744H0.97832C0.97832 33.7781 2.2157 31.8804 3.9024 30.3377L2.2826 28.5667ZM5.42276 35.8744C5.42276 35.5697 5.63819 34.7732 6.90207 33.6171L5.28221 31.8462C3.78652 33.2143 3.02276 34.6054 3.02276 35.8744H5.42276ZM6.90204 33.6171C8.10618 32.5158 9.89 31.4506 11.9521 30.6413L11.0752 28.4072C8.81464 29.2945 6.75624 30.498 5.28224 31.8462L6.90204 33.6171ZM12.6307 29.0857L11.0067 24.9486L8.77263 25.8256L10.3966 29.9627L12.6307 29.0857ZM7.28007 27.5179C7.29538 28.3621 7.37362 29.2693 7.47821 30.108L9.85976 29.8109C9.76236 29.03 9.69304 28.2108 9.67968 27.4743L7.28007 27.5179ZM14.2701 29.2604C14.1859 28.5868 14.1331 27.9305 14.1233 27.3932L11.7237 27.437C11.7355 28.0818 11.7972 28.8261 11.8886 29.5579L14.2701 29.2604ZM12.9017 26.2153L8.45801 26.2963L8.50175 28.6959L12.9454 28.6149L12.9017 26.2153ZM7.47823 30.1081C7.59139 31.0144 7.74829 31.9438 7.9319 32.746L10.2714 32.2105C10.1092 31.502 9.96503 30.654 9.85974 29.8108L7.47823 30.1081ZM14.6037 31.2185C14.4814 30.6838 14.3607 29.9869 14.2701 29.2605L11.8886 29.5577C11.987 30.3471 12.1204 31.1255 12.2642 31.754L14.6037 31.2185ZM7.93209 32.7468C7.972 32.9206 8.01499 33.0971 8.06135 33.2726L10.3817 32.6596C10.3432 32.5138 10.3064 32.363 10.2712 32.2097L7.93209 32.7468ZM9.52806 34.1263L13.8251 32.9911L13.212 30.6707L8.91503 31.8059L9.52806 34.1263ZM14.6788 31.5248C14.6545 31.4327 14.6294 31.3302 14.6035 31.2176L12.2644 31.7548C12.295 31.888 12.3263 32.016 12.3582 32.137L14.6788 31.5248ZM13.2005 35.2412C13.2005 35.3135 13.1465 35.3464 13.1117 35.3464V32.9464C11.8373 32.9464 10.8005 33.9718 10.8005 35.2412H13.2005ZM13.1117 39.7909C15.5846 39.7909 17.645 37.7845 17.645 35.2412H15.245C15.245 36.447 14.2711 37.3909 13.1117 37.3909V39.7909ZM13.1117 35.136C13.1466 35.136 13.2005 35.1689 13.2005 35.2412H10.8005C10.8005 36.5104 11.8372 37.536 13.1117 37.536V35.136ZM17.645 35.2412C17.645 32.6978 15.5846 30.6915 13.1117 30.6915V33.0915C14.2712 33.0915 15.245 34.0353 15.245 35.2412H17.645ZM13.0228 35.2412C13.0228 35.1689 13.0767 35.136 13.1117 35.136V37.536C14.3861 37.536 15.4228 36.5104 15.4228 35.2412H13.0228ZM13.1117 30.6915C10.6387 30.6915 8.57832 32.6978 8.57832 35.2412H10.9783C10.9783 34.0353 11.9521 33.0915 13.1117 33.0915V30.6915ZM13.1117 35.3464C13.0768 35.3464 13.0228 35.3135 13.0228 35.2412H15.4228C15.4228 33.9718 14.386 32.9464 13.1117 32.9464V35.3464ZM8.57832 35.2412C8.57832 37.7845 10.6387 39.7909 13.1117 39.7909V37.3909C11.9522 37.3909 10.9783 36.447 10.9783 35.2412H8.57832Z" fill="#075450" mask="url(#path-4-outside-1_1260_16874)"/>
</g>
</svg>
