<svg width="56" height="56" viewBox="0 0 56 56" fill="none" xmlns="http://www.w3.org/2000/svg">
<g clip-path="url(#clip0_237_1971)">
<path d="M15.5823 21.3369C16.7376 19.4951 17.6897 18.7012 19.806 18.7012H20.3244C22.4407 18.7012 24.156 20.4166 24.156 22.5328V30.7452" stroke="#075450" stroke-width="2.34375" stroke-miterlimit="10" stroke-linecap="round" stroke-linejoin="round"/>
<path d="M15.5577 30.7455L18.8173 25.7305" stroke="#075450" stroke-width="2.34375" stroke-miterlimit="10" stroke-linecap="round" stroke-linejoin="round"/>
<path d="M15.5818 21.3389L12.3222 26.4482H6.53757C5.35053 26.4482 4.38824 27.4105 4.38824 28.5975C4.38824 29.7846 5.35053 30.7469 6.53757 30.7469" stroke="#075450" stroke-width="2.34375" stroke-miterlimit="10" stroke-linecap="round" stroke-linejoin="round"/>
<path d="M19.8873 18.6977C22.3218 18.6166 24.2296 16.5772 24.1485 14.1427C24.0674 11.7081 22.028 9.80032 19.5935 9.88144C17.159 9.96256 15.2512 12.0019 15.3323 14.4364C15.4134 16.871 17.4527 18.7788 19.8873 18.6977Z" stroke="#075450" stroke-width="2.34375" stroke-miterlimit="10" stroke-linecap="round" stroke-linejoin="round"/>
<path d="M8.89874 35.1387C6.84949 36.4192 5.48657 38.6947 5.48657 41.2887V48.3173" stroke="#075450" stroke-width="2.34375" stroke-miterlimit="10" stroke-linecap="round" stroke-linejoin="round"/>
<path d="M46.1203 21.9605H37.2882C36.1009 21.9605 35.139 20.998 35.139 19.8102C35.139 18.6235 36.1004 17.661 37.2882 17.661H43.072L46.3324 12.5521C47.4874 10.7102 48.4401 9.91504 50.5565 9.91504H51.0749C53.1903 9.91504 54.9064 11.6311 54.9064 13.7475V26.3957L54.8976 29.6682H46.1203C46.1203 28.561 46.1203 23.066 46.1203 21.9605Z" fill="#A4E772"/>
<path d="M7.68298 36.2328C5.86878 36.2328 4.39276 34.7568 4.39276 32.9426C4.39276 31.1284 5.86878 29.6523 7.68298 29.6523H28.549V36.2328H7.68298Z" fill="#A4E772"/>
<path d="M1.09375 54.9072H54.9062" stroke="#075450" stroke-width="2.34375" stroke-miterlimit="10" stroke-linecap="round" stroke-linejoin="round"/>
<path d="M9.8793 48.3176V43.9248H18.7254" stroke="#075450" stroke-width="2.34375" stroke-miterlimit="10" stroke-linecap="round" stroke-linejoin="round"/>
<path d="M28.5492 35.1396V26.354C28.5492 23.1176 30.8818 20.4259 33.959 19.8701" stroke="#075450" stroke-width="2.34375" stroke-miterlimit="10" stroke-linecap="round" stroke-linejoin="round"/>
<path d="M35.5377 52.0114C39.3976 48.1515 39.3976 41.8934 35.5377 38.0336C31.6778 34.1737 25.4198 34.1737 21.5599 38.0336C17.7001 41.8934 17.7001 48.1515 21.5599 52.0114C25.4198 55.8712 31.6778 55.8712 35.5377 52.0114Z" stroke="#075450" stroke-width="2.34375" stroke-miterlimit="10" stroke-linecap="round" stroke-linejoin="round"/>
<path d="M13.1742 39.5322H20.3302" stroke="#075450" stroke-width="2.34375" stroke-miterlimit="10" stroke-linecap="round" stroke-linejoin="round"/>
<path d="M17.5668 39.5322H12.34C10.981 39.5322 9.8793 40.634 9.8793 41.9929V48.318" stroke="#075450" stroke-width="2.34375" stroke-miterlimit="10" stroke-linecap="round" stroke-linejoin="round"/>
<path d="M1.09375 48.3174H9.87941" stroke="#075450" stroke-width="2.34375" stroke-miterlimit="10" stroke-linecap="round" stroke-linejoin="round"/>
<path d="M28.5492 35.1387V41.728" stroke="#075450" stroke-width="2.34375" stroke-miterlimit="10" stroke-linecap="round" stroke-linejoin="round"/>
<path d="M35.5382 38.0342L30.8788 42.6936" stroke="#075450" stroke-width="2.34375" stroke-miterlimit="10" stroke-linecap="round" stroke-linejoin="round"/>
<path d="M38.4329 45.0234H31.8436" stroke="#075450" stroke-width="2.34375" stroke-miterlimit="10" stroke-linecap="round" stroke-linejoin="round"/>
<path d="M35.5382 52.0119L30.8788 47.3525" stroke="#075450" stroke-width="2.34375" stroke-miterlimit="10" stroke-linecap="round" stroke-linejoin="round"/>
<path d="M28.5492 54.9067V48.3174" stroke="#075450" stroke-width="2.34375" stroke-miterlimit="10" stroke-linecap="round" stroke-linejoin="round"/>
<path d="M21.5601 52.0119L26.2195 47.3525" stroke="#075450" stroke-width="2.34375" stroke-miterlimit="10" stroke-linecap="round" stroke-linejoin="round"/>
<path d="M18.6653 45.0234H25.2546" stroke="#075450" stroke-width="2.34375" stroke-miterlimit="10" stroke-linecap="round" stroke-linejoin="round"/>
<path d="M21.5601 38.0342L26.2195 42.6936" stroke="#075450" stroke-width="2.34375" stroke-miterlimit="10" stroke-linecap="round" stroke-linejoin="round"/>
<path d="M54.8971 5.66081C54.9838 3.22627 53.0805 1.18239 50.646 1.09567C48.2115 1.00894 46.1676 2.91223 46.0809 5.34676C45.9941 7.7813 47.8974 9.82518 50.3319 9.91191C52.7665 9.99863 54.8104 8.09535 54.8971 5.66081Z" stroke="#075450" stroke-width="2.34375" stroke-miterlimit="10" stroke-linecap="round" stroke-linejoin="round"/>
<path d="M54.8976 29.6689V32.8386C54.8976 34.336 54.3026 35.7721 53.2438 36.8319C52.184 37.8907 51.589 39.3268 51.589 40.8252V54.9072" stroke="#075450" stroke-width="2.34375" stroke-miterlimit="10" stroke-linecap="round" stroke-linejoin="round"/>
<path d="M46.1202 54.9072V29.6689" stroke="#075450" stroke-width="2.34375" stroke-miterlimit="10" stroke-linecap="round" stroke-linejoin="round"/>
<path d="M54.8973 29.6691L54.9061 26.3966V13.7485C54.9061 11.6321 53.19 9.91602 51.0747 9.91602H50.5562C48.4398 9.91602 47.4872 10.7112 46.3322 12.553" stroke="#075450" stroke-width="2.34375" stroke-miterlimit="10" stroke-linecap="round" stroke-linejoin="round"/>
<path d="M46.1202 22.0547V29.6683" stroke="#075450" stroke-width="2.34375" stroke-miterlimit="10" stroke-linecap="round" stroke-linejoin="round"/>
<path d="M46.3324 12.5527L43.072 17.6616H37.2882C36.1004 17.6616 35.139 18.6241 35.139 19.8109C35.139 20.9981 36.1004 21.9612 37.2882 21.9612C37.787 21.9612 45.8183 21.9612 46.3084 21.9612L49.5678 16.9452" stroke="#075450" stroke-width="2.34375" stroke-miterlimit="10" stroke-linecap="round" stroke-linejoin="round"/>
<path d="M9.8793 48.3179V41.9845C9.8793 40.6305 10.9775 39.5322 12.3316 39.5322H17.4207" stroke="#075450" stroke-width="2.34375" stroke-miterlimit="10" stroke-linecap="round" stroke-linejoin="round"/>
<path d="M6.58484 51.6121C6.58484 49.7924 8.05987 48.3174 9.87943 48.3174C11.6991 48.3174 13.1741 49.7924 13.1741 51.6121C13.1741 53.4316 11.6991 54.9067 9.87943 54.9067C8.05987 54.9067 6.58484 53.4316 6.58484 51.6121Z" stroke="#075450" stroke-width="2.34375" stroke-miterlimit="10" stroke-linecap="round" stroke-linejoin="round"/>
<path d="M25.2547 45.0232C25.2547 43.2035 26.7297 41.7285 28.5493 41.7285C30.3689 41.7285 31.8439 43.2035 31.8439 45.0232C31.8439 46.8428 30.3689 48.3178 28.5493 48.3178C26.7298 48.3178 25.2547 46.8428 25.2547 45.0232Z" stroke="#075450" stroke-width="2.34375" stroke-miterlimit="10" stroke-linecap="round" stroke-linejoin="round"/>
</g>
<defs>
<clipPath id="clip0_237_1971">
<rect width="56" height="56" fill="white"/>
</clipPath>
</defs>
</svg>
