<svg width="57" height="56" viewBox="0 0 57 56" fill="none" xmlns="http://www.w3.org/2000/svg">
<g clip-path="url(#clip0_237_1790)">
<path d="M35.6388 36.2366L32.3441 31.8438H32.329C32.1613 33.8118 30.5117 35.3571 28.5003 35.3571C26.4889 35.3571 24.8393 33.8117 24.6716 31.8438H24.6565L21.3618 36.2366L24.3599 38.4329L22.1635 41.7276L28.5004 54.9062L34.837 41.7276L32.6407 38.4329L35.6388 36.2366Z" fill="#A4E772"/>
<path d="M32.344 27.8174V31.8435L45.1943 33.3553C48.5127 33.7457 51.0137 36.5581 51.0137 39.8994V54.906H5.98682V39.8994C5.98682 36.5581 8.48779 33.7456 11.8062 33.3553L24.6565 31.8435V27.8174" stroke="#075450" stroke-width="2.34375" stroke-miterlimit="10" stroke-linecap="round" stroke-linejoin="round"/>
<path d="M28.5004 28.549C22.7385 28.549 18.0674 23.878 18.0674 18.1159V10.9775H38.9335V18.1159C38.9335 23.878 34.2624 28.549 28.5004 28.549Z" stroke="#075450" stroke-width="2.34375" stroke-miterlimit="10" stroke-linecap="round" stroke-linejoin="round"/>
<path d="M38.9331 10.9776V7.68305C38.9331 4.04392 35.983 1.09375 32.3439 1.09375H22.46C22.46 6.55255 26.8852 10.9776 32.3439 10.9776H38.9331Z" stroke="#075450" stroke-width="2.34375" stroke-miterlimit="10" stroke-linecap="round" stroke-linejoin="round"/>
<path d="M18.0674 10.978V7.68337C18.0674 5.86359 19.5423 4.38867 21.362 4.38867C22.067 4.38867 22.7216 4.61048 23.2574 4.99045" stroke="#075450" stroke-width="2.34375" stroke-miterlimit="10" stroke-linecap="round" stroke-linejoin="round"/>
<path d="M16.9691 48.3168H19.1655V46.1204C19.1655 43.6942 17.1988 41.7275 14.7727 41.7275C12.3466 41.7275 10.3799 43.6943 10.3799 46.1204V48.3168H12.5764" stroke="#075450" stroke-width="2.34375" stroke-miterlimit="10" stroke-linecap="round" stroke-linejoin="round"/>
<path d="M14.7725 41.7277V33.0068" stroke="#075450" stroke-width="2.34375" stroke-miterlimit="10" stroke-linecap="round" stroke-linejoin="round"/>
<path d="M42.7769 40.6292V33.0713" stroke="#075450" stroke-width="2.34375" stroke-miterlimit="10" stroke-linecap="round" stroke-linejoin="round"/>
<path d="M23.5581 16.4688V17.567" stroke="#075450" stroke-width="2.34375" stroke-miterlimit="10" stroke-linecap="round" stroke-linejoin="round"/>
<path d="M33.4424 16.4688V17.567" stroke="#075450" stroke-width="2.34375" stroke-miterlimit="10" stroke-linecap="round" stroke-linejoin="round"/>
<path d="M25.7549 21.958C25.9777 22.1693 27.031 23.0158 28.5004 23.0562C30.1091 23.1004 31.0475 22.1458 31.2459 21.958" stroke="#075450" stroke-width="2.34375" stroke-miterlimit="10" stroke-linecap="round" stroke-linejoin="round"/>
<path d="M32.3438 31.5137C32.3438 33.6365 30.6229 35.3574 28.5 35.3574C26.3772 35.3574 24.6562 33.6365 24.6562 31.5137" stroke="#075450" stroke-width="2.34375" stroke-miterlimit="10" stroke-linecap="round" stroke-linejoin="round"/>
<path d="M46.5176 45.3608C47.0055 43.2948 45.7261 41.2246 43.6602 40.7368C41.5942 40.2489 39.524 41.5282 39.0361 43.5942C38.5483 45.6602 39.8276 47.7304 41.8936 48.2183C43.9595 48.7061 46.0298 47.4268 46.5176 45.3608Z" stroke="#075450" stroke-width="2.34375" stroke-miterlimit="10" stroke-linecap="round" stroke-linejoin="round"/>
</g>
<defs>
<clipPath id="clip0_237_1790">
<rect width="56" height="56" fill="white" transform="translate(0.5)"/>
</clipPath>
</defs>
</svg>
