<svg width="56" height="56" viewBox="0 0 56 56" fill="none" xmlns="http://www.w3.org/2000/svg">
<path d="M56 28C56 43.464 43.464 56 28 56C12.536 56 0 43.464 0 28C0 12.536 12.536 0 28 0C43.464 0 56 12.536 56 28Z" fill="#075450"/>
<path d="M34.7255 43.3989C40.6561 40.8053 44.8002 34.8862 44.8002 27.9992C44.8002 18.7209 37.2786 11.1992 28.0002 11.1992C18.7218 11.1992 11.2002 18.7209 11.2002 27.9992C11.2002 34.8867 15.3448 40.806 21.276 43.3995C17.5824 45.0148 14.5818 47.92 12.8435 51.5457C17.2124 54.3637 22.4157 55.9992 28.0013 55.9992C33.5868 55.9992 38.7901 54.3637 43.159 51.5457C41.4206 47.9197 38.4196 45.0143 34.7255 43.3989Z" fill="#EEFAEF"/>
</svg>
