<svg width="56" height="56" viewBox="0 0 56 56" fill="none" xmlns="http://www.w3.org/2000/svg">
<path d="M20.7245 43.9201L17.5363 42.8212L18.1955 41.7324C16.1012 39.399 14.8257 36.3166 14.8257 32.9417C14.8257 25.6774 20.7355 19.7676 27.9998 19.7676C35.264 19.7676 41.174 25.6775 41.174 32.9418C41.174 36.3166 39.8985 39.3991 37.8042 41.7325L38.5363 43.2029L35.2752 43.9201C30.8719 46.8478 25.1323 46.8509 20.7245 43.9201Z" fill="#A4E772"/>
<path d="M32.0948 31.8521H29.1177V28.875C29.1177 28.2709 28.628 27.7812 28.024 27.7812C27.4199 27.7812 26.9302 28.2709 26.9302 28.875V31.8521H23.9531C23.349 31.8521 22.8594 32.3418 22.8594 32.9458C22.8594 33.5499 23.349 34.0396 23.9531 34.0396H26.9302V37.0167C26.9302 37.6207 27.4199 38.1104 28.024 38.1104C28.628 38.1104 29.1177 37.6207 29.1177 37.0167V34.0396H32.0948C32.6989 34.0396 33.1885 33.5499 33.1885 32.9458C33.1885 32.3418 32.6989 31.8521 32.0948 31.8521Z" fill="#075450"/>
<path d="M53.2238 25.29L53.8535 24.6603C55.2854 23.2284 55.1437 20.8591 53.5415 19.6106L28.6722 0.231C28.277 -0.077 27.7228 -0.077 27.3277 0.231L2.45851 19.6106C0.861088 20.8553 0.710151 23.224 2.14635 24.6603L2.77603 25.29C3.79551 26.3096 5.32873 26.5496 6.58917 25.9625V49.4197H4.9854C3.44748 49.4197 2.19634 50.6708 2.19634 52.2087V53.2109C2.19634 54.7489 3.44748 56 4.9854 56H51.0143C52.5523 56 53.8034 54.7489 53.8034 53.2109V52.2087C53.8034 50.6708 52.5523 49.4197 51.0143 49.4197H49.4106V25.9599C50.7214 26.5709 52.2389 26.2746 53.2238 25.29ZM51.0143 51.6072C51.346 51.6072 51.6159 51.8771 51.6159 52.2087V53.2109C51.6159 53.5427 51.346 53.8125 51.0143 53.8125H4.9854C4.65378 53.8125 4.38384 53.5427 4.38384 53.2109V52.2087C4.38384 51.8771 4.65378 51.6072 4.9854 51.6072H51.0143ZM18.1962 41.7321H8.77678V24.3646L27.9999 9.35922L47.2231 24.3646V41.7321H37.8037C37.0577 42.5633 36.2079 43.2993 35.2748 43.9196H47.2232V49.4197H8.77667V43.9196H20.725C19.7919 43.2992 18.9421 42.5633 18.1962 41.7321ZM28.673 7.10959C28.2774 6.80094 27.7226 6.80094 27.3269 7.10959L5.8942 23.8396C5.42214 24.2083 4.74653 24.1668 4.32292 23.7431L3.69325 23.1135C3.19253 22.6127 3.23354 21.7798 3.80306 21.336L27.9999 2.48041L52.1968 21.3361C52.7554 21.7714 52.8172 22.603 52.3066 23.1136L51.6769 23.7432C51.2533 24.1668 50.5777 24.2084 50.1057 23.8397L28.673 7.10959Z" fill="#075450"/>
</svg>
