<svg width="100" height="27" viewBox="0 0 100 27" fill="none" xmlns="http://www.w3.org/2000/svg">
<path d="M86.8625 6.34836L84.7377 19.6658C84.7297 19.7147 84.7326 19.7647 84.7461 19.8124C84.7596 19.8601 84.7833 19.9042 84.8157 19.9418C84.8481 19.9793 84.8884 20.0094 84.9336 20.0298C84.9789 20.0502 85.0281 20.0605 85.0777 20.0599H87.5923C87.6811 20.0607 87.7671 20.0297 87.835 19.9726C87.9028 19.9155 87.9478 19.8361 87.962 19.7487L90.0868 6.43131C90.0948 6.38241 90.0919 6.33236 90.0785 6.28468C90.065 6.23699 90.0412 6.19283 90.0088 6.15528C89.9764 6.11773 89.9362 6.0877 89.8909 6.0673C89.8457 6.0469 89.7965 6.03662 89.7468 6.03718H87.2322C87.1432 6.03542 87.0566 6.06603 86.9886 6.1233C86.9206 6.18056 86.8758 6.26056 86.8625 6.34836ZM84.1774 10.2347H81.7914C81.7028 10.2338 81.6168 10.2647 81.5491 10.3217C81.4814 10.3787 81.4364 10.4581 81.4223 10.5453L81.3434 11.0356C81.3434 11.0356 79.4903 9.03118 76.2093 10.3858C74.327 11.1614 73.4235 12.7638 73.039 13.9377C73.039 13.9377 71.8187 17.5055 74.5786 19.4692C74.5786 19.4692 77.1377 21.358 80.0193 19.353L79.9696 19.6658C79.958 19.7392 79.9709 19.8145 80.0063 19.8799C80.0417 19.9454 80.0976 19.9974 80.1655 20.0282C80.2105 20.0493 80.2598 20.0599 80.3096 20.0599H82.6971C82.7861 20.0617 82.8727 20.031 82.9407 19.9738C83.0087 19.9165 83.0535 19.8365 83.0668 19.7487L84.519 10.6288C84.5271 10.58 84.5242 10.5299 84.5106 10.4823C84.4969 10.4347 84.4729 10.3907 84.4401 10.3536C84.4077 10.3157 84.3674 10.2854 84.322 10.2647C84.2766 10.2441 84.2273 10.2342 84.1774 10.2347ZM80.6665 15.2749C80.5735 15.9121 80.2505 16.4935 79.7582 16.91C79.2639 17.3281 78.6347 17.5538 77.9867 17.5456C77.7325 17.5486 77.4795 17.5118 77.2367 17.4368C76.2066 17.1092 75.6188 16.1297 75.7877 15.0678C75.8815 14.4309 76.2048 13.85 76.6971 13.4337C77.191 13.0154 77.8197 12.789 78.4676 12.796C78.7218 12.7934 78.9748 12.8305 79.2175 12.9059C80.254 13.2313 80.8392 14.2124 80.6692 15.2754H80.6665V15.2749ZM67.9261 15.5269C69.2199 15.5269 70.4714 15.0683 71.4544 14.2346C72.4353 13.4037 73.0848 12.2493 73.2847 10.9812C73.7026 8.3433 71.6217 6.04088 68.6718 6.04088H63.9195C63.8308 6.04003 63.7448 6.07098 63.677 6.12809C63.6093 6.1852 63.5643 6.26468 63.5504 6.35206L61.425 19.6695C61.4135 19.7429 61.4264 19.8182 61.4618 19.8836C61.4972 19.9491 61.5531 20.0011 61.621 20.0319C61.6665 20.053 61.7152 20.0636 61.765 20.0636H64.2812C64.3699 20.0644 64.456 20.0335 64.5237 19.9764C64.5915 19.9193 64.6364 19.8398 64.6504 19.7524L65.2743 15.8418C65.2874 15.7539 65.3321 15.6737 65.4002 15.6164C65.4682 15.559 65.5549 15.5283 65.6439 15.5301L67.9261 15.5269ZM70.0308 10.8613C69.8756 11.8366 69.114 12.5546 67.657 12.5546H65.7943L66.36 9.00793H68.1893C69.6955 9.01057 70.1859 9.89023 70.0308 10.8639V10.8613Z" fill="white"/>
<path d="M58.5582 10.4624L55.6803 15.2728L54.2196 10.4978C54.1968 10.4216 54.1497 10.3549 54.0855 10.3077C54.0213 10.2605 53.9435 10.2355 53.8637 10.2363H51.2665C51.1993 10.2354 51.134 10.2587 51.0827 10.302C51.0315 10.3453 50.9976 10.4057 50.9874 10.4719C50.981 10.5158 50.9856 10.5606 51.0006 10.6024L53.618 18.6456L51.2506 22.4358C51.2305 22.467 51.217 22.5019 51.2109 22.5385C51.2048 22.5751 51.2063 22.6125 51.2152 22.6485C51.2241 22.6845 51.2403 22.7184 51.2628 22.7479C51.2853 22.7774 51.3136 22.8021 51.3459 22.8204C51.3892 22.8452 51.4384 22.858 51.4884 22.8574H54.2858C54.3657 22.8576 54.4442 22.8374 54.5139 22.7985C54.5836 22.7596 54.642 22.7035 54.6836 22.6355L61.9944 10.66C62.0209 10.6183 62.0354 10.5702 62.0365 10.5208C62.0375 10.4714 62.025 10.4227 62.0002 10.38C61.9755 10.3371 61.9398 10.3016 61.8966 10.2771C61.8535 10.2527 61.8046 10.2402 61.755 10.241H58.9586C58.8784 10.2403 58.7994 10.2603 58.7292 10.2991C58.659 10.3379 58.6001 10.3941 58.5582 10.4624ZM49.7941 10.2363H47.4061C47.3173 10.2354 47.2311 10.2664 47.1632 10.3236C47.0954 10.3809 47.0504 10.4605 47.0364 10.548L46.9591 11.0377C46.9591 11.0377 45.1044 9.03329 41.8234 10.3879C39.9417 11.1635 39.0376 12.7659 38.6547 13.9398C38.6547 13.9398 37.4334 17.5076 40.1927 19.4713C40.1927 19.4713 42.7523 21.3601 45.634 19.3551L45.5842 19.6679C45.5725 19.7414 45.5853 19.8167 45.6207 19.8821C45.6562 19.9476 45.7122 19.9997 45.7802 20.0303C45.8252 20.0514 45.8744 20.062 45.9242 20.062H48.3117C48.4004 20.0626 48.4863 20.0316 48.554 19.9745C48.6217 19.9175 48.6667 19.8381 48.6809 19.7508L50.1336 10.6309C50.1455 10.5574 50.1327 10.482 50.0973 10.4163C50.0618 10.3507 50.0058 10.2986 49.9377 10.268C49.8925 10.2472 49.8439 10.2364 49.7941 10.2363ZM46.2828 15.2775C46.1888 15.9139 45.8657 16.4944 45.3739 16.9106C44.8799 17.3286 44.2512 17.5548 43.6034 17.5477C43.3497 17.5505 43.097 17.5138 42.8546 17.4389C41.825 17.1113 41.2376 16.1318 41.4066 15.0694C41.5007 14.4311 41.8252 13.8491 42.3191 13.4326C42.8149 13.0144 43.4456 12.789 44.0949 12.7981C44.3491 12.7955 44.6028 12.8324 44.8454 12.908C45.8713 13.2334 46.4554 14.214 46.2859 15.2775H46.2828ZM33.5428 15.529C34.8345 15.5283 36.0839 15.0698 37.068 14.2351C38.048 13.4043 38.6967 12.2503 38.8962 10.9828C39.3146 8.34541 37.2332 6.04299 34.2843 6.04299H29.5315C29.4428 6.0421 29.3568 6.07296 29.2889 6.12995C29.2211 6.18695 29.176 6.26631 29.1618 6.35364L27.0434 19.6673C27.0315 19.7409 27.0443 19.8163 27.0797 19.8819C27.1151 19.9475 27.1712 19.9997 27.2393 20.0303C27.2843 20.0509 27.3336 20.062 27.3834 20.062H29.898C29.9868 20.0629 30.073 20.0318 30.1409 19.9746C30.2087 19.9174 30.2537 19.8378 30.2677 19.7503L30.8905 15.8397C30.9037 15.7519 30.9485 15.6719 31.0166 15.6146C31.0846 15.5573 31.1712 15.5267 31.2602 15.5285L33.5428 15.529ZM35.6475 10.8629C35.4923 11.8381 34.7313 12.5561 33.2743 12.5561H31.4116L31.9762 9.00951H33.8055C35.3123 9.01216 35.8022 9.89234 35.6475 10.8655V10.8629Z" fill="white"/>
<path d="M17.2862 6.72587C17.3428 3.78523 14.9113 1.5293 11.5679 1.5293H4.65213C4.49097 1.52922 4.33508 1.58656 4.21254 1.69097C4.09 1.79539 4.00886 1.94003 3.98375 2.09883L1.21279 19.3712C1.20039 19.4495 1.20515 19.5295 1.22673 19.6058C1.2483 19.6821 1.28619 19.7528 1.33779 19.813C1.38938 19.8733 1.45345 19.9216 1.52559 19.9548C1.59772 19.988 1.67621 20.0052 1.75565 20.0052H5.85277L5.21246 24.0046C5.20007 24.0829 5.20482 24.1629 5.2264 24.2392C5.24798 24.3154 5.28587 24.3861 5.33746 24.4464C5.38905 24.5066 5.45312 24.555 5.52526 24.5882C5.5974 24.6214 5.67588 24.6386 5.75532 24.6386H9.09297C9.25397 24.6386 9.3975 24.581 9.52037 24.4769C9.64218 24.3723 9.66231 24.2281 9.68773 24.0691L10.6675 18.3188C10.6924 18.1603 10.7734 17.9543 10.8958 17.8497C11.0181 17.7451 11.1251 17.688 11.2866 17.688H13.3289C16.6035 17.688 19.3813 15.366 19.8892 12.1369C20.2488 9.84508 19.2637 7.75979 17.2862 6.72587Z" fill="#075450"/>
<path d="M6.73935 13.6365L5.71878 20.0915L5.07794 24.1406C5.06562 24.2188 5.07045 24.2989 5.0921 24.3751C5.11375 24.4513 5.1517 24.522 5.20334 24.5822C5.25498 24.6424 5.31909 24.6907 5.39125 24.7238C5.46341 24.7569 5.5419 24.7741 5.62133 24.774H9.15388C9.31489 24.774 9.47058 24.7166 9.59292 24.6121C9.71526 24.5077 9.79621 24.3632 9.8212 24.2045L10.7523 18.3195C10.7774 18.1608 10.8584 18.0162 10.9808 17.9118C11.1033 17.8074 11.259 17.75 11.4201 17.75H13.4994C16.774 17.75 19.5519 15.3673 20.0603 12.1382C20.4204 9.8463 19.2637 7.76049 17.2862 6.72656C17.2809 6.97065 17.2597 7.2142 17.2221 7.45565C16.7142 10.6837 13.9353 13.067 10.6617 13.067H7.4072C7.24608 13.0671 7.09031 13.1246 6.9679 13.2291C6.84548 13.3336 6.76444 13.4777 6.73935 13.6365Z" fill="white"/>
<path d="M5.71856 20.0915H1.60873C1.52931 20.0915 1.45083 20.0743 1.37872 20.0412C1.3066 20.008 1.24256 19.9596 1.191 19.8993C1.13945 19.839 1.10161 19.7683 1.0801 19.6921C1.05859 19.6158 1.05391 19.5358 1.0664 19.4576L3.83736 1.92891C3.86246 1.77019 3.94351 1.62563 4.06594 1.52122C4.18837 1.41682 4.34414 1.35943 4.5052 1.35938H11.5682C14.9117 1.35938 17.3431 3.78648 17.2865 6.7266C16.4544 6.29126 15.4768 6.04242 14.4059 6.04242H8.51759C8.35643 6.04234 8.20054 6.09968 8.078 6.20409C7.95546 6.30851 7.87432 6.45315 7.84921 6.61195L6.74019 13.6365L5.71803 20.0915H5.71856Z" fill="white"/>
</svg>
