<svg width="110" height="20" viewBox="0 0 110 20" fill="none" xmlns="http://www.w3.org/2000/svg">
<g clip-path="url(#clip0_1265_238)">
<path d="M15.6294 1.86328H0.902882C0.432886 1.86328 0.00205692 2.2516 0.00205692 2.75641V4.38734C0.00205692 4.89215 0.432886 5.3193 0.902882 5.3193H15.6294C16.1386 5.3193 16.5302 4.89215 16.5694 4.38734V2.79524C16.5694 2.2516 16.1386 1.86328 15.6294 1.86328ZM15.6294 11.0275H0.902882C0.667884 11.0275 0.432886 11.144 0.237055 11.2994C0.0803895 11.4547 -0.0371094 11.6877 -0.0371094 11.9595V13.5904C-0.0371094 14.0952 0.39372 14.5224 0.863715 14.5224H15.5902C16.0994 14.5224 16.4911 14.1341 16.5302 13.5904V11.9595C16.5694 11.4159 16.1386 11.0275 15.6294 11.0275ZM9.20614 15.5708H0.902882C0.667884 15.5708 0.432886 15.6485 0.276221 15.8427C0.119556 15.998 0.00205692 16.231 0.00205692 16.5028V18.1337C0.00205692 18.6385 0.432886 19.0657 0.902882 19.0657H9.16697C9.67613 19.0657 10.0678 18.6385 10.0678 18.1337V16.464C10.107 15.998 9.7153 15.5708 9.20614 15.5708ZM16.5694 6.44541H0.902882C0.667884 6.44541 0.432886 6.52308 0.276221 6.71724C0.119556 6.87256 0.00205692 7.10555 0.00205692 7.37737V9.0083C0.00205692 9.51311 0.432886 9.94026 0.902882 9.94026H16.5302C17.0394 9.94026 17.4311 9.51311 17.4311 9.0083V7.37737C17.4702 6.83373 17.0786 6.44541 16.5694 6.44541Z" fill="white"/>
<path d="M33.6855 5.55292C33.2155 5.08694 32.7063 4.73746 32.0797 4.46564C31.4922 4.19382 30.8263 4.07732 30.1605 4.07732C29.5339 4.07732 28.9072 4.19382 28.3197 4.46564C27.928 4.6598 27.5755 4.89279 27.3014 5.20344V4.93162C27.3014 4.77629 27.223 4.6598 27.1447 4.5433C27.0272 4.42681 26.9097 4.34914 26.753 4.34914H24.6772C24.5206 4.34914 24.3639 4.42681 24.2856 4.5433C24.1681 4.6598 24.1289 4.77629 24.1289 4.93162V18.5227C24.1289 18.678 24.2072 18.7945 24.2856 18.911C24.4031 19.0275 24.5206 19.0663 24.6772 19.0663H26.753C26.9097 19.0663 27.0272 19.0275 27.1447 18.911C27.2622 18.7945 27.3014 18.678 27.3014 18.5227V13.8629C27.6147 14.1735 27.9672 14.4454 28.398 14.5619C28.9464 14.756 29.5339 14.8725 30.0822 14.8725C30.748 14.8725 31.4138 14.756 32.0013 14.4842C32.628 14.2512 33.1763 13.8629 33.6072 13.3969C34.0771 12.8921 34.4688 12.3096 34.7038 11.6883C34.978 10.9894 35.1346 10.2127 35.0955 9.47492C35.0955 8.69829 34.978 7.96049 34.7038 7.22268C34.5471 6.64021 34.1555 6.05774 33.6855 5.55292ZM31.8447 10.4845C31.7272 10.7564 31.5705 11.0282 31.3747 11.2612C30.9438 11.7272 30.3563 11.9601 29.7297 11.9601C29.4164 11.9601 29.103 11.8825 28.8289 11.766C28.5547 11.6495 28.2805 11.4553 28.0847 11.2612C27.8889 11.0282 27.693 10.7564 27.5755 10.4845C27.3405 9.86324 27.3405 9.2031 27.5755 8.58179C27.693 8.30997 27.8497 8.03815 28.0847 7.80516C28.3197 7.57217 28.5547 7.41684 28.8289 7.26152C29.103 7.14502 29.4164 7.06736 29.7297 7.06736C30.043 7.06736 30.3563 7.14502 30.6697 7.26152C30.9438 7.37801 31.1788 7.57217 31.4138 7.76633C31.6097 7.99932 31.7663 8.23231 31.8838 8.54296C32.0797 9.16427 32.0797 9.86324 31.8447 10.4845ZM46.4145 4.38798H44.3387C44.182 4.38798 44.0646 4.46564 43.9471 4.5433C43.8296 4.6598 43.7904 4.81512 43.7904 4.97045V5.20344C43.5162 4.89279 43.2029 4.6598 42.8504 4.50447C42.3021 4.23265 41.6754 4.11615 41.0487 4.11615C39.7171 4.11615 38.4246 4.6598 37.4846 5.59176C37.0146 6.09657 36.623 6.67904 36.3488 7.30035C36.0355 7.99932 35.918 8.77595 35.918 9.55258C35.918 10.3292 36.0355 11.1058 36.3488 11.8048C36.623 12.4261 37.0146 13.0086 37.4846 13.5134C38.4246 14.4454 39.6779 14.989 41.0096 14.989C41.6362 14.989 42.2629 14.8725 42.8112 14.6007C43.1637 14.4065 43.5162 14.1735 43.7512 13.9017V14.1735C43.7512 14.3289 43.8296 14.4454 43.9079 14.5619C44.0254 14.6395 44.1429 14.7172 44.2995 14.7172H46.3754C46.532 14.7172 46.6495 14.6395 46.767 14.5619C46.8845 14.4454 46.9237 14.3289 46.9237 14.1735V4.97045C46.9237 4.81512 46.8845 4.69863 46.767 4.58213C46.6887 4.42681 46.5712 4.38798 46.4145 4.38798ZM43.5946 10.4457C43.4771 10.7175 43.3204 10.9894 43.1246 11.2223C42.9287 11.4165 42.6546 11.6107 42.3804 11.766C41.7929 12.0378 41.1271 12.0378 40.5396 11.766C40.2654 11.6495 39.9913 11.4553 39.7954 11.2223C39.5996 10.9894 39.4038 10.7175 39.3254 10.4457C39.0904 9.8244 39.0904 9.16427 39.3254 8.54296C39.4429 8.27114 39.5996 7.99932 39.7954 7.76633C39.9913 7.53334 40.2654 7.37801 40.5396 7.22268C41.1271 6.95086 41.7929 6.95086 42.3804 7.22268C42.6546 7.33918 42.8896 7.53334 43.1246 7.7275C43.3204 7.96049 43.4771 8.19348 43.5946 8.50413C43.8687 9.16427 43.8687 9.86324 43.5946 10.4457ZM67.0552 9.24193C66.7418 8.97011 66.4285 8.77595 66.0368 8.62062C65.6452 8.4653 65.2535 8.3488 64.8227 8.27114L63.256 7.96049C62.8644 7.88282 62.551 7.76633 62.3944 7.64983C62.2769 7.57217 62.1985 7.41684 62.1985 7.26152C62.1985 7.10619 62.2769 6.95086 62.5119 6.83437C62.786 6.67904 63.0994 6.60138 63.3735 6.64021C63.7652 6.64021 64.196 6.71787 64.5485 6.8732C64.901 7.02853 65.2535 7.22268 65.5668 7.41684C66.0368 7.68866 66.4285 7.64983 66.7027 7.33918L67.4468 6.48488C67.6035 6.32956 67.6818 6.1354 67.6818 5.94124C67.6818 5.74708 67.5643 5.51409 67.4077 5.3976C67.0943 5.12578 66.5852 4.81512 65.8802 4.5433C65.2143 4.27148 64.3527 4.11615 63.3344 4.11615C62.7077 4.11615 62.1202 4.19382 61.5327 4.38798C61.0236 4.5433 60.5536 4.77629 60.1619 5.08695C59.7702 5.35877 59.4961 5.74708 59.2611 6.17423C59.0652 6.60138 58.9477 7.02853 58.9477 7.49451C58.9477 8.3488 59.2219 9.04777 59.7311 9.55258C60.2402 10.0574 60.9061 10.4069 61.7677 10.5622L63.4127 10.9117C63.7652 10.9894 64.1177 11.067 64.4702 11.2223C64.666 11.3 64.7835 11.4553 64.7835 11.6883C64.7835 11.8825 64.7052 12.0378 64.4702 12.1931C64.2744 12.3485 63.9219 12.4261 63.491 12.4261C63.0602 12.4261 62.5902 12.3485 62.1985 12.1543C61.8069 11.9601 61.4544 11.7272 61.1411 11.4553C60.9844 11.3388 60.8277 11.2612 60.6711 11.1835C60.4752 11.1447 60.2402 11.1835 60.0052 11.3777L59.1044 12.0766C58.8694 12.2708 58.7127 12.5815 58.7911 12.8533C58.8302 13.1639 59.1044 13.4357 59.5352 13.7852C60.6711 14.5619 62.0419 14.9502 63.4127 14.9114C64.0394 14.9114 64.7052 14.8337 65.2927 14.6395C65.841 14.4842 66.311 14.2512 66.7418 13.9017C67.1335 13.5911 67.486 13.2028 67.6818 12.7756C67.9168 12.3485 67.9952 11.8825 67.9952 11.3777C67.9952 10.9505 67.9168 10.5234 67.721 10.0962C67.5643 9.8244 67.3293 9.51375 67.0552 9.24193ZM76.0634 11.7272C75.9851 11.5718 75.7892 11.4553 75.5934 11.4165C75.3976 11.4165 75.2018 11.4942 75.0451 11.5718C74.8101 11.7272 74.4968 11.8436 74.1834 11.8436C74.1051 11.8436 73.9876 11.8436 73.8701 11.8048C73.7526 11.8048 73.6743 11.7272 73.5959 11.6495C73.5176 11.5718 73.4393 11.4553 73.3609 11.3388C73.2826 11.1835 73.2434 10.9894 73.2826 10.7952V7.06736H75.9851C76.1417 7.06736 76.2984 6.9897 76.4159 6.8732C76.5334 6.75671 76.6117 6.64021 76.6117 6.48488V4.89279C76.6117 4.73746 76.5334 4.58213 76.4159 4.50447C76.2984 4.38798 76.1809 4.34914 76.0242 4.34914H73.3218V1.82509C73.3218 1.66976 73.2826 1.51443 73.1651 1.43677C73.0476 1.32028 72.9301 1.28144 72.7734 1.28144H70.6976C70.541 1.28144 70.3843 1.32028 70.306 1.43677C70.1885 1.55327 70.1493 1.70859 70.1493 1.82509V4.38798H68.9743C68.8177 4.38798 68.661 4.46564 68.5827 4.58213C68.4652 4.69863 68.426 4.81512 68.426 4.97045V6.56255C68.426 6.71787 68.4652 6.83437 68.5827 6.95086C68.661 7.06736 68.8177 7.14502 68.9743 7.14502H70.1493V11.5718C70.1493 12.1155 70.2276 12.6203 70.4626 13.0863C70.6585 13.4746 70.9326 13.8241 71.246 14.0959C71.5593 14.3677 71.951 14.5619 72.3818 14.6784C72.8126 14.7949 73.2434 14.8725 73.6743 14.8725C74.2618 14.8725 74.8101 14.7949 75.3584 14.6007C75.8676 14.4454 76.3376 14.1347 76.6901 13.7852C76.9251 13.5522 76.9642 13.1639 76.7684 12.8921L76.0634 11.7272ZM87.4216 4.38798H85.3458C85.1892 4.38798 85.0717 4.46564 84.9542 4.5433C84.8367 4.6598 84.7975 4.81512 84.7975 4.97045V5.20344C84.5233 4.89279 84.21 4.6598 83.8575 4.50447C83.3092 4.23265 82.6825 4.11615 82.0559 4.11615C80.7242 4.11615 79.4709 4.6598 78.5309 5.59176C78.0609 6.09657 77.6692 6.67904 77.3951 7.30035C77.0817 7.99932 76.9642 8.77595 76.9642 9.51375C76.9642 10.2904 77.0817 11.0282 77.3951 11.766C77.6692 12.3873 78.0609 12.9698 78.5309 13.4746C79.4709 14.4065 80.7242 14.9502 82.0559 14.9502C82.6825 14.9502 83.3092 14.8337 83.8575 14.5619C84.21 14.3677 84.5625 14.1347 84.7975 13.8629V14.1347C84.7975 14.29 84.8367 14.4065 84.9542 14.523C85.0717 14.6395 85.1892 14.6784 85.3458 14.6784H87.4216C87.735 14.6784 87.97 14.4454 87.97 14.1347V4.97045C87.97 4.81512 87.9308 4.69863 87.8133 4.58213C87.6958 4.42681 87.5783 4.38798 87.4216 4.38798ZM84.6017 10.4457C84.4842 10.7175 84.3275 10.9894 84.1317 11.2223C83.8967 11.4165 83.6617 11.6107 83.3875 11.766C83.1133 11.8825 82.7608 11.9601 82.4475 11.9601C82.1342 11.9601 81.8209 11.8825 81.5467 11.766C81.2725 11.6495 80.9984 11.4553 80.8025 11.2223C80.6067 10.9894 80.4109 10.7175 80.3325 10.4457C80.0975 9.8244 80.0975 9.16427 80.3325 8.54296C80.45 8.27114 80.6067 7.99932 80.8025 7.76633C81.0375 7.53334 81.2725 7.37801 81.5467 7.22268C81.8209 7.10619 82.1342 7.02853 82.4475 7.02853C82.7608 7.02853 83.0742 7.10619 83.3875 7.22268C83.6617 7.33918 83.8967 7.53334 84.1317 7.7275C84.3275 7.96049 84.5233 8.19348 84.6017 8.50413C84.8758 9.16427 84.8758 9.86324 84.6017 10.4457ZM98.7799 11.5718L97.6049 10.6787C97.3699 10.4845 97.174 10.4457 96.9782 10.5234C96.8215 10.601 96.6649 10.7175 96.5474 10.834C96.2732 11.1447 95.9991 11.4165 95.6466 11.6495C95.2941 11.8436 94.9024 11.9601 94.4716 11.9213C94.0016 11.9213 93.5707 11.8048 93.1791 11.533C92.7874 11.2612 92.5133 10.8729 92.3566 10.4457C92.2391 10.1351 92.1999 9.8244 92.1999 9.51375C92.1999 9.2031 92.2391 8.85361 92.3566 8.54296C92.4741 8.27114 92.6308 7.99932 92.8266 7.76633C93.0616 7.53334 93.2966 7.37801 93.5707 7.26152C93.8449 7.14502 94.1974 7.06736 94.5107 7.06736C94.9024 7.06736 95.3332 7.14502 95.6466 7.33918C95.9991 7.57217 96.2732 7.84399 96.5474 8.15464C96.6649 8.27114 96.8215 8.38763 96.9782 8.4653C97.174 8.54296 97.3699 8.50413 97.6049 8.30997L98.7799 7.41684C98.9365 7.30035 99.054 7.18385 99.0932 7.02853C99.1715 6.83437 99.1324 6.64021 99.054 6.48488C98.584 5.78591 97.9574 5.20344 97.2132 4.77629C96.4299 4.34914 95.4899 4.11615 94.4324 4.11615C93.6882 4.11615 92.9441 4.27148 92.2783 4.5433C91.6124 4.81512 91.0249 5.20344 90.5158 5.70825C90.0066 6.21306 89.615 6.79554 89.3408 7.41684C88.7925 8.77595 88.7925 10.3292 89.3408 11.6883C89.615 12.3485 90.0066 12.9309 90.5158 13.3969C91.5733 14.4065 92.9441 14.9502 94.4324 14.9502C95.4899 14.9502 96.4299 14.7172 97.2132 14.29C97.9574 13.8629 98.584 13.2804 99.054 12.5815C99.1715 12.4261 99.1715 12.232 99.0932 12.0378C99.0149 11.8436 98.8974 11.6883 98.7799 11.5718ZM109.786 13.7076L106.535 8.93128L109.316 5.2811C109.433 5.12578 109.472 4.89279 109.433 4.69863C109.394 4.5433 109.237 4.38798 108.924 4.38798H106.731C106.613 4.38798 106.496 4.42681 106.378 4.46564C106.221 4.5433 106.143 4.62097 106.065 4.77629L103.832 7.88282H103.284V0.543643C103.284 0.388316 103.245 0.271821 103.127 0.155327C103.01 0.0388316 102.892 0 102.736 0H100.66C100.503 0 100.386 0.0388316 100.268 0.155327C100.151 0.271821 100.112 0.388316 100.112 0.543643V14.0571C100.112 14.2124 100.19 14.3677 100.268 14.4454C100.386 14.5619 100.503 14.6007 100.66 14.6007H102.736C102.892 14.6007 103.01 14.523 103.127 14.4454C103.245 14.3289 103.284 14.2124 103.284 14.0571V10.4845H103.871L106.3 14.2124C106.456 14.4842 106.731 14.6395 107.005 14.6395H109.316C109.668 14.6395 109.825 14.4842 109.864 14.3289C109.942 14.1347 109.903 13.9017 109.786 13.7076ZM58.1644 4.38798H55.8536C55.6969 4.38798 55.5011 4.42681 55.3836 4.58213C55.2661 4.69863 55.1878 4.81512 55.1878 4.97045L53.4645 11.2612H53.0336L51.1928 4.93162C51.1537 4.81512 51.1145 4.6598 50.997 4.5433C50.8795 4.42681 50.7228 4.34914 50.5662 4.34914H48.177C47.8637 4.34914 47.6679 4.46564 47.5895 4.6598C47.5112 4.85395 47.5112 5.04811 47.5895 5.20344L50.527 14.0959C50.5662 14.2124 50.6445 14.3677 50.762 14.4454C50.8795 14.5619 51.0361 14.6007 51.1928 14.6007H52.4461L52.3286 14.8725L52.0545 15.688C51.9761 15.921 51.8195 16.154 51.5845 16.3481C51.3886 16.5034 51.1536 16.5811 50.8795 16.5811C50.6837 16.5811 50.4487 16.5423 50.2528 16.4646C50.057 16.387 49.8612 16.2705 49.7045 16.154C49.5478 16.0375 49.352 15.9986 49.1953 15.9986H49.1562C48.9212 15.9986 48.7253 16.1151 48.647 16.3093L47.9028 17.3966C47.5895 17.8626 47.7853 18.1732 47.9812 18.3285C48.3728 18.678 48.8428 18.9498 49.352 19.144C49.9003 19.3382 50.4878 19.4158 51.1145 19.4158C52.172 19.4158 53.0728 19.144 53.7386 18.5615C54.4436 17.9402 54.9528 17.1248 55.2269 16.2316L58.6344 5.24227C58.7127 5.04811 58.7127 4.85395 58.6344 4.6598C58.6344 4.50447 58.4777 4.38798 58.1644 4.38798Z" fill="white"/>
</g>
<defs>
<clipPath id="clip0_1265_238">
<rect width="109.901" height="19.4158" fill="white"/>
</clipPath>
</defs>
</svg>
