<svg width="102" height="16" viewBox="0 0 102 16" fill="none" xmlns="http://www.w3.org/2000/svg">
<g clip-path="url(#clip0_359_1037)">
<path d="M18.784 1.52734H6.75032C6.3462 1.52734 6.00195 1.87159 6.00195 2.29067V3.65269C6.00195 4.07178 6.3462 4.41603 6.75032 4.41603H18.784C19.2031 4.41603 19.5324 4.07178 19.5473 3.65269V2.30564C19.5473 1.87159 19.2031 1.52734 18.784 1.52734ZM18.784 9.08581H6.75032C6.55574 9.08581 6.36117 9.16065 6.22646 9.31032C6.07679 9.45999 6.00195 9.6396 6.00195 9.84914V11.2112C6.00195 11.6302 6.3462 11.9745 6.75032 11.9745H18.784C19.2031 11.9745 19.5324 11.6452 19.5473 11.2112V9.84914C19.5324 9.41509 19.2031 9.08581 18.784 9.08581ZM13.5305 12.8576H6.75032C6.55574 12.8576 6.36117 12.9324 6.22646 13.0821C6.09176 13.2317 6.00195 13.4113 6.00195 13.6209V14.9829C6.00195 15.402 6.3462 15.7462 6.75032 15.7462H13.5155C13.9346 15.7462 14.2639 15.402 14.2639 14.9979V13.6359C14.2789 13.1868 13.9496 12.8426 13.5305 12.8576ZM19.5473 5.29909H6.75032C6.55574 5.29909 6.36117 5.37393 6.22646 5.5236C6.09176 5.67327 6.00195 5.85288 6.00195 6.06242V7.42444C6.00195 7.84353 6.3462 8.18778 6.75032 8.18778H19.5324C19.9514 8.18778 20.2807 7.84353 20.2807 7.42444V6.06242C20.2957 5.64334 19.9515 5.31406 19.5473 5.29909Z" fill="#00C3F7"/>
<path d="M33.542 4.57998C33.1678 4.19083 32.7338 3.89149 32.2399 3.68195C31.7459 3.47241 31.2221 3.36763 30.6833 3.36763C30.1594 3.35267 29.6505 3.4724 29.1716 3.69691C28.8573 3.84659 28.5729 4.05613 28.3334 4.31057V4.07109C28.3334 3.95136 28.2885 3.83162 28.2137 3.74181C28.1388 3.65201 28.0191 3.59214 27.8844 3.59214H26.223C26.1033 3.59214 25.9835 3.63704 25.9087 3.74181C25.8189 3.83162 25.774 3.95136 25.789 4.07109V15.2666C25.789 15.3863 25.8339 15.5061 25.9087 15.5959C25.9985 15.6857 26.1033 15.7306 26.223 15.7306H27.9293C28.049 15.7306 28.1538 15.6857 28.2436 15.5959C28.3334 15.5211 28.3933 15.4013 28.3783 15.2666V11.435C28.6178 11.7044 28.9321 11.899 29.2763 12.0187C29.7254 12.1833 30.1893 12.2732 30.6683 12.2732C31.2071 12.2732 31.7459 12.1684 32.2399 11.9588C32.7338 11.7493 33.1828 11.45 33.557 11.0608C33.9461 10.6567 34.2455 10.1777 34.455 9.65388C34.6945 9.07016 34.7993 8.44154 34.7843 7.81291C34.7993 7.18429 34.6795 6.55566 34.455 5.95697C34.2305 5.46305 33.9312 4.9841 33.542 4.57998ZM32.0154 8.63611C31.9255 8.87559 31.7908 9.08513 31.6112 9.2797C31.267 9.65388 30.7731 9.86342 30.2642 9.86342C30.0097 9.86342 29.7553 9.81852 29.5158 9.69878C29.2913 9.59401 29.0818 9.45931 28.9022 9.2797C28.7226 9.10009 28.5878 8.87559 28.498 8.63611C28.3035 8.12722 28.3035 7.57344 28.498 7.06455C28.5878 6.82507 28.7375 6.61553 28.9022 6.43592C29.0818 6.25631 29.2913 6.10664 29.5158 6.00187C29.7553 5.8971 30.0097 5.83723 30.2642 5.83723C30.5336 5.83723 30.7731 5.88213 31.0275 6.00187C31.252 6.10664 31.4616 6.24135 31.6262 6.42095C31.8058 6.60056 31.9255 6.8101 32.0303 7.04958C32.2099 7.57343 32.195 8.12722 32.0154 8.63611ZM43.9293 3.60711H42.238C42.1183 3.60711 41.9985 3.65201 41.9237 3.74181C41.8339 3.83162 41.789 3.95136 41.789 4.08606V4.2956C41.5794 4.04116 41.31 3.84659 41.0257 3.71188C40.5617 3.48737 40.0528 3.3826 39.5439 3.3826C38.4513 3.3826 37.4185 3.81665 36.6402 4.57998C36.2361 4.9841 35.9218 5.46305 35.7123 5.9869C35.4728 6.57063 35.3531 7.19925 35.368 7.84284C35.3531 8.47147 35.4728 9.10009 35.7123 9.69878C35.9368 10.2226 36.2361 10.7016 36.6402 11.1057C37.4036 11.884 38.4513 12.3181 39.5289 12.3181C40.0378 12.333 40.5467 12.2133 41.0107 11.9888C41.2951 11.8391 41.5794 11.6445 41.789 11.4051V11.6296C41.789 11.7493 41.8339 11.869 41.9237 11.9588C42.0135 12.0337 42.1183 12.0935 42.238 12.0935H43.9293C44.049 12.0935 44.1688 12.0486 44.2436 11.9588C44.3334 11.869 44.3783 11.7493 44.3783 11.6296V4.10103C44.3783 3.98129 44.3334 3.86155 44.2586 3.77175C44.1688 3.66698 44.049 3.60711 43.9293 3.60711ZM41.6393 8.63611C41.5495 8.87559 41.4148 9.08513 41.2352 9.2797C41.0556 9.45931 40.861 9.60898 40.6365 9.71375C40.1575 9.93826 39.6038 9.93826 39.1248 9.71375C38.9003 9.60898 38.6908 9.45931 38.5111 9.2797C38.3315 9.10009 38.1968 8.87559 38.107 8.63611C37.9274 8.12722 37.9274 7.57344 38.107 7.06455C38.1968 6.82507 38.3315 6.6305 38.5111 6.43592C38.6908 6.25631 38.8853 6.10664 39.1248 6.00187C39.6038 5.77736 40.1575 5.77736 40.6215 6.00187C40.846 6.10664 41.0556 6.24135 41.2202 6.42095C41.3849 6.60056 41.5196 6.8101 41.6243 7.04958C41.8339 7.57343 41.8339 8.12722 41.6393 8.63611ZM60.7824 7.61833C60.543 7.40879 60.2586 7.22919 59.9592 7.10945C59.6449 6.97474 59.3007 6.88494 58.9714 6.8101L57.6842 6.55566C57.3549 6.49579 57.1155 6.40599 56.9957 6.30122C56.891 6.22638 56.8161 6.10664 56.8161 5.97194C56.8161 5.83723 56.891 5.71749 57.0556 5.61272C57.2801 5.49298 57.5196 5.43311 57.774 5.44808C58.1033 5.44808 58.4326 5.52292 58.7319 5.64266C59.0313 5.77736 59.3157 5.91207 59.5851 6.09168C59.9592 6.33115 60.2885 6.28625 60.513 6.01684L61.1267 5.31338C61.2464 5.19364 61.3063 5.04397 61.3213 4.87933C61.3063 4.69972 61.2165 4.55005 61.0818 4.43031C60.8274 4.2058 60.4083 3.96632 59.8545 3.72685C59.3007 3.48737 58.5972 3.36763 57.774 3.36763C57.2651 3.35267 56.7712 3.4275 56.2923 3.57717C55.8881 3.71188 55.499 3.90646 55.1548 4.1609C54.8404 4.40037 54.601 4.69972 54.4214 5.05893C54.2567 5.40318 54.1669 5.77736 54.1669 6.15154C54.1669 6.85501 54.3765 7.42376 54.7955 7.84284C55.2146 8.26193 55.7684 8.54631 56.4569 8.68101L57.804 8.98036C58.0883 9.02526 58.3877 9.11506 58.6571 9.24976C58.8068 9.30963 58.8966 9.45931 58.8966 9.62395C58.8966 9.77362 58.8217 9.90833 58.6571 10.0281C58.4925 10.1478 58.223 10.2226 57.8638 10.2226C57.5046 10.2226 57.1304 10.1478 56.8012 9.98316C56.4868 9.83349 56.2025 9.63891 55.9331 9.41441C55.8133 9.3246 55.6936 9.24977 55.5439 9.1899C55.3942 9.14499 55.1997 9.1899 55.0051 9.35454L54.2717 9.90833C54.0621 10.058 53.9574 10.3124 54.0172 10.5519C54.0621 10.8064 54.2567 11.0458 54.6309 11.3302C55.5589 11.9588 56.6664 12.2881 57.789 12.2582C58.3128 12.2582 58.8367 12.1983 59.3306 12.0486C59.7647 11.9139 60.1688 11.7194 60.528 11.45C60.8573 11.2105 61.1267 10.8962 61.3063 10.522C61.4859 10.1628 61.5757 9.77362 61.5757 9.36951C61.5907 9.01029 61.5158 8.65108 61.3662 8.3218C61.2165 8.08232 61.0219 7.82788 60.7824 7.61833ZM68.1763 9.66885C68.1014 9.53415 67.9667 9.44434 67.8021 9.41441C67.6524 9.41441 67.4878 9.45931 67.368 9.54911C67.1585 9.68382 66.919 9.75865 66.6796 9.77362C66.6047 9.77362 66.5149 9.75865 66.4401 9.74369C66.3503 9.72872 66.2754 9.68382 66.2156 9.62395C66.1407 9.54911 66.0809 9.45931 66.036 9.36951C65.9761 9.21983 65.9462 9.07016 65.9611 8.92049V5.8522H68.1463C68.281 5.8522 68.4008 5.79233 68.4906 5.70253C68.5804 5.61272 68.6403 5.50795 68.6403 5.37325V4.07109C68.6403 3.93639 68.5954 3.81665 68.4906 3.74181C68.4008 3.65201 68.2811 3.60711 68.1613 3.60711H65.9611V1.51169C65.9611 1.39196 65.9162 1.25725 65.8264 1.18241C65.7366 1.10758 65.6318 1.06268 65.5121 1.04771H63.8058C63.6861 1.04771 63.5664 1.09261 63.4766 1.18241C63.3868 1.27222 63.3269 1.39196 63.3269 1.51169V3.60711H62.354C62.2343 3.60711 62.1145 3.65201 62.0247 3.75678C61.9499 3.84659 61.905 3.96632 61.905 4.08606V5.38821C61.905 5.50795 61.9499 5.62769 62.0247 5.71749C62.0996 5.82227 62.2193 5.86717 62.354 5.86717H63.3269V9.51918C63.3119 9.95323 63.4017 10.3873 63.5813 10.7764C63.746 11.1057 63.9555 11.3901 64.2399 11.6296C64.5093 11.8541 64.8236 12.0187 65.1679 12.1085C65.5121 12.2133 65.8713 12.2732 66.2305 12.2732C66.6945 12.2732 67.1735 12.1983 67.6225 12.0486C68.0416 11.9139 68.4158 11.6745 68.7151 11.3601C68.9097 11.1656 68.9246 10.8513 68.775 10.6268L68.1763 9.66885ZM77.4261 3.60711H75.7348C75.615 3.60711 75.5102 3.65201 75.4204 3.74181C75.3306 3.83162 75.2857 3.95136 75.2857 4.08606V4.2956C75.0762 4.04116 74.8217 3.84659 74.5224 3.71188C74.0584 3.48737 73.5495 3.3826 73.0406 3.3826C71.948 3.3826 70.9153 3.81665 70.137 4.57998C69.7329 4.9841 69.4186 5.46305 69.209 5.9869C68.9695 6.57063 68.8498 7.19925 68.8648 7.82788C68.8498 8.4565 68.9695 9.08513 69.209 9.68382C69.4186 10.2077 69.7478 10.6866 70.137 11.0907C70.9003 11.869 71.9331 12.3031 73.0257 12.3031C73.5346 12.3181 74.0434 12.1983 74.5074 11.9888C74.8068 11.8391 75.0762 11.6445 75.2857 11.4051V11.6296C75.2857 11.7493 75.3306 11.869 75.4204 11.9439C75.5102 12.0337 75.615 12.0786 75.7348 12.0786H77.4261C77.6805 12.0786 77.8751 11.884 77.8751 11.6296V4.10103C77.8751 3.98129 77.8302 3.86155 77.7553 3.77175C77.6805 3.66698 77.5608 3.60711 77.4261 3.60711ZM75.151 8.63611C75.0612 8.87559 74.9265 9.08513 74.7469 9.2797C74.5673 9.45931 74.3727 9.60898 74.1482 9.71375C73.9087 9.81852 73.6543 9.87839 73.3849 9.87839C73.1155 9.87839 72.876 9.81852 72.6365 9.71375C72.412 9.60898 72.2025 9.45931 72.0229 9.2797C71.8433 9.10009 71.7086 8.87559 71.6337 8.63611C71.4541 8.12722 71.4541 7.57344 71.6337 7.06455C71.7235 6.82507 71.8582 6.61553 72.0229 6.43592C72.2025 6.25631 72.412 6.10664 72.6365 6.00187C72.876 5.8971 73.1304 5.83723 73.3849 5.83723C73.6393 5.83723 73.8938 5.88213 74.1482 6.00187C74.3727 6.10664 74.5673 6.24135 74.7469 6.42095C74.9265 6.60056 75.0612 6.8101 75.151 7.04958C75.3456 7.55847 75.3456 8.12722 75.151 8.63611ZM86.7058 9.54911L85.7329 8.80075C85.5533 8.65107 85.3737 8.60617 85.224 8.66604C85.0893 8.72591 84.9696 8.81572 84.8648 8.92049C84.6552 9.17493 84.4008 9.39944 84.1314 9.59401C83.832 9.75865 83.5177 9.84846 83.1884 9.81852C82.7993 9.81852 82.4401 9.71375 82.1258 9.48924C81.8115 9.26473 81.572 8.96539 81.4522 8.59121C81.3624 8.33676 81.3175 8.08232 81.3175 7.82788C81.3175 7.55846 81.3624 7.30402 81.4522 7.03461C81.542 6.79514 81.6618 6.58559 81.8414 6.40599C82.021 6.22638 82.2156 6.07671 82.4401 5.9869C82.6796 5.88213 82.934 5.82226 83.2034 5.82226C83.5327 5.8073 83.862 5.8971 84.1464 6.06174C84.4307 6.24135 84.6702 6.46586 84.8797 6.73527C84.9696 6.84004 85.0893 6.92984 85.224 6.98971C85.3737 7.04958 85.5533 7.00468 85.7329 6.855L86.7058 6.12161C86.8255 6.04677 86.9153 5.92704 86.9602 5.79233C87.0201 5.64266 87.0051 5.47802 86.9153 5.34331C86.5411 4.75959 86.0322 4.28064 85.4186 3.93639C84.775 3.57718 84.0117 3.3826 83.1585 3.3826C82.5598 3.3826 81.9611 3.50234 81.3924 3.72685C80.8536 3.95136 80.3746 4.26567 79.9705 4.66978C79.5664 5.0739 79.2371 5.55286 79.0126 6.09168C78.5486 7.21422 78.5486 8.47147 79.0126 9.59401C79.2371 10.1179 79.5514 10.6118 79.9705 11.0009C80.8236 11.8391 81.9611 12.2881 83.1585 12.2881C84.0117 12.2881 84.775 12.0935 85.4186 11.7343C86.0322 11.3901 86.5561 10.9111 86.9303 10.3124C87.0051 10.1777 87.0201 10.0131 86.9752 9.87839C86.9153 9.75865 86.8255 9.63891 86.7058 9.54911ZM95.7161 11.3003L93.0369 7.37886L95.3269 4.35547C95.4317 4.22077 95.4766 4.02619 95.4167 3.86155C95.3718 3.74182 95.267 3.62208 94.9827 3.62208H93.1716C93.0668 3.62208 92.9621 3.65201 92.8723 3.69691C92.7525 3.75678 92.6627 3.84658 92.6029 3.95136L90.7769 6.51076H90.3428V0.463986C90.3428 0.344248 90.2979 0.224508 90.2081 0.134704C90.1183 0.0449009 90.0135 0 89.8938 0H88.2025C88.0827 0 87.963 0.0449009 87.8732 0.134704C87.7834 0.224508 87.7385 0.329281 87.7385 0.463986V11.6146C87.7385 11.7493 87.7834 11.8541 87.8732 11.9439C87.963 12.0337 88.0827 12.0786 88.2025 12.0786H89.8938C90.0135 12.0786 90.1333 12.0337 90.2081 11.9439C90.2979 11.8541 90.3428 11.7343 90.3428 11.6146V8.66604H90.8218L92.8124 11.7194C92.9321 11.9439 93.1567 12.0786 93.3961 12.0786H95.297C95.5814 12.0786 95.7011 11.9439 95.761 11.8241C95.8358 11.6445 95.8208 11.45 95.7161 11.3003ZM53.5383 3.60711H51.6374C51.4878 3.60711 51.3531 3.65201 51.2483 3.75678C51.1585 3.84659 51.0986 3.95136 51.0687 4.07109L49.6618 9.2797H49.3175L47.8208 4.07109C47.7909 3.96632 47.746 3.86155 47.6711 3.75678C47.5813 3.65201 47.4616 3.59214 47.3269 3.59214H45.3961C45.1416 3.59214 44.992 3.66698 44.9171 3.84659C44.8722 3.99626 44.8722 4.1609 44.9171 4.31057L47.3119 11.6445C47.3568 11.7493 47.4017 11.869 47.4915 11.9439C47.5813 12.0337 47.716 12.0786 47.8507 12.0786H48.8685L48.7787 12.3181L48.5542 12.9916C48.4794 13.2011 48.3596 13.3807 48.18 13.5154C48.0154 13.6352 47.8208 13.71 47.6112 13.695C47.4316 13.695 47.267 13.6501 47.1024 13.5903C46.9377 13.5154 46.788 13.4256 46.6533 13.3209C46.5336 13.2311 46.3839 13.1862 46.2193 13.1862H46.2043C46.0247 13.2011 45.8601 13.2909 45.7703 13.4556L45.1716 14.3386C44.9321 14.7278 45.0668 14.9673 45.2165 15.102C45.5458 15.4013 45.9199 15.6258 46.339 15.7605C46.803 15.9252 47.282 16 47.7609 16C48.629 16 49.3475 15.7605 49.9012 15.2965C50.47 14.7877 50.904 14.1291 51.1136 13.3807L53.8975 4.31057C53.9574 4.14593 53.9723 3.98129 53.9125 3.83162C53.8975 3.72685 53.7927 3.60711 53.5383 3.60711Z" fill="#011B33"/>
</g>
<defs>
<clipPath id="clip0_359_1037">
<rect width="101.781" height="-16" fill="white" transform="translate(0 16)"/>
</clipPath>
</defs>
</svg>
