<svg width="60" height="56" viewBox="0 0 60 56" fill="none" xmlns="http://www.w3.org/2000/svg">
<g clip-path="url(#clip0_237_1811)">
<path d="M38.8236 6.58789V9.88201H21.1765V6.58789H14.1177V50.5095H45.8824V6.58789H38.8236Z" fill="#A4E772"/>
<path d="M50.5883 5.4902H40.0001V4.39216C40.0001 3.78582 39.4732 3.29412 38.8236 3.29412H34.557C34.0334 1.40187 32.1888 0 30.0001 0C27.8114 0 25.9668 1.40187 25.4431 3.29412H21.1765C20.5268 3.29412 20.0001 3.78582 20.0001 4.39216V5.4902H9.41182C8.76218 5.4902 8.23535 5.9819 8.23535 6.58824V54.902C8.23535 55.5083 8.76218 56 9.41182 56H50.5883C51.2379 56 51.7648 55.5083 51.7648 54.902V6.58824C51.7648 5.9819 51.2379 5.4902 50.5883 5.4902ZM22.353 5.4902H26.4706C27.1204 5.4902 27.6471 4.99849 27.6471 4.39216C27.6471 3.18124 28.7026 2.19608 30.0001 2.19608C31.2975 2.19608 32.353 3.18124 32.353 4.39216C32.353 4.99849 32.8798 5.4902 33.5295 5.4902H37.6471V8.78431H22.353V5.4902ZM49.4118 53.8039H10.5883V7.68627H20.0001V9.88235C20.0001 10.4887 20.5268 10.9804 21.1765 10.9804H38.8236C39.4732 10.9804 40.0001 10.4887 40.0001 9.88235V7.68627H49.4118V53.8039Z" fill="#075450"/>
<path d="M35.294 16.4707C34.982 16.4707 34.6829 16.5864 34.4622 16.7923L31.9983 19.0919L29.2442 14.8077C28.8194 14.1467 27.8009 14.0827 27.2942 14.7138L24.5786 18.0932L23.1849 16.7922C22.964 16.5864 22.6649 16.4707 22.3529 16.4707H18.8234C18.1737 16.4707 17.647 16.9623 17.647 17.5687C17.647 18.1752 18.1737 18.6668 18.8234 18.6668H21.8654L23.8738 20.5412C24.3758 21.0098 25.2145 20.9616 25.6469 20.4236L28.1265 17.3379L30.7557 21.4278C31.1493 22.04 32.0554 22.1442 32.5964 21.6394L35.7814 18.6668H41.1764C41.826 18.6668 42.3529 18.1752 42.3529 17.5687C42.3529 16.9623 41.826 16.4707 41.1764 16.4707H35.294Z" fill="#075450"/>
<path d="M29.3204 40.3368C29.7709 40.7242 30.4645 40.7243 30.9151 40.3368C38.073 34.1791 37.822 34.3967 37.8625 34.3595C38.9418 33.3521 39.5363 32.0128 39.5363 30.5882C39.5363 29.1636 38.9418 27.8243 37.8625 26.8169C35.7367 24.8328 32.3597 24.7395 30.1177 26.5267C27.8749 24.7421 24.4921 24.8393 22.373 26.8169C20.1452 28.8963 20.1452 32.2799 22.373 34.3594C22.4052 34.3897 22.0632 34.094 29.3204 40.3368ZM24.0366 28.3698C25.3471 27.1467 27.4796 27.1465 28.7901 28.3696L29.2854 28.8321C29.7463 29.2624 30.4918 29.2592 30.9494 28.8323L31.445 28.3698C32.7583 27.1439 34.885 27.1437 36.1985 28.3698C37.5056 29.5898 37.5136 31.5635 36.2142 32.7919L30.1177 38.0361L24.021 32.7919C22.7263 31.5674 22.7314 29.5881 24.0366 28.3698Z" fill="#075450"/>
<path d="M41.1767 43.9219H20.0002C19.3504 43.9219 18.8237 44.4136 18.8237 45.0199C18.8237 45.6263 19.3504 46.118 20.0002 46.118H41.1767C41.8263 46.118 42.3531 45.6263 42.3531 45.0199C42.3531 44.4136 41.8263 43.9219 41.1767 43.9219Z" fill="#075450"/>
</g>
<defs>
<clipPath id="clip0_237_1811">
<rect width="60" height="56" fill="white"/>
</clipPath>
</defs>
</svg>
