<svg width="57" height="56" viewBox="0 0 57 56" fill="none" xmlns="http://www.w3.org/2000/svg">
<g clip-path="url(#clip0_237_2012)">
<path d="M15.4167 27.7374C13.1184 34.5679 13.7838 32.5903 13.659 32.9611L4.88821 30.7452L10.4084 15.0706C11.0832 13.0647 13.2565 11.9852 15.2613 12.66L15.7535 12.8252C17.7584 13.5 18.4081 14.5566 18.9156 16.6708L19.6757 24.6355L23.2129 25.6363C24.5407 26.0114 25.2167 27.4869 24.6337 28.7381C24.5024 29.0214 24.3176 29.2642 24.0977 29.46V29.4611C23.4969 29.9976 22.6521 30.1728 21.8895 29.915L15.4167 27.7374Z" fill="#A4E772"/>
<path d="M43.2953 24.1677L36.2712 26.7249C35.1449 27.1361 33.87 26.6241 33.352 25.5163C32.7986 24.3285 33.3301 22.9175 34.5289 22.3893L40.2776 19.8583L43.5381 12.5521H43.537C44.6931 10.7102 45.6457 9.91504 47.7611 9.91504H48.2795C50.3959 9.91504 52.112 11.6311 52.112 13.7475V26.3957L52.1032 29.6682H43.3259V24.2508L43.2953 24.1677Z" fill="#A4E772"/>
<path d="M1.59375 54.9072H55.4062" stroke="#075450" stroke-width="2.34375" stroke-miterlimit="10" stroke-linecap="round" stroke-linejoin="round"/>
<path d="M52.1052 5.65517C52.1864 3.22063 50.2785 1.18129 47.844 1.10017C45.4095 1.01905 43.3701 2.92688 43.289 5.36141C43.2079 7.79595 45.1157 9.83529 47.5502 9.91641C49.9848 9.99753 52.0241 8.08971 52.1052 5.65517Z" stroke="#075450" stroke-width="2.34375" stroke-miterlimit="10" stroke-linecap="round" stroke-linejoin="round"/>
<path d="M21.4058 10.0608C22.1763 7.7498 20.9274 5.25172 18.6164 4.48122C16.3054 3.71071 13.8073 4.95955 13.0368 7.27059C12.2663 9.58162 13.5151 12.0797 15.8262 12.8502C18.1372 13.6207 20.6353 12.3719 21.4058 10.0608Z" stroke="#075450" stroke-width="2.34375" stroke-miterlimit="10" stroke-linecap="round" stroke-linejoin="round"/>
<path d="M22.9 29.8672V55.3122" stroke="#075450" stroke-width="2.34375" stroke-miterlimit="10" stroke-linecap="round" stroke-linejoin="round"/>
<path d="M52.1031 29.6689V32.8386C52.1031 34.336 51.5081 35.7721 50.4483 36.8319C49.3895 37.8907 48.7945 39.3268 48.7945 40.8252V54.9072" stroke="#075450" stroke-width="2.34375" stroke-miterlimit="10" stroke-linecap="round" stroke-linejoin="round"/>
<path d="M43.3258 54.9072V29.6689" stroke="#075450" stroke-width="2.34375" stroke-miterlimit="10" stroke-linecap="round" stroke-linejoin="round"/>
<path d="M52.103 29.6691L52.1118 26.3966V13.7485C52.1118 11.6321 50.3957 9.91602 48.2793 9.91602H47.7609C45.6455 9.91602 44.6929 10.7112 43.5368 12.553" stroke="#075450" stroke-width="2.34375" stroke-miterlimit="10" stroke-linecap="round" stroke-linejoin="round"/>
<path d="M43.3258 24.252V29.6693" stroke="#075450" stroke-width="2.34375" stroke-miterlimit="10" stroke-linecap="round" stroke-linejoin="round"/>
<path d="M43.5378 12.5527L40.2773 19.859L34.5286 22.3899C33.3298 22.9182 32.7983 24.3291 33.3517 25.517C33.8698 26.6249 35.1447 27.1368 36.2709 26.7255L43.295 24.1684L43.3256 24.1574L45.8937 19.1415" stroke="#075450" stroke-width="2.34375" stroke-miterlimit="10" stroke-linecap="round" stroke-linejoin="round"/>
<path d="M4.88821 30.7461V35.0391C4.88821 36.5364 5.48321 37.9736 6.54306 39.0323C7.60181 40.0911 8.19681 41.5272 8.19681 43.0256V54.907" stroke="#075450" stroke-width="2.34375" stroke-miterlimit="10" stroke-linecap="round" stroke-linejoin="round"/>
<path d="M13.6656 54.9068V32.9629" stroke="#075450" stroke-width="2.34375" stroke-miterlimit="10" stroke-linecap="round" stroke-linejoin="round"/>
<path d="M4.88821 30.7461L10.4084 15.0716C11.0832 13.0657 13.2565 11.9861 15.2613 12.661L15.7535 12.8261C17.7584 13.501 18.4081 14.5575 18.9156 16.6718" stroke="#075450" stroke-width="2.34375" stroke-miterlimit="10" stroke-linecap="round" stroke-linejoin="round"/>
<path d="M15.3858 27.8281L13.6587 32.9622" stroke="#075450" stroke-width="2.34375" stroke-miterlimit="10" stroke-linecap="round" stroke-linejoin="round"/>
<path d="M18.9156 16.6719L19.6758 24.6366L23.213 25.6373C24.5408 26.0125 25.2167 27.488 24.6338 28.7392C24.5025 29.0225 24.3177 29.2653 24.0978 29.4611V29.4622C23.497 29.9987 22.6522 30.1739 21.8896 29.9161L15.4167 27.7384L14.5811 22.1658" stroke="#075450" stroke-width="2.34375" stroke-miterlimit="10" stroke-linecap="round" stroke-linejoin="round"/>
<path d="M32.3437 5.87136C32.3437 5.87136 33.3585 4.38867 35.3638 4.38867C37.1518 4.38867 38.3839 5.91073 38.3839 7.68337C38.3839 9.73514 36.7043 12.1627 32.3436 14.2727C27.9832 12.1627 26.3034 9.73514 26.3034 7.68337C26.3034 5.91073 27.5356 4.38867 29.3235 4.38867C31.329 4.38867 32.3437 5.87136 32.3437 5.87136Z" stroke="#075450" stroke-width="2.34375" stroke-miterlimit="10" stroke-linecap="round" stroke-linejoin="round"/>
</g>
<defs>
<clipPath id="clip0_237_2012">
<rect width="56" height="56" fill="white" transform="translate(0.5)"/>
</clipPath>
</defs>
</svg>
