<svg width="56" height="56" viewBox="0 0 56 56" fill="none" xmlns="http://www.w3.org/2000/svg">
<g clip-path="url(#clip0_269_1216)">
<path d="M38.5449 43.5164C38.1868 43.2269 33.9559 39.8092 32.9166 39.0146C32.2706 38.5205 31.2503 37.8942 29.8492 38.16C28.446 38.4263 27.0135 39.5388 25.4703 41.5612C22.6935 45.4439 19.0721 42.4254 16.2983 39.6996C13.5723 36.9247 10.5533 33.3049 14.4367 30.5277C16.4591 28.9842 17.5716 27.5519 17.8378 26.1485C18.1035 24.7482 17.4773 23.7273 16.9833 23.0812C16.1887 22.0421 12.7713 17.8115 12.4816 17.4529C11.5653 16.2224 10.0814 15.6724 8.40468 15.9439C5.1991 16.463 2.03554 19.6882 0.711515 23.7871C-1.76477 32.3721 2.53366 40.0304 9.18529 46.8124C15.8916 53.3903 23.6114 57.7949 32.2108 55.2864C36.3098 53.9622 39.5351 50.7986 40.0539 47.5931C40.3251 45.917 39.7752 44.4327 38.5449 43.5164ZM30.257 40.3098C30.6957 40.2267 31.0564 40.3466 31.5875 40.7527C32.6266 41.5473 37.1421 45.1961 37.1876 45.2328C38.3507 46.0116 37.9646 47.7319 37.2788 48.8818L28.2512 41.6603C29.1684 40.7083 29.8289 40.3911 30.257 40.3098ZM8.75434 18.1039C9.50825 17.963 10.3126 18.1558 10.7341 18.77C10.8102 18.8674 14.4129 23.3238 15.2451 24.4104C16.171 25.5359 15.6204 26.4546 14.3289 27.7549L7.10549 18.725C7.67385 18.3978 8.2351 18.188 8.75434 18.1039ZM31.5381 53.2041C18.1423 58.3946 -6.74347 32.8753 5.38608 20.0784L12.6506 29.1598C8.15217 32.9651 11.1627 37.7717 14.745 41.2409C18.2142 44.8289 23.0395 47.8544 26.8457 43.3381L35.9279 50.6032C34.8521 51.6612 33.3687 52.6128 31.5381 53.2041Z" fill="#A4E772"/>
<path fill-rule="evenodd" clip-rule="evenodd" d="M39.2526 0.000902717C48.5002 0.000902717 55.9969 7.49757 55.9969 16.7452C56.1304 29.7122 41.4064 37.8697 30.5111 31.0286C28.7184 31.5096 26.9257 31.9906 25.1327 32.471C24.1757 32.7411 23.2593 31.8655 23.5214 30.8814C24.0037 29.0817 24.4861 27.2837 24.9685 25.4857C18.1275 14.5876 26.2881 -0.132681 39.2526 0.000902717ZM30.8774 17.7777C31.8721 17.7777 32.8669 17.399 33.6242 16.6417L39.1495 11.1163C40.652 9.6759 40.6523 7.06297 39.1496 5.62232C37.6349 4.10772 35.1706 4.10761 33.6559 5.62232L28.1304 11.1477C25.6858 13.5811 27.4643 17.801 30.8774 17.7777ZM35.2031 7.16964C35.8645 6.50807 36.9409 6.50807 37.6024 7.16964L37.6025 7.16975C38.2562 7.79599 38.2562 8.943 37.6024 9.56912L35.6134 11.5582L33.2141 9.15874L35.2031 7.16964ZM29.6777 12.6949L31.6668 10.7058L34.0661 13.1053L32.077 15.0944C30.4274 16.6239 28.1487 14.3437 29.6777 12.6949ZM39.3584 16.8513C40.8024 9.51178 51.2971 10.3718 51.5099 17.8619C51.5641 20.7774 49.2743 23.4659 46.4032 23.8961C44.9988 31.202 34.4559 30.3879 34.252 22.8852C34.252 19.8563 36.4647 17.3346 39.3584 16.8513ZM36.5951 23.9792C37.07 25.6152 38.5822 26.8145 40.3692 26.8145C42.5358 26.8145 44.2985 25.0518 44.2985 22.8853C44.2004 18.3293 37.9258 17.4868 36.5951 21.7911H40.3692C40.9734 21.7911 41.4633 22.281 41.4633 22.8852C41.4633 23.4893 40.9734 23.9792 40.3692 23.9792H36.5951ZM46.3653 21.6699C47.0433 21.4977 47.6653 21.1459 48.1708 20.6404C49.6953 19.1777 49.6951 16.546 48.1707 15.0837C46.0765 12.9334 42.2849 13.9794 41.5844 16.8892C42.4119 17.0567 43.1795 17.3917 43.85 17.8572L44.6189 17.0883C45.0465 16.6612 45.7391 16.6613 46.1662 17.0884C46.5934 17.5158 46.5934 18.2084 46.1661 18.6356L45.3973 19.4044C45.8628 20.0748 46.1978 20.8423 46.3653 21.6699Z" fill="#A4E772"/>
</g>
<defs>
<clipPath id="clip0_269_1216">
<rect width="56" height="56" fill="white"/>
</clipPath>
</defs>
</svg>
