<svg width="56" height="56" viewBox="0 0 56 56" fill="none" xmlns="http://www.w3.org/2000/svg">
<path d="M21.9951 29.374H34.0066V48.3704H21.9951V29.374Z" fill="#A4E772"/>
<path d="M21.5205 19.7212H24.5039V22.7046C24.5039 23.3087 24.9937 23.7984 25.5977 23.7984H30.4008C31.0047 23.7984 31.4945 23.3087 31.4945 22.7046V19.7212H34.4779C35.0819 19.7212 35.5717 19.2315 35.5717 18.6274V13.8242C35.5717 13.2202 35.0819 12.7305 34.4779 12.7305H31.4945V9.74707C31.4945 9.14299 31.0047 8.65332 30.4008 8.65332H25.5977C24.9937 8.65332 24.5039 9.14299 24.5039 9.74707V12.7305H21.5205C20.9165 12.7305 20.4268 13.2202 20.4268 13.8242V18.6274C20.4268 19.2315 20.9164 19.7212 21.5205 19.7212ZM22.6143 14.918H25.5977C26.2016 14.918 26.6914 14.4283 26.6914 13.8242V10.8408H29.307V13.8242C29.307 14.4283 29.7968 14.918 30.4008 14.918H33.3842V17.5337H30.4008C29.7968 17.5337 29.307 18.0234 29.307 18.6274V21.6109H26.6914V18.6274C26.6914 18.0234 26.2016 17.5337 25.5977 17.5337H22.6143V14.918Z" fill="#A4E772"/>
<path d="M54.9062 47.2785H53.9545V22.3225C53.9545 21.7184 53.4647 21.2287 52.8607 21.2287H41.8049V4.16992H41.864C42.468 4.16992 42.9578 3.68025 42.9578 3.07617C42.9578 2.47209 42.468 1.98242 41.864 1.98242H14.136C13.532 1.98242 13.0422 2.47209 13.0422 3.07617C13.0422 3.68025 13.532 4.16992 14.136 4.16992H14.1951V21.2287H3.13928C2.53531 21.2287 2.04553 21.7184 2.04553 22.3225V47.2785H1.09375C0.489781 47.2785 0 47.7682 0 48.3723V52.9223C0 53.5264 0.489781 54.016 1.09375 54.016H54.9062C55.5102 54.016 56 53.5264 56 52.9223V48.3723C56 47.7682 55.5102 47.2785 54.9062 47.2785ZM51.767 23.4162V29.6785H47.7292C47.1252 29.6785 46.6354 30.1681 46.6354 30.7722C46.6354 31.3763 47.1252 31.866 47.7292 31.866H51.767V38.7264H47.7292C47.1252 38.7264 46.6354 39.2161 46.6354 39.8202C46.6354 40.4242 47.1252 40.9139 47.7292 40.9139H51.767V47.2785H41.8049V23.4162H51.767ZM39.6174 4.16992V47.2785H16.3826V4.16992H39.6174ZM4.23303 40.9139H8.27083C8.8748 40.9139 9.36458 40.4242 9.36458 39.8202C9.36458 39.2161 8.8748 38.7264 8.27083 38.7264H4.23303V31.866H8.27083C8.8748 31.866 9.36458 31.3763 9.36458 30.7722C9.36458 30.1681 8.8748 29.6785 8.27083 29.6785H4.23303V23.4162H14.1951V47.2785H4.23303V40.9139ZM53.8125 51.8285H2.1875V49.466H53.8125V51.8285Z" fill="#A4E772"/>
</svg>
