<svg width="0" height="0" class="hidden">
  <symbol fill="none" xmlns="http://www.w3.org/2000/svg" viewBox="0 0 52 52" id="care-givers">
    <g clip-path="url(#clip0_445_1052)">
      <path fill-rule="evenodd" clip-rule="evenodd" d="M40.9434 18.58C48.9883 4.6457 34.1942 -4.61436 25.999 3.58096C17.8037 -4.61436 3.00957 4.6457 11.0546 18.58C14.7571 24.993 22.2247 30.8727 25.999 31.884C29.7733 30.8726 37.2407 24.993 40.9434 18.58Z" fill="#FFBEBC"></path>
      <path d="M51.8717 36.6323C51.4621 35.2228 49.9672 33.9403 47.654 34.4545C47.6376 34.4561 38.0263 36.7807 38.0084 36.7834C37.7435 35.2549 36.2325 34.0632 34.681 34.2377C33.6199 34.3343 26.9382 35.0957 25.8298 35.1983C24.7025 35.3023 23.2274 35.0806 21.5192 34.8237C18.7015 34.4001 15.5079 33.9199 12.304 34.642C8.5031 35.4988 5.59764 37.854 3.42185 41.8425L0.395837 47.1864C-0.1312 48.1343 -0.132012 49.2787 0.393805 50.1726C0.879402 50.9984 1.73745 51.4913 2.68904 51.4913C2.68924 51.4914 13.2994 51.4911 13.2997 51.4913C15.9145 51.5934 16.2408 50.2218 17.4591 48.3728L23.517 48.6617C27.9925 48.8752 29.4211 48.6481 33.7067 47.0412C37.023 45.7977 41.1669 44.1016 44.4965 42.7387C46.8807 41.7629 48.9397 40.9201 49.713 40.6497C51.6862 39.9441 52.2972 38.0904 51.8717 36.6323ZM49.0372 38.734C44.9945 40.2628 37.5367 43.4695 32.9935 45.1391C28.9591 46.6517 27.8193 46.8333 23.6138 46.6326L16.9635 46.3155C16.5946 46.2991 16.2505 46.4791 16.0555 46.7891L14.857 48.6938C14.5994 49.1032 14.4532 49.2869 14.3357 49.3493C14.151 49.4473 13.6845 49.4598 13.2992 49.4598H2.68904C2.00752 49.424 1.89356 48.672 2.16739 48.1804C2.17541 48.1659 5.19422 42.8353 5.20122 42.8219C9.30996 35.4541 15.0124 35.8805 21.217 36.8325C25.1597 37.512 26.0396 37.2256 30.459 36.7389C32.3611 36.5282 34.3281 36.3102 34.8678 36.2603C35.4547 36.1978 35.9966 36.7108 36.0317 37.2982C36.0493 37.501 36.096 38.0398 34.7439 38.6251C31.9394 39.8394 28.9603 40.8576 26.5703 41.4189C26.0242 41.5471 25.6855 42.0938 25.8137 42.6398C25.942 43.1859 26.4888 43.5244 27.0347 43.3964C29.5367 42.8088 32.6407 41.7493 35.5511 40.4892C36.5657 40.0498 37.1938 39.5203 37.5686 38.9791L48.1031 36.4355C49.0433 36.2291 49.7219 36.5142 49.9209 37.199C50.0799 37.7457 49.8679 38.4315 49.0372 38.734Z" fill="#075450"></path>
      <path d="M6.10883 17.2096H19.7508C20.1582 17.2096 20.5262 16.9663 20.6856 16.5914L22.8749 11.4424L28.1883 23.9385C28.3478 24.3134 28.7156 24.5568 29.123 24.5568C29.5304 24.5568 29.8983 24.3134 30.0578 23.9385L32.9188 17.2096H45.8892C47.231 17.1618 47.2383 15.2292 45.8892 15.1783H32.2471C31.8397 15.1783 31.4718 15.4216 31.3123 15.7965L29.123 20.9455L23.8096 8.4493C23.6501 8.07441 23.2823 7.83105 22.8749 7.83105C22.4675 7.83105 22.0995 8.07441 21.9401 8.4493L19.0791 15.1782H6.10883C4.76397 15.2275 4.76244 17.1597 6.10883 17.2096Z" fill="#075450"></path>
    </g>
    <defs>
      <clipPath id="clip0_445_1052">
        <rect width="52" height="52" fill="white"></rect>
      </clipPath>
    </defs>
  </symbol>
  <symbol fill="none" xmlns="http://www.w3.org/2000/svg" viewBox="0 0 56 56" id="cities-covered">
    <path d="M21.9951 29.374H34.0066V48.3704H21.9951V29.374Z" fill="#A4E772"></path>
    <path d="M21.5205 19.7212H24.5039V22.7046C24.5039 23.3087 24.9937 23.7984 25.5977 23.7984H30.4008C31.0047 23.7984 31.4945 23.3087 31.4945 22.7046V19.7212H34.4779C35.0819 19.7212 35.5717 19.2315 35.5717 18.6274V13.8242C35.5717 13.2202 35.0819 12.7305 34.4779 12.7305H31.4945V9.74707C31.4945 9.14299 31.0047 8.65332 30.4008 8.65332H25.5977C24.9937 8.65332 24.5039 9.14299 24.5039 9.74707V12.7305H21.5205C20.9165 12.7305 20.4268 13.2202 20.4268 13.8242V18.6274C20.4268 19.2315 20.9164 19.7212 21.5205 19.7212ZM22.6143 14.918H25.5977C26.2016 14.918 26.6914 14.4283 26.6914 13.8242V10.8408H29.307V13.8242C29.307 14.4283 29.7968 14.918 30.4008 14.918H33.3842V17.5337H30.4008C29.7968 17.5337 29.307 18.0234 29.307 18.6274V21.6109H26.6914V18.6274C26.6914 18.0234 26.2016 17.5337 25.5977 17.5337H22.6143V14.918Z" fill="#A4E772"></path>
    <path d="M54.9062 47.2785H53.9545V22.3225C53.9545 21.7184 53.4647 21.2287 52.8607 21.2287H41.8049V4.16992H41.864C42.468 4.16992 42.9578 3.68025 42.9578 3.07617C42.9578 2.47209 42.468 1.98242 41.864 1.98242H14.136C13.532 1.98242 13.0422 2.47209 13.0422 3.07617C13.0422 3.68025 13.532 4.16992 14.136 4.16992H14.1951V21.2287H3.13928C2.53531 21.2287 2.04553 21.7184 2.04553 22.3225V47.2785H1.09375C0.489781 47.2785 0 47.7682 0 48.3723V52.9223C0 53.5264 0.489781 54.016 1.09375 54.016H54.9062C55.5102 54.016 56 53.5264 56 52.9223V48.3723C56 47.7682 55.5102 47.2785 54.9062 47.2785ZM51.767 23.4162V29.6785H47.7292C47.1252 29.6785 46.6354 30.1681 46.6354 30.7722C46.6354 31.3763 47.1252 31.866 47.7292 31.866H51.767V38.7264H47.7292C47.1252 38.7264 46.6354 39.2161 46.6354 39.8202C46.6354 40.4242 47.1252 40.9139 47.7292 40.9139H51.767V47.2785H41.8049V23.4162H51.767ZM39.6174 4.16992V47.2785H16.3826V4.16992H39.6174ZM4.23303 40.9139H8.27083C8.8748 40.9139 9.36458 40.4242 9.36458 39.8202C9.36458 39.2161 8.8748 38.7264 8.27083 38.7264H4.23303V31.866H8.27083C8.8748 31.866 9.36458 31.3763 9.36458 30.7722C9.36458 30.1681 8.8748 29.6785 8.27083 29.6785H4.23303V23.4162H14.1951V47.2785H4.23303V40.9139ZM53.8125 51.8285H2.1875V49.466H53.8125V51.8285Z" fill="#A4E772"></path>
  </symbol>
  <symbol fill="none" xmlns="http://www.w3.org/2000/svg" viewBox="0 0 57 56" id="companionship">
    <g clip-path="url(#clip0_237_2037)">
      <path d="M11.0733 22.5047H5.5843V20.2785C5.5843 15.7462 9.25823 12.0723 13.7905 12.0723H31.3007C26.7673 12.0723 23.0934 15.7462 23.0934 20.2785V22.5047V31.8502C23.0934 32.7742 23.5494 33.591 24.2481 34.0874V34.5947H11.0733V31.8502V22.5047Z" fill="#A4E772"></path>
      <path d="M28.5835 22.5047H23.0934V20.2785C23.0934 15.7462 26.7673 12.0723 31.3007 12.0723H39.04C42.6078 12.0723 45.6421 14.3477 46.7738 17.5252C47.08 18.3857 47.2473 19.313 47.2473 20.2785V22.5047H41.7572V31.8502V34.2284V34.5947H28.5835V31.8502V22.5047Z" fill="#A4E772"></path>
      <path d="M49.447 36.2764H49.8045C50.6946 36.2764 51.4173 36.9991 51.4173 37.8892V42.5734C51.4173 43.4646 50.6946 44.1862 49.8045 44.1862H41.7569H41.2823C40.3912 44.1862 39.6695 43.4646 39.6695 42.5734V37.8892C39.6695 36.9991 40.3912 36.2764 41.2823 36.2764H41.7569H49.447Z" stroke="#075450" stroke-width="2.34306" stroke-miterlimit="10" stroke-linecap="round" stroke-linejoin="round"></path>
      <path d="M41.7569 34.2283C41.7569 32.9326 42.8077 31.8818 44.1034 31.8818H47.1005C47.1486 31.8818 47.1978 31.8829 47.2448 31.8873C48.4749 31.9606 49.447 32.9807 49.447 34.2283V36.2763" stroke="#075450" stroke-width="2.34306" stroke-miterlimit="10" stroke-linecap="round" stroke-linejoin="round"></path>
      <path d="M41.7568 34.5959V34.5947" stroke="#075450" stroke-width="2.34306" stroke-miterlimit="10" stroke-linecap="round" stroke-linejoin="round"></path>
      <path d="M35.2521 12.0358C38.2739 12.0358 40.7236 9.58613 40.7236 6.5643C40.7236 3.54246 38.2739 1.09277 35.2521 1.09277C32.2302 1.09277 29.7805 3.54246 29.7805 6.5643C29.7805 9.58613 32.2302 12.0358 35.2521 12.0358Z" stroke="#075450" stroke-width="2.34306" stroke-miterlimit="10" stroke-linecap="round" stroke-linejoin="round"></path>
      <path d="M28.5832 34.5941V31.8496" stroke="#075450" stroke-width="2.34306" stroke-miterlimit="10" stroke-linecap="round" stroke-linejoin="round"></path>
      <path d="M41.7569 20.334V22.5044V31.85V34.2282V34.5945" stroke="#075450" stroke-width="2.34306" stroke-miterlimit="10" stroke-linecap="round" stroke-linejoin="round"></path>
      <path d="M39.0398 12.0723C42.6077 12.0723 45.642 14.3477 46.7737 17.5252C47.0798 18.3857 47.2471 19.313 47.2471 20.2785V22.5047V31.8502" stroke="#075450" stroke-width="2.34306" stroke-miterlimit="10" stroke-linecap="round" stroke-linejoin="round"></path>
      <path d="M28.5831 20.3342V22.5047V31.8502C28.5831 32.6091 28.2758 33.2946 27.7794 33.7921C27.2819 34.2886 26.5952 34.5958 25.8375 34.5958C25.2448 34.5958 24.6959 34.4078 24.2476 34.0874C23.5489 33.591 23.093 32.7742 23.093 31.8502V22.5047V20.2785C23.093 15.7462 26.7669 12.0723 31.3002 12.0723" stroke="#075450" stroke-width="2.34306" stroke-miterlimit="10" stroke-linecap="round" stroke-linejoin="round"></path>
      <path d="M41.7569 36.2763V34.5957" stroke="#075450" stroke-width="2.34306" stroke-miterlimit="10" stroke-linecap="round" stroke-linejoin="round"></path>
      <path d="M41.7569 44.1855V51.6613C41.7569 52.5568 41.3939 53.3682 40.8067 53.9553C40.2196 54.5425 39.4093 54.9055 38.5138 54.9055C36.7217 54.9055 35.2696 53.4535 35.2696 51.6613V51.5618" stroke="#075450" stroke-width="2.34306" stroke-miterlimit="10" stroke-linecap="round" stroke-linejoin="round"></path>
      <path d="M35.2695 40.0803V51.5625C35.2695 52.4853 34.8955 53.3218 34.2897 53.9264C33.6851 54.5322 32.8497 54.9062 31.9257 54.9062C30.08 54.9062 28.5831 53.4093 28.5831 51.5625V34.5957" stroke="#075450" stroke-width="2.34306" stroke-miterlimit="10" stroke-linecap="round" stroke-linejoin="round"></path>
      <path d="M28.5831 22.5049H23.093" stroke="#075450" stroke-width="2.34306" stroke-miterlimit="10" stroke-linecap="round" stroke-linejoin="round"></path>
      <path d="M47.247 22.5049H41.7569" stroke="#075450" stroke-width="2.34306" stroke-miterlimit="10" stroke-linecap="round" stroke-linejoin="round"></path>
      <path d="M17.7419 12.0358C20.7637 12.0358 23.2134 9.58613 23.2134 6.5643C23.2134 3.54246 20.7637 1.09277 17.7419 1.09277C14.72 1.09277 12.2704 3.54246 12.2704 6.5643C12.2704 9.58613 14.72 12.0358 17.7419 12.0358Z" stroke="#075450" stroke-width="2.34306" stroke-miterlimit="10" stroke-linecap="round" stroke-linejoin="round"></path>
      <path d="M11.073 34.5941V31.8496" stroke="#075450" stroke-width="2.34306" stroke-miterlimit="10" stroke-linecap="round" stroke-linejoin="round"></path>
      <path d="M24.2478 34.0869V34.5943" stroke="#075450" stroke-width="2.34306" stroke-miterlimit="10" stroke-linecap="round" stroke-linejoin="round"></path>
      <path d="M17.7591 51.5625V51.662C17.7591 53.4541 19.2123 54.9062 21.0033 54.9062C21.8999 54.9062 22.7102 54.5431 23.2973 53.956C23.8845 53.3688 24.2475 52.5575 24.2475 51.662V34.5957" stroke="#075450" stroke-width="2.34306" stroke-miterlimit="10" stroke-linecap="round" stroke-linejoin="round"></path>
      <path d="M11.0731 34.5957V51.5625C11.0731 53.4093 12.57 54.9062 14.4168 54.9062C15.3397 54.9062 16.175 54.5322 16.7808 53.9264C17.3855 53.3218 17.7594 52.4853 17.7594 51.5625V40.0803" stroke="#075450" stroke-width="2.34306" stroke-miterlimit="10" stroke-linecap="round" stroke-linejoin="round"></path>
      <path d="M11.073 22.5049H5.58402H5.58293" stroke="#075450" stroke-width="2.34306" stroke-miterlimit="10" stroke-linecap="round" stroke-linejoin="round"></path>
      <path d="M46.7735 17.525H47.2754C48.0331 17.525 48.7198 17.2177 49.2162 16.7213C49.7126 16.2249 50.0199 15.5382 50.0199 14.7805C50.0199 13.265 48.7909 12.036 47.2797 12.0721H39.0397H31.3004H13.7902C9.25791 12.0721 5.58398 15.746 5.58398 20.2783V22.5045V31.85C5.58398 33.3666 6.81191 34.5956 8.32849 34.5956C9.08624 34.5956 9.77182 34.2884 10.2693 33.7919C10.7657 33.2944 11.073 32.6089 11.073 31.85V22.5045V20.334" stroke="#075450" stroke-width="2.34306" stroke-miterlimit="10" stroke-linecap="round" stroke-linejoin="round"></path>
    </g>
    <defs>
      <clipPath id="clip0_237_2037">
        <rect width="56" height="56" fill="white" transform="translate(0.5)"></rect>
      </clipPath>
    </defs>
  </symbol>
  <symbol fill="none" xmlns="http://www.w3.org/2000/svg" viewBox="0 0 56 56" id="doctor-nationwide">
    <path d="M23.3628 31.8477L23.0722 32.9414H19.7866C14.3429 32.9414 8.83594 37.3667 8.83594 42.8256V54.9061H26.3534L24.0478 31.8477H23.3628Z" fill="#009855"></path>
    <path d="M47.163 54.9061V42.8256C47.163 37.3667 41.656 32.9414 36.2124 32.9414H32.9268L32.6362 31.8477H31.9511L29.6455 54.9061H47.163Z" fill="#009855"></path>
    <path d="M24.167 15.375C23.563 15.375 23.0732 15.8647 23.0732 16.4688V17.567C23.0732 18.1711 23.563 18.6607 24.167 18.6607C24.7711 18.6607 25.2607 18.1711 25.2607 17.567V16.4688C25.2607 15.8647 24.7711 15.375 24.167 15.375Z" fill="#A4E772"></path>
    <path d="M31.832 18.6607C32.4361 18.6607 32.9258 18.1711 32.9258 17.567V16.4688C32.9258 15.8647 32.4361 15.375 31.832 15.375C31.2281 15.375 30.7383 15.8647 30.7383 16.4688V17.567C30.7383 18.1711 31.2281 18.6607 31.832 18.6607Z" fill="#A4E772"></path>
    <path d="M36.2125 31.8478H33.7679L33.114 29.3873C36.2658 27.5937 38.4081 24.1989 38.4283 20.312C38.4283 19.7088 38.428 7.76989 38.428 7.50006C38.4281 3.36448 35.0636 0 30.928 0H15.4061C14.8021 0 14.3123 0.489672 14.3123 1.09375V4.57144C14.3123 7.13355 15.6045 9.3987 17.5706 10.7522V20.3177C17.5909 24.2007 19.7331 27.5941 22.8848 29.3874L22.2311 31.8478H19.7866C13.8239 31.8478 7.74219 36.6719 7.74219 42.8258V54.9062C7.74219 55.5103 8.23197 56 8.83594 56H47.1631C47.7671 56 48.2569 55.5103 48.2569 54.9062V42.8258C48.2569 36.6744 42.1784 31.8478 36.2125 31.8478ZM39.5309 41.7233C40.139 41.7233 40.6334 42.2178 40.6334 42.8258C40.6334 43.4338 40.139 43.9283 39.5309 43.9283C38.9229 43.9283 38.4284 43.4337 38.4284 42.8258C38.4284 42.2179 38.9229 41.7233 39.5309 41.7233ZM16.4998 4.57144V2.1875H30.928C33.8573 2.1875 36.2405 4.57067 36.2405 7.50006V9.88389H21.8125C18.883 9.88389 16.4998 7.50072 16.4998 4.57144ZM19.7581 20.312V11.783C20.4115 11.9695 21.1002 12.0714 21.8124 12.0714H36.2409V20.3063C36.2173 24.8538 32.5202 28.5534 27.9995 28.5534C23.479 28.5534 19.7819 24.8538 19.7581 20.312ZM46.0694 53.8125H41.7228V49.4156C41.7228 48.8115 41.233 48.3219 40.6291 48.3219C40.0251 48.3219 39.5353 48.8115 39.5353 49.4156V53.8125H16.4637V49.4156C16.4637 48.8115 15.974 48.3219 15.37 48.3219C14.7659 48.3219 14.2762 48.8115 14.2762 49.4156V53.8125H9.92969V42.8258C9.92969 39.3913 12.355 36.55 15.3744 35.0921V40.8216C14.0964 41.2734 13.1781 42.4932 13.1781 43.9239V45.022C13.1781 45.6261 13.6679 46.1158 14.2719 46.1158C14.8758 46.1158 15.3656 45.6261 15.3656 45.022V43.9239C15.3656 43.316 15.8601 42.8214 16.4681 42.8214C17.0761 42.8214 17.5706 43.316 17.5706 43.9239V45.022C17.5706 45.6261 18.0603 46.1158 18.6644 46.1158C19.2683 46.1158 19.7581 45.6261 19.7581 45.022V43.9239C19.7581 42.4931 18.8398 41.2734 17.5619 40.8216V34.3074C18.3021 34.1295 19.0511 34.0353 19.7866 34.0353C23.2997 34.0294 23.1054 34.0511 23.2909 34.0133C23.7118 33.9288 24.0234 33.6198 24.1292 33.2227C24.1437 33.1682 24.8965 30.3355 24.9135 30.271C26.9172 30.8978 29.0817 30.8978 31.0855 30.2708L31.8698 33.2223C31.9972 33.7016 32.431 34.0352 32.9269 34.0352H36.2125C36.9479 34.0352 37.6969 34.1294 38.4372 34.3073V39.7234C37.1592 40.1752 36.2409 41.3949 36.2409 42.8257C36.2409 44.6398 37.7168 46.1157 39.5309 46.1157C41.345 46.1157 42.8209 44.6398 42.8209 42.8257C42.8209 41.3949 41.9026 40.1753 40.6247 39.7234V35.092C43.6441 36.5498 46.0694 39.3912 46.0694 42.8257V53.8125Z" fill="#A4E772"></path>
    <path d="M30.326 24.2862C30.7531 23.8591 30.7531 23.1665 30.326 22.7393C29.8988 22.3122 29.2064 22.3122 28.7791 22.7393C28.3483 23.1702 27.6509 23.1704 27.2197 22.7394C26.7929 22.3124 26.1002 22.3122 25.673 22.7393C25.2457 23.1664 25.2457 23.8588 25.6729 24.2861C26.9587 25.5721 29.04 25.5722 30.326 24.2862Z" fill="#A4E772"></path>
    <path d="M31.7443 37.1383C29.5374 38.8839 26.4642 38.8847 24.2585 37.1408C23.8291 36.7841 23.1906 36.8074 22.7878 37.2102C22.3262 37.6718 22.3698 38.4331 22.8807 38.8399C25.8461 41.2001 30.0966 41.2427 33.1172 38.8415C33.6391 38.4263 33.6714 37.6498 33.1914 37.1926C32.7872 36.808 32.1653 36.7934 31.7443 37.1383Z" fill="#A4E772"></path>
  </symbol>
  <symbol fill="none" xmlns="http://www.w3.org/2000/svg" viewBox="0 0 52 52" id="doctor-on-demand">
    <g clip-path="url(#clip0_647_351)">
      <path fill-rule="evenodd" clip-rule="evenodd" d="M26.0048 24.9479C32.1634 24.9479 37.1864 19.9249 37.1864 13.7663C36.6144 -1.04529 15.3929 -1.04118 14.8232 13.7665C14.8232 19.9249 19.8461 24.9479 26.0048 24.9479Z" fill="#A4E772"></path>
      <path d="M48.5167 17.1129C47.4988 16.5535 45.9483 16.6669 44.9492 18.2376C44.9397 18.2489 41.2019 24.3729 41.1923 24.3859C40.1933 23.7775 38.7741 23.9959 38.0394 24.9152C37.5337 25.5229 34.427 29.4275 33.8986 30.0643C31.5017 32.8632 27.7945 33.9989 26.0048 37.6361C24.2154 33.9992 20.5077 32.8631 18.1109 30.0643C17.5822 29.4272 14.4763 25.5232 13.9701 24.9152C13.2358 23.996 11.816 23.7776 10.8173 24.3859C10.8083 24.3718 7.06889 18.2504 7.0604 18.2376C5.07775 15.1282 1.0774 17.6201 2.44662 20.5542C3.77018 23.5035 5.98332 29.0395 7.49482 32.3133C8.91217 35.4311 9.54787 36.3073 12.0295 38.563L15.3868 41.6146V41.9259H14.8233C14.3189 41.9259 13.91 42.3349 13.91 42.8392V48.43C13.91 48.9343 14.3189 49.3432 14.8233 49.3432H37.1864C37.6908 49.3432 38.0996 48.9343 38.0996 48.43V42.8392C38.0996 42.3349 37.6908 41.9259 37.1864 41.9259H36.6228V41.6146L39.9802 38.563C42.4618 36.3073 43.0975 35.4311 44.515 32.3133C45.6039 29.9178 46.8891 26.8515 47.9218 24.3877C48.6598 22.6272 49.297 21.1065 49.5591 20.5627C50.1742 19.2636 49.7255 17.7767 48.5167 17.1129ZM16.9142 40.535L13.2579 37.2114C10.967 35.1291 10.4687 34.4422 9.15737 31.5575C7.65911 28.3125 5.40542 22.6812 4.0984 19.775C3.83182 19.2026 4.14497 18.8385 4.37246 18.7135C4.75401 18.5037 5.18086 18.69 5.5152 19.2118L9.67481 26.0195C9.59737 26.5164 9.65892 27.1347 9.96175 27.8999C10.8311 30.0968 11.9086 32.2911 12.9181 33.92C13.1838 34.3487 13.7466 34.4809 14.1754 34.2152C14.6041 33.9495 14.7363 33.3866 14.4706 32.9578C13.5157 31.4169 12.4913 29.3284 11.6601 27.2278C11.3001 26.3179 11.5434 26.1135 11.635 26.0365C11.8973 25.8045 12.3431 25.8079 12.5653 26.0824C13.0926 26.7178 16.1985 30.6214 16.7061 31.2315C19.6273 34.7703 24.6099 35.7132 25.0916 41.0614V41.926H17.2133V41.2107C17.2132 40.9534 17.1047 40.708 16.9142 40.535ZM15.7364 43.7525H25.0915V47.5169H15.7364V43.7525ZM36.2731 47.5169H26.9179V43.7525H36.273L36.2731 47.5169ZM47.911 19.7751C46.5946 22.6996 44.3575 28.2975 42.852 31.5576C41.5407 34.4423 41.0425 35.1292 38.7516 37.2115L35.0953 40.5351C34.9049 40.7081 34.7963 40.9535 34.7963 41.2108V41.9261H26.918V41.0614C27.3993 35.7137 32.3825 34.7701 35.3035 31.2316C35.8107 30.6218 38.9173 26.7176 39.4442 26.0825C39.6663 25.8085 40.1119 25.8041 40.3744 26.0366C40.466 26.1136 40.7094 26.318 40.3493 27.2279C39.5181 29.3285 38.4937 31.417 37.5388 32.9579C37.2732 33.3866 37.4053 33.9495 37.834 34.2153C38.2626 34.4809 38.8257 34.3489 39.0913 33.9201C40.1008 32.2912 41.1783 30.0969 42.0477 27.9C42.3505 27.1348 42.4119 26.5166 42.3346 26.0196L46.4942 19.2119C46.8285 18.6901 47.2553 18.5037 47.6369 18.7136C47.8644 18.8386 48.1776 19.2026 47.911 19.7751Z" fill="#075450"></path>
      <path d="M20.4142 17.0094H22.7622V19.3574C22.7622 19.8617 23.1711 20.2707 23.6755 20.2707H28.3345C28.8388 20.2707 29.2477 19.8617 29.2477 19.3574V17.0094H31.5957C32.1001 17.0094 32.509 16.6005 32.509 16.0962V11.4373C32.509 10.933 32.1001 10.5241 31.5957 10.5241H29.2477V8.17593C29.2477 7.67164 28.8388 7.2627 28.3345 7.2627H23.6755C23.1711 7.2627 22.7622 7.67164 22.7622 8.17593V10.5241H20.4142C19.9098 10.5241 19.501 10.933 19.501 11.4373V16.0963C19.501 16.6006 19.9098 17.0094 20.4142 17.0094ZM21.3275 12.3505H23.6755C24.1799 12.3505 24.5887 11.9416 24.5887 11.4373V9.08917H27.4212V11.4373C27.4212 11.9416 27.8301 12.3505 28.3345 12.3505H30.6825V15.183H28.3345C27.8301 15.183 27.4212 15.592 27.4212 16.0963V18.4443H24.5887V16.0963C24.5887 15.592 24.1799 15.183 23.6755 15.183H21.3275V12.3505Z" fill="#075450"></path>
    </g>
    <defs>
      <clipPath id="clip0_647_351">
        <rect width="47.6667" height="47.6667" fill="white" transform="translate(2.16699 2.16699)"></rect>
      </clipPath>
    </defs>
  </symbol>
  <symbol fill="none" xmlns="http://www.w3.org/2000/svg" viewBox="0 0 52 52" id="elderly-home-visits">
    <path d="M19.2441 40.7828L16.2836 39.7624L16.8957 38.7514C14.951 36.5846 13.7666 33.7224 13.7666 30.5886C13.7666 23.8432 19.2543 18.3555 25.9997 18.3555C32.7451 18.3555 38.2329 23.8433 38.2329 30.5887C38.2329 33.7224 37.0485 36.5847 35.1038 38.7515L35.7836 40.1169L32.7554 40.7828C28.6666 43.5014 23.337 43.5043 19.2441 40.7828Z" fill="#A4E772"></path>
    <path d="M29.8023 29.5769H27.0379V26.8125C27.0379 26.2516 26.5832 25.7969 26.0222 25.7969C25.4613 25.7969 25.0066 26.2516 25.0066 26.8125V29.5769H22.2422C21.6813 29.5769 21.2266 30.0316 21.2266 30.5926C21.2266 31.1535 21.6813 31.6082 22.2422 31.6082H25.0066V34.3726C25.0066 34.9335 25.4613 35.3882 26.0222 35.3882C26.5832 35.3882 27.0379 34.9335 27.0379 34.3726V31.6082H29.8023C30.3632 31.6082 30.8179 31.1535 30.8179 30.5926C30.8179 30.0316 30.3632 29.5769 29.8023 29.5769Z" fill="#075450"></path>
    <path d="M49.4218 23.4836L50.0065 22.8989C51.3362 21.5692 51.2046 19.3692 49.7168 18.2099L26.6239 0.2145C26.257 -0.0715 25.7423 -0.0715 25.3754 0.2145L2.28262 18.2099C0.799303 19.3656 0.659147 21.5652 1.99276 22.8989L2.57746 23.4836C3.52412 24.4304 4.94783 24.6532 6.11823 24.108V45.8897H4.62902C3.20095 45.8897 2.03918 47.0515 2.03918 48.4795V49.4102C2.03918 50.8382 3.20095 52 4.62902 52H47.3702C48.7982 52 49.96 50.8382 49.96 49.4102V48.4795C49.96 47.0515 48.7982 45.8897 47.3702 45.8897H45.881V24.1057C47.0982 24.673 48.5073 24.3979 49.4218 23.4836ZM47.3702 47.9209C47.6781 47.9209 47.9288 48.1716 47.9288 48.4795V49.4102C47.9288 49.7182 47.6781 49.9688 47.3702 49.9688H4.62902C4.32108 49.9688 4.07043 49.7182 4.07043 49.4102V48.4795C4.07043 48.1716 4.32108 47.9209 4.62902 47.9209H47.3702ZM16.8961 38.7513H8.14958V22.6243L25.9996 8.6907L43.8497 22.6243V38.7513H35.1032C34.4104 39.523 33.6214 40.2065 32.7549 40.7825H43.8498V45.8897H8.14948V40.7825H19.2444C18.3779 40.2064 17.5888 39.523 16.8961 38.7513ZM26.6246 6.60177C26.2573 6.31516 25.7421 6.31516 25.3747 6.60177L5.4729 22.1368C5.03456 22.4791 4.40721 22.4406 4.01386 22.0472L3.42916 21.4625C2.96421 20.9975 3.0023 20.2241 3.53113 19.812L25.9996 2.30323L48.4682 19.8121C48.9869 20.2163 49.0442 20.9885 48.5701 21.4626L47.9854 22.0473C47.5921 22.4406 46.9647 22.4792 46.5264 22.1369L26.6246 6.60177Z" fill="#075450"></path>
  </symbol>
  <symbol fill="none" xmlns="http://www.w3.org/2000/svg" viewBox="0 0 52 52" id="hmo">
    <path d="M29.4772 34.4848C27.428 36.1057 24.5743 36.1064 22.5261 34.4871C22.1273 34.1559 21.5345 34.1776 21.1605 34.5516C20.7319 34.9802 20.7723 35.6871 21.2467 36.0649C24.0003 38.2565 27.9472 38.296 30.752 36.0663C31.2367 35.6808 31.2666 34.9598 30.821 34.5353C30.4456 34.1781 29.8681 34.1646 29.4772 34.4848Z" fill="#075450"></path>
    <path d="M21.6943 29.5732L21.4245 30.5889H18.3735C13.3186 30.5889 8.20508 34.6981 8.20508 39.7671V50.9846H24.4713L22.3304 29.5732H21.6943Z" fill="#A4E772"></path>
    <path d="M43.7946 50.9846V39.7671C43.7946 34.6981 38.6809 30.5889 33.6261 30.5889H30.5752L30.3053 29.5732H29.6693L27.5283 50.9846H43.7946Z" fill="#A4E772"></path>
    <path d="M22.4404 14.2764C21.8796 14.2764 21.4248 14.7311 21.4248 15.292V16.3118C21.4248 16.8727 21.8796 17.3274 22.4404 17.3274C23.0014 17.3274 23.4561 16.8727 23.4561 16.3118V15.292C23.4561 14.7311 23.0014 14.2764 22.4404 14.2764Z" fill="#075450"></path>
    <path d="M29.5586 17.3274C30.1195 17.3274 30.5742 16.8727 30.5742 16.3118V15.292C30.5742 14.7311 30.1195 14.2764 29.5586 14.2764C28.9978 14.2764 28.543 14.7311 28.543 15.292V16.3118C28.543 16.8727 28.9978 17.3274 29.5586 17.3274Z" fill="#075450"></path>
    <path d="M33.6262 29.573H31.3562L30.749 27.2882C33.6756 25.6227 35.6649 22.4704 35.6837 18.8612C35.6837 18.3011 35.6834 7.2149 35.6834 6.96434C35.6835 3.12416 32.5594 0 28.7192 0H14.3059C13.7451 0 13.2903 0.454695 13.2903 1.01562V4.24491C13.2903 6.62401 14.4902 8.72737 16.3159 9.9842V18.8665C16.3346 22.4721 18.3239 25.6231 21.2505 27.2883L20.6434 29.573H18.3735C12.8367 29.573 7.18945 34.0525 7.18945 39.7668V50.9844C7.18945 51.5453 7.64425 52 8.20508 52H43.7946C44.3554 52 44.8102 51.5453 44.8102 50.9844V39.7668C44.8102 34.0548 39.1659 29.573 33.6262 29.573ZM36.7076 38.743C37.2722 38.743 37.7313 39.2022 37.7313 39.7668C37.7313 40.3314 37.2722 40.7905 36.7076 40.7905C36.143 40.7905 35.6838 40.3313 35.6838 39.7668C35.6838 39.2023 36.143 38.743 36.7076 38.743ZM15.3216 4.24491V2.03125H28.7192C31.4392 2.03125 33.6522 4.24419 33.6522 6.96434V9.1779H20.2548C17.5345 9.1779 15.3216 6.96495 15.3216 4.24491ZM18.3471 18.8612V10.9413C18.9538 11.1145 19.5933 11.2091 20.2547 11.2091H33.6526V18.8559C33.6306 23.0786 30.1976 26.5139 25.9998 26.5139C21.8022 26.5139 18.3691 23.0786 18.3471 18.8612ZM42.779 49.9688H38.7429V45.8859C38.7429 45.325 38.2881 44.8703 37.7273 44.8703C37.1664 44.8703 36.7116 45.325 36.7116 45.8859V49.9688H15.288V45.8859C15.288 45.325 14.8333 44.8703 14.2724 44.8703C13.7115 44.8703 13.2568 45.325 13.2568 45.8859V49.9688H9.2207V39.7668C9.2207 36.5776 11.4728 33.9392 14.2765 32.5855V37.9058C13.0898 38.3253 12.2371 39.4579 12.2371 40.7865V41.8062C12.2371 42.3671 12.6919 42.8218 13.2527 42.8218C13.8136 42.8218 14.2684 42.3671 14.2684 41.8062V40.7865C14.2684 40.222 14.7275 39.7627 15.2921 39.7627C15.8567 39.7627 16.3159 40.222 16.3159 40.7865V41.8062C16.3159 42.3671 16.7706 42.8218 17.3315 42.8218C17.8923 42.8218 18.3471 42.3671 18.3471 41.8062V40.7865C18.3471 39.4578 17.4944 38.3253 16.3077 37.9058V31.8569C16.9951 31.6917 17.6906 31.6042 18.3735 31.6042C21.6357 31.5987 21.4553 31.6188 21.6276 31.5838C22.0184 31.5053 22.3077 31.2184 22.406 30.8496C22.4195 30.799 23.1184 28.1687 23.1343 28.1087C24.9948 28.6908 27.0047 28.6908 28.8654 28.1086L29.5936 30.8493C29.712 31.2944 30.1147 31.6041 30.5752 31.6041H33.6262C34.3091 31.6041 35.0046 31.6916 35.692 31.8568V36.886C34.5053 37.3055 33.6526 38.4382 33.6526 39.7667C33.6526 41.4512 35.0231 42.8217 36.7076 42.8217C38.3921 42.8217 39.7626 41.4512 39.7626 39.7667C39.7626 38.4382 38.9099 37.3056 37.7232 36.886V32.5854C40.5269 33.9391 42.779 36.5775 42.779 39.7667V49.9688Z" fill="#075450"></path>
    <path d="M28.1602 22.5512C28.5568 22.1546 28.5568 21.5115 28.1602 21.1148C27.7635 20.7182 27.1206 20.7182 26.7238 21.1148C26.3238 21.515 25.6762 21.5152 25.2758 21.1149C24.8794 20.7184 24.2362 20.7182 23.8395 21.1148C23.4428 21.5114 23.4428 22.1544 23.8394 22.5511C25.0334 23.7453 26.966 23.7454 28.1602 22.5512Z" fill="#075450"></path>
  </symbol>
  <symbol fill="none" xmlns="http://www.w3.org/2000/svg" viewBox="0 0 56 56" id="home-help">
    <g clip-path="url(#clip0_237_1971)">
      <path d="M15.5823 21.3369C16.7376 19.4951 17.6897 18.7012 19.806 18.7012H20.3244C22.4407 18.7012 24.156 20.4166 24.156 22.5328V30.7452" stroke="#075450" stroke-width="2.34375" stroke-miterlimit="10" stroke-linecap="round" stroke-linejoin="round"></path>
      <path d="M15.5577 30.7455L18.8173 25.7305" stroke="#075450" stroke-width="2.34375" stroke-miterlimit="10" stroke-linecap="round" stroke-linejoin="round"></path>
      <path d="M15.5818 21.3389L12.3222 26.4482H6.53757C5.35053 26.4482 4.38824 27.4105 4.38824 28.5975C4.38824 29.7846 5.35053 30.7469 6.53757 30.7469" stroke="#075450" stroke-width="2.34375" stroke-miterlimit="10" stroke-linecap="round" stroke-linejoin="round"></path>
      <path d="M19.8873 18.6977C22.3218 18.6166 24.2296 16.5772 24.1485 14.1427C24.0674 11.7081 22.028 9.80032 19.5935 9.88144C17.159 9.96256 15.2512 12.0019 15.3323 14.4364C15.4134 16.871 17.4527 18.7788 19.8873 18.6977Z" stroke="#075450" stroke-width="2.34375" stroke-miterlimit="10" stroke-linecap="round" stroke-linejoin="round"></path>
      <path d="M8.89874 35.1387C6.84949 36.4192 5.48657 38.6947 5.48657 41.2887V48.3173" stroke="#075450" stroke-width="2.34375" stroke-miterlimit="10" stroke-linecap="round" stroke-linejoin="round"></path>
      <path d="M46.1203 21.9605H37.2882C36.1009 21.9605 35.139 20.998 35.139 19.8102C35.139 18.6235 36.1004 17.661 37.2882 17.661H43.072L46.3324 12.5521C47.4874 10.7102 48.4401 9.91504 50.5565 9.91504H51.0749C53.1903 9.91504 54.9064 11.6311 54.9064 13.7475V26.3957L54.8976 29.6682H46.1203C46.1203 28.561 46.1203 23.066 46.1203 21.9605Z" fill="#A4E772"></path>
      <path d="M7.68298 36.2328C5.86878 36.2328 4.39276 34.7568 4.39276 32.9426C4.39276 31.1284 5.86878 29.6523 7.68298 29.6523H28.549V36.2328H7.68298Z" fill="#A4E772"></path>
      <path d="M1.09375 54.9072H54.9062" stroke="#075450" stroke-width="2.34375" stroke-miterlimit="10" stroke-linecap="round" stroke-linejoin="round"></path>
      <path d="M9.8793 48.3176V43.9248H18.7254" stroke="#075450" stroke-width="2.34375" stroke-miterlimit="10" stroke-linecap="round" stroke-linejoin="round"></path>
      <path d="M28.5492 35.1396V26.354C28.5492 23.1176 30.8818 20.4259 33.959 19.8701" stroke="#075450" stroke-width="2.34375" stroke-miterlimit="10" stroke-linecap="round" stroke-linejoin="round"></path>
      <path d="M35.5377 52.0114C39.3976 48.1515 39.3976 41.8934 35.5377 38.0336C31.6778 34.1737 25.4198 34.1737 21.5599 38.0336C17.7001 41.8934 17.7001 48.1515 21.5599 52.0114C25.4198 55.8712 31.6778 55.8712 35.5377 52.0114Z" stroke="#075450" stroke-width="2.34375" stroke-miterlimit="10" stroke-linecap="round" stroke-linejoin="round"></path>
      <path d="M13.1742 39.5322H20.3302" stroke="#075450" stroke-width="2.34375" stroke-miterlimit="10" stroke-linecap="round" stroke-linejoin="round"></path>
      <path d="M17.5668 39.5322H12.34C10.981 39.5322 9.8793 40.634 9.8793 41.9929V48.318" stroke="#075450" stroke-width="2.34375" stroke-miterlimit="10" stroke-linecap="round" stroke-linejoin="round"></path>
      <path d="M1.09375 48.3174H9.87941" stroke="#075450" stroke-width="2.34375" stroke-miterlimit="10" stroke-linecap="round" stroke-linejoin="round"></path>
      <path d="M28.5492 35.1387V41.728" stroke="#075450" stroke-width="2.34375" stroke-miterlimit="10" stroke-linecap="round" stroke-linejoin="round"></path>
      <path d="M35.5382 38.0342L30.8788 42.6936" stroke="#075450" stroke-width="2.34375" stroke-miterlimit="10" stroke-linecap="round" stroke-linejoin="round"></path>
      <path d="M38.4329 45.0234H31.8436" stroke="#075450" stroke-width="2.34375" stroke-miterlimit="10" stroke-linecap="round" stroke-linejoin="round"></path>
      <path d="M35.5382 52.0119L30.8788 47.3525" stroke="#075450" stroke-width="2.34375" stroke-miterlimit="10" stroke-linecap="round" stroke-linejoin="round"></path>
      <path d="M28.5492 54.9067V48.3174" stroke="#075450" stroke-width="2.34375" stroke-miterlimit="10" stroke-linecap="round" stroke-linejoin="round"></path>
      <path d="M21.5601 52.0119L26.2195 47.3525" stroke="#075450" stroke-width="2.34375" stroke-miterlimit="10" stroke-linecap="round" stroke-linejoin="round"></path>
      <path d="M18.6653 45.0234H25.2546" stroke="#075450" stroke-width="2.34375" stroke-miterlimit="10" stroke-linecap="round" stroke-linejoin="round"></path>
      <path d="M21.5601 38.0342L26.2195 42.6936" stroke="#075450" stroke-width="2.34375" stroke-miterlimit="10" stroke-linecap="round" stroke-linejoin="round"></path>
      <path d="M54.8971 5.66081C54.9838 3.22627 53.0805 1.18239 50.646 1.09567C48.2115 1.00894 46.1676 2.91223 46.0809 5.34676C45.9941 7.7813 47.8974 9.82518 50.3319 9.91191C52.7665 9.99863 54.8104 8.09535 54.8971 5.66081Z" stroke="#075450" stroke-width="2.34375" stroke-miterlimit="10" stroke-linecap="round" stroke-linejoin="round"></path>
      <path d="M54.8976 29.6689V32.8386C54.8976 34.336 54.3026 35.7721 53.2438 36.8319C52.184 37.8907 51.589 39.3268 51.589 40.8252V54.9072" stroke="#075450" stroke-width="2.34375" stroke-miterlimit="10" stroke-linecap="round" stroke-linejoin="round"></path>
      <path d="M46.1202 54.9072V29.6689" stroke="#075450" stroke-width="2.34375" stroke-miterlimit="10" stroke-linecap="round" stroke-linejoin="round"></path>
      <path d="M54.8973 29.6691L54.9061 26.3966V13.7485C54.9061 11.6321 53.19 9.91602 51.0747 9.91602H50.5562C48.4398 9.91602 47.4872 10.7112 46.3322 12.553" stroke="#075450" stroke-width="2.34375" stroke-miterlimit="10" stroke-linecap="round" stroke-linejoin="round"></path>
      <path d="M46.1202 22.0547V29.6683" stroke="#075450" stroke-width="2.34375" stroke-miterlimit="10" stroke-linecap="round" stroke-linejoin="round"></path>
      <path d="M46.3324 12.5527L43.072 17.6616H37.2882C36.1004 17.6616 35.139 18.6241 35.139 19.8109C35.139 20.9981 36.1004 21.9612 37.2882 21.9612C37.787 21.9612 45.8183 21.9612 46.3084 21.9612L49.5678 16.9452" stroke="#075450" stroke-width="2.34375" stroke-miterlimit="10" stroke-linecap="round" stroke-linejoin="round"></path>
      <path d="M9.8793 48.3179V41.9845C9.8793 40.6305 10.9775 39.5322 12.3316 39.5322H17.4207" stroke="#075450" stroke-width="2.34375" stroke-miterlimit="10" stroke-linecap="round" stroke-linejoin="round"></path>
      <path d="M6.58484 51.6121C6.58484 49.7924 8.05987 48.3174 9.87943 48.3174C11.6991 48.3174 13.1741 49.7924 13.1741 51.6121C13.1741 53.4316 11.6991 54.9067 9.87943 54.9067C8.05987 54.9067 6.58484 53.4316 6.58484 51.6121Z" stroke="#075450" stroke-width="2.34375" stroke-miterlimit="10" stroke-linecap="round" stroke-linejoin="round"></path>
      <path d="M25.2547 45.0232C25.2547 43.2035 26.7297 41.7285 28.5493 41.7285C30.3689 41.7285 31.8439 43.2035 31.8439 45.0232C31.8439 46.8428 30.3689 48.3178 28.5493 48.3178C26.7298 48.3178 25.2547 46.8428 25.2547 45.0232Z" stroke="#075450" stroke-width="2.34375" stroke-miterlimit="10" stroke-linecap="round" stroke-linejoin="round"></path>
    </g>
    <defs>
      <clipPath id="clip0_237_1971">
        <rect width="56" height="56" fill="white"></rect>
      </clipPath>
    </defs>
  </symbol>
  <symbol fill="none" xmlns="http://www.w3.org/2000/svg" viewBox="0 0 57 56" id="home-visits">
    <g clip-path="url(#clip0_237_1790)">
      <path d="M35.6388 36.2366L32.3441 31.8438H32.329C32.1613 33.8118 30.5117 35.3571 28.5003 35.3571C26.4889 35.3571 24.8393 33.8117 24.6716 31.8438H24.6565L21.3618 36.2366L24.3599 38.4329L22.1635 41.7276L28.5004 54.9062L34.837 41.7276L32.6407 38.4329L35.6388 36.2366Z" fill="#A4E772"></path>
      <path d="M32.344 27.8174V31.8435L45.1943 33.3553C48.5127 33.7457 51.0137 36.5581 51.0137 39.8994V54.906H5.98682V39.8994C5.98682 36.5581 8.48779 33.7456 11.8062 33.3553L24.6565 31.8435V27.8174" stroke="#075450" stroke-width="2.34375" stroke-miterlimit="10" stroke-linecap="round" stroke-linejoin="round"></path>
      <path d="M28.5004 28.549C22.7385 28.549 18.0674 23.878 18.0674 18.1159V10.9775H38.9335V18.1159C38.9335 23.878 34.2624 28.549 28.5004 28.549Z" stroke="#075450" stroke-width="2.34375" stroke-miterlimit="10" stroke-linecap="round" stroke-linejoin="round"></path>
      <path d="M38.9331 10.9776V7.68305C38.9331 4.04392 35.983 1.09375 32.3439 1.09375H22.46C22.46 6.55255 26.8852 10.9776 32.3439 10.9776H38.9331Z" stroke="#075450" stroke-width="2.34375" stroke-miterlimit="10" stroke-linecap="round" stroke-linejoin="round"></path>
      <path d="M18.0674 10.978V7.68337C18.0674 5.86359 19.5423 4.38867 21.362 4.38867C22.067 4.38867 22.7216 4.61048 23.2574 4.99045" stroke="#075450" stroke-width="2.34375" stroke-miterlimit="10" stroke-linecap="round" stroke-linejoin="round"></path>
      <path d="M16.9691 48.3168H19.1655V46.1204C19.1655 43.6942 17.1988 41.7275 14.7727 41.7275C12.3466 41.7275 10.3799 43.6943 10.3799 46.1204V48.3168H12.5764" stroke="#075450" stroke-width="2.34375" stroke-miterlimit="10" stroke-linecap="round" stroke-linejoin="round"></path>
      <path d="M14.7725 41.7277V33.0068" stroke="#075450" stroke-width="2.34375" stroke-miterlimit="10" stroke-linecap="round" stroke-linejoin="round"></path>
      <path d="M42.7769 40.6292V33.0713" stroke="#075450" stroke-width="2.34375" stroke-miterlimit="10" stroke-linecap="round" stroke-linejoin="round"></path>
      <path d="M23.5581 16.4688V17.567" stroke="#075450" stroke-width="2.34375" stroke-miterlimit="10" stroke-linecap="round" stroke-linejoin="round"></path>
      <path d="M33.4424 16.4688V17.567" stroke="#075450" stroke-width="2.34375" stroke-miterlimit="10" stroke-linecap="round" stroke-linejoin="round"></path>
      <path d="M25.7549 21.958C25.9777 22.1693 27.031 23.0158 28.5004 23.0562C30.1091 23.1004 31.0475 22.1458 31.2459 21.958" stroke="#075450" stroke-width="2.34375" stroke-miterlimit="10" stroke-linecap="round" stroke-linejoin="round"></path>
      <path d="M32.3438 31.5137C32.3438 33.6365 30.6229 35.3574 28.5 35.3574C26.3772 35.3574 24.6562 33.6365 24.6562 31.5137" stroke="#075450" stroke-width="2.34375" stroke-miterlimit="10" stroke-linecap="round" stroke-linejoin="round"></path>
      <path d="M46.5176 45.3608C47.0055 43.2948 45.7261 41.2246 43.6602 40.7368C41.5942 40.2489 39.524 41.5282 39.0361 43.5942C38.5483 45.6602 39.8276 47.7304 41.8936 48.2183C43.9595 48.7061 46.0298 47.4268 46.5176 45.3608Z" stroke="#075450" stroke-width="2.34375" stroke-miterlimit="10" stroke-linecap="round" stroke-linejoin="round"></path>
    </g>
    <defs>
      <clipPath id="clip0_237_1790">
        <rect width="56" height="56" fill="white" transform="translate(0.5)"></rect>
      </clipPath>
    </defs>
  </symbol>
  <symbol fill="none" xmlns="http://www.w3.org/2000/svg" viewBox="0 0 61 56" id="labs-investations">
    <g clip-path="url(#clip0_237_1832)">
      <path d="M24.575 18.6645H28.1727H35.7945C40.3438 18.6645 44.0316 22.1065 44.0316 26.3524V32.9412C44.0316 37.1871 40.3438 40.6291 35.7945 40.6291V46.1198C43.5922 46.1198 49.9145 40.219 49.9145 32.9412V26.3524C49.9145 19.0746 43.5922 13.1738 35.7945 13.1738H28.7258H23.6105H23.6094L24.575 18.6645Z" fill="#A4E772"></path>
      <path d="M10.4458 46.12H25.2051V40.6289H7.55518V43.422C7.55518 44.9121 8.84939 46.12 10.4458 46.12Z" fill="#A4E772"></path>
      <path d="M49.5167 50.5127H11.4834C9.63887 50.5127 8.14355 51.9083 8.14355 53.6299V54.9055H52.8566V53.6299C52.8566 51.9083 51.3613 50.5127 49.5167 50.5127Z" stroke="#075450" stroke-width="2.34375" stroke-miterlimit="10" stroke-linecap="round" stroke-linejoin="round"></path>
      <path d="M35.795 50.5141H25.2051V41.1592C25.2051 38.4409 27.5661 36.2373 30.4785 36.2373H30.5215C33.434 36.2373 35.795 38.4409 35.795 41.1592V50.5141Z" stroke="#075450" stroke-width="2.34375" stroke-miterlimit="10" stroke-linecap="round" stroke-linejoin="round"></path>
      <path d="M20.4978 20.8612V21.955V23.0586C20.4978 24.2715 19.4454 25.2548 18.1446 25.2548H16.9681H12.2618H11.0853C9.78447 25.2548 8.73096 24.2715 8.73096 23.0586V21.955V9.87996C8.73096 8.6659 9.78447 7.68262 11.0853 7.68262H18.1446C19.4454 7.68262 20.4978 8.6659 20.4978 9.87996V12.0762" stroke="#075450" stroke-width="2.34375" stroke-miterlimit="10" stroke-linecap="round" stroke-linejoin="round"></path>
      <path d="M16.9683 25.2549H12.2617V29.6477H16.9683V25.2549Z" stroke="#075450" stroke-width="2.34375" stroke-miterlimit="10" stroke-linecap="round" stroke-linejoin="round"></path>
      <path d="M16.9683 1.09375H12.2617V7.68305H16.9683V1.09375Z" stroke="#075450" stroke-width="2.34375" stroke-miterlimit="10" stroke-linecap="round" stroke-linejoin="round"></path>
      <path d="M9.9082 1.09375H19.3214" stroke="#075450" stroke-width="2.34375" stroke-miterlimit="10" stroke-linecap="round" stroke-linejoin="round"></path>
      <path d="M5.79004 54.9062H55.2096" stroke="#075450" stroke-width="2.34375" stroke-miterlimit="10" stroke-linecap="round" stroke-linejoin="round"></path>
      <path d="M25.2052 16.4687C25.2052 17.2682 24.9755 18.0185 24.5747 18.6649C23.7614 19.9774 22.2403 20.8612 20.4978 20.8612C17.8985 20.8612 15.7915 18.8946 15.7915 16.4687C15.7915 14.0427 17.8985 12.0762 20.4978 12.0762C21.6907 12.0762 22.7794 12.4907 23.6091 13.1743H23.6103C24.5888 13.9782 25.2052 15.1562 25.2052 16.4687Z" stroke="#075450" stroke-width="2.34375" stroke-miterlimit="10" stroke-linecap="round" stroke-linejoin="round"></path>
      <path d="M30.5 41.7275V42.8258" stroke="#075450" stroke-width="2.34375" stroke-miterlimit="10" stroke-linecap="round" stroke-linejoin="round"></path>
      <path d="M8.73145 20.8613H20.498" stroke="#075450" stroke-width="2.34375" stroke-miterlimit="10" stroke-linecap="round" stroke-linejoin="round"></path>
    </g>
    <defs>
      <clipPath id="clip0_237_1832">
        <rect width="60" height="56" fill="white" transform="translate(0.5)"></rect>
      </clipPath>
    </defs>
  </symbol>
  <symbol fill="none" xmlns="http://www.w3.org/2000/svg" viewBox="0 0 56 56" id="medicine-home">
    <path d="M20.7245 43.9201L17.5363 42.8212L18.1955 41.7324C16.1012 39.399 14.8257 36.3166 14.8257 32.9417C14.8257 25.6774 20.7355 19.7676 27.9998 19.7676C35.264 19.7676 41.174 25.6775 41.174 32.9418C41.174 36.3166 39.8985 39.3991 37.8042 41.7325L38.5363 43.2029L35.2752 43.9201C30.8719 46.8478 25.1323 46.8509 20.7245 43.9201Z" fill="#A4E772"></path>
    <path d="M32.0948 31.8521H29.1177V28.875C29.1177 28.2709 28.628 27.7812 28.024 27.7812C27.4199 27.7812 26.9302 28.2709 26.9302 28.875V31.8521H23.9531C23.349 31.8521 22.8594 32.3418 22.8594 32.9458C22.8594 33.5499 23.349 34.0396 23.9531 34.0396H26.9302V37.0167C26.9302 37.6207 27.4199 38.1104 28.024 38.1104C28.628 38.1104 29.1177 37.6207 29.1177 37.0167V34.0396H32.0948C32.6989 34.0396 33.1885 33.5499 33.1885 32.9458C33.1885 32.3418 32.6989 31.8521 32.0948 31.8521Z" fill="#075450"></path>
    <path d="M53.2238 25.29L53.8535 24.6603C55.2854 23.2284 55.1437 20.8591 53.5415 19.6106L28.6722 0.231C28.277 -0.077 27.7228 -0.077 27.3277 0.231L2.45851 19.6106C0.861088 20.8553 0.710151 23.224 2.14635 24.6603L2.77603 25.29C3.79551 26.3096 5.32873 26.5496 6.58917 25.9625V49.4197H4.9854C3.44748 49.4197 2.19634 50.6708 2.19634 52.2087V53.2109C2.19634 54.7489 3.44748 56 4.9854 56H51.0143C52.5523 56 53.8034 54.7489 53.8034 53.2109V52.2087C53.8034 50.6708 52.5523 49.4197 51.0143 49.4197H49.4106V25.9599C50.7214 26.5709 52.2389 26.2746 53.2238 25.29ZM51.0143 51.6072C51.346 51.6072 51.6159 51.8771 51.6159 52.2087V53.2109C51.6159 53.5427 51.346 53.8125 51.0143 53.8125H4.9854C4.65378 53.8125 4.38384 53.5427 4.38384 53.2109V52.2087C4.38384 51.8771 4.65378 51.6072 4.9854 51.6072H51.0143ZM18.1962 41.7321H8.77678V24.3646L27.9999 9.35922L47.2231 24.3646V41.7321H37.8037C37.0577 42.5633 36.2079 43.2993 35.2748 43.9196H47.2232V49.4197H8.77667V43.9196H20.725C19.7919 43.2992 18.9421 42.5633 18.1962 41.7321ZM28.673 7.10959C28.2774 6.80094 27.7226 6.80094 27.3269 7.10959L5.8942 23.8396C5.42214 24.2083 4.74653 24.1668 4.32292 23.7431L3.69325 23.1135C3.19253 22.6127 3.23354 21.7798 3.80306 21.336L27.9999 2.48041L52.1968 21.3361C52.7554 21.7714 52.8172 22.603 52.3066 23.1136L51.6769 23.7432C51.2533 24.1668 50.5777 24.2084 50.1057 23.8397L28.673 7.10959Z" fill="#075450"></path>
  </symbol>
  <symbol fill="none" xmlns="http://www.w3.org/2000/svg" viewBox="0 0 57 56" id="personal-care">
    <g clip-path="url(#clip0_237_2012)">
      <path d="M15.4167 27.7374C13.1184 34.5679 13.7838 32.5903 13.659 32.9611L4.88821 30.7452L10.4084 15.0706C11.0832 13.0647 13.2565 11.9852 15.2613 12.66L15.7535 12.8252C17.7584 13.5 18.4081 14.5566 18.9156 16.6708L19.6757 24.6355L23.2129 25.6363C24.5407 26.0114 25.2167 27.4869 24.6337 28.7381C24.5024 29.0214 24.3176 29.2642 24.0977 29.46V29.4611C23.4969 29.9976 22.6521 30.1728 21.8895 29.915L15.4167 27.7374Z" fill="#A4E772"></path>
      <path d="M43.2953 24.1677L36.2712 26.7249C35.1449 27.1361 33.87 26.6241 33.352 25.5163C32.7986 24.3285 33.3301 22.9175 34.5289 22.3893L40.2776 19.8583L43.5381 12.5521H43.537C44.6931 10.7102 45.6457 9.91504 47.7611 9.91504H48.2795C50.3959 9.91504 52.112 11.6311 52.112 13.7475V26.3957L52.1032 29.6682H43.3259V24.2508L43.2953 24.1677Z" fill="#A4E772"></path>
      <path d="M1.59375 54.9072H55.4062" stroke="#075450" stroke-width="2.34375" stroke-miterlimit="10" stroke-linecap="round" stroke-linejoin="round"></path>
      <path d="M52.1052 5.65517C52.1864 3.22063 50.2785 1.18129 47.844 1.10017C45.4095 1.01905 43.3701 2.92688 43.289 5.36141C43.2079 7.79595 45.1157 9.83529 47.5502 9.91641C49.9848 9.99753 52.0241 8.08971 52.1052 5.65517Z" stroke="#075450" stroke-width="2.34375" stroke-miterlimit="10" stroke-linecap="round" stroke-linejoin="round"></path>
      <path d="M21.4058 10.0608C22.1763 7.7498 20.9274 5.25172 18.6164 4.48122C16.3054 3.71071 13.8073 4.95955 13.0368 7.27059C12.2663 9.58162 13.5151 12.0797 15.8262 12.8502C18.1372 13.6207 20.6353 12.3719 21.4058 10.0608Z" stroke="#075450" stroke-width="2.34375" stroke-miterlimit="10" stroke-linecap="round" stroke-linejoin="round"></path>
      <path d="M22.9 29.8672V55.3122" stroke="#075450" stroke-width="2.34375" stroke-miterlimit="10" stroke-linecap="round" stroke-linejoin="round"></path>
      <path d="M52.1031 29.6689V32.8386C52.1031 34.336 51.5081 35.7721 50.4483 36.8319C49.3895 37.8907 48.7945 39.3268 48.7945 40.8252V54.9072" stroke="#075450" stroke-width="2.34375" stroke-miterlimit="10" stroke-linecap="round" stroke-linejoin="round"></path>
      <path d="M43.3258 54.9072V29.6689" stroke="#075450" stroke-width="2.34375" stroke-miterlimit="10" stroke-linecap="round" stroke-linejoin="round"></path>
      <path d="M52.103 29.6691L52.1118 26.3966V13.7485C52.1118 11.6321 50.3957 9.91602 48.2793 9.91602H47.7609C45.6455 9.91602 44.6929 10.7112 43.5368 12.553" stroke="#075450" stroke-width="2.34375" stroke-miterlimit="10" stroke-linecap="round" stroke-linejoin="round"></path>
      <path d="M43.3258 24.252V29.6693" stroke="#075450" stroke-width="2.34375" stroke-miterlimit="10" stroke-linecap="round" stroke-linejoin="round"></path>
      <path d="M43.5378 12.5527L40.2773 19.859L34.5286 22.3899C33.3298 22.9182 32.7983 24.3291 33.3517 25.517C33.8698 26.6249 35.1447 27.1368 36.2709 26.7255L43.295 24.1684L43.3256 24.1574L45.8937 19.1415" stroke="#075450" stroke-width="2.34375" stroke-miterlimit="10" stroke-linecap="round" stroke-linejoin="round"></path>
      <path d="M4.88821 30.7461V35.0391C4.88821 36.5364 5.48321 37.9736 6.54306 39.0323C7.60181 40.0911 8.19681 41.5272 8.19681 43.0256V54.907" stroke="#075450" stroke-width="2.34375" stroke-miterlimit="10" stroke-linecap="round" stroke-linejoin="round"></path>
      <path d="M13.6656 54.9068V32.9629" stroke="#075450" stroke-width="2.34375" stroke-miterlimit="10" stroke-linecap="round" stroke-linejoin="round"></path>
      <path d="M4.88821 30.7461L10.4084 15.0716C11.0832 13.0657 13.2565 11.9861 15.2613 12.661L15.7535 12.8261C17.7584 13.501 18.4081 14.5575 18.9156 16.6718" stroke="#075450" stroke-width="2.34375" stroke-miterlimit="10" stroke-linecap="round" stroke-linejoin="round"></path>
      <path d="M15.3858 27.8281L13.6587 32.9622" stroke="#075450" stroke-width="2.34375" stroke-miterlimit="10" stroke-linecap="round" stroke-linejoin="round"></path>
      <path d="M18.9156 16.6719L19.6758 24.6366L23.213 25.6373C24.5408 26.0125 25.2167 27.488 24.6338 28.7392C24.5025 29.0225 24.3177 29.2653 24.0978 29.4611V29.4622C23.497 29.9987 22.6522 30.1739 21.8896 29.9161L15.4167 27.7384L14.5811 22.1658" stroke="#075450" stroke-width="2.34375" stroke-miterlimit="10" stroke-linecap="round" stroke-linejoin="round"></path>
      <path d="M32.3437 5.87136C32.3437 5.87136 33.3585 4.38867 35.3638 4.38867C37.1518 4.38867 38.3839 5.91073 38.3839 7.68337C38.3839 9.73514 36.7043 12.1627 32.3436 14.2727C27.9832 12.1627 26.3034 9.73514 26.3034 7.68337C26.3034 5.91073 27.5356 4.38867 29.3235 4.38867C31.329 4.38867 32.3437 5.87136 32.3437 5.87136Z" stroke="#075450" stroke-width="2.34375" stroke-miterlimit="10" stroke-linecap="round" stroke-linejoin="round"></path>
    </g>
    <defs>
      <clipPath id="clip0_237_2012">
        <rect width="56" height="56" fill="white" transform="translate(0.5)"></rect>
      </clipPath>
    </defs>
  </symbol>
  <symbol fill="none" xmlns="http://www.w3.org/2000/svg" viewBox="0 0 60 56" id="personal-health">
    <g clip-path="url(#clip0_237_1811)">
      <path d="M38.8236 6.58789V9.88201H21.1765V6.58789H14.1177V50.5095H45.8824V6.58789H38.8236Z" fill="#A4E772"></path>
      <path d="M50.5883 5.4902H40.0001V4.39216C40.0001 3.78582 39.4732 3.29412 38.8236 3.29412H34.557C34.0334 1.40187 32.1888 0 30.0001 0C27.8114 0 25.9668 1.40187 25.4431 3.29412H21.1765C20.5268 3.29412 20.0001 3.78582 20.0001 4.39216V5.4902H9.41182C8.76218 5.4902 8.23535 5.9819 8.23535 6.58824V54.902C8.23535 55.5083 8.76218 56 9.41182 56H50.5883C51.2379 56 51.7648 55.5083 51.7648 54.902V6.58824C51.7648 5.9819 51.2379 5.4902 50.5883 5.4902ZM22.353 5.4902H26.4706C27.1204 5.4902 27.6471 4.99849 27.6471 4.39216C27.6471 3.18124 28.7026 2.19608 30.0001 2.19608C31.2975 2.19608 32.353 3.18124 32.353 4.39216C32.353 4.99849 32.8798 5.4902 33.5295 5.4902H37.6471V8.78431H22.353V5.4902ZM49.4118 53.8039H10.5883V7.68627H20.0001V9.88235C20.0001 10.4887 20.5268 10.9804 21.1765 10.9804H38.8236C39.4732 10.9804 40.0001 10.4887 40.0001 9.88235V7.68627H49.4118V53.8039Z" fill="#075450"></path>
      <path d="M35.294 16.4707C34.982 16.4707 34.6829 16.5864 34.4622 16.7923L31.9983 19.0919L29.2442 14.8077C28.8194 14.1467 27.8009 14.0827 27.2942 14.7138L24.5786 18.0932L23.1849 16.7922C22.964 16.5864 22.6649 16.4707 22.3529 16.4707H18.8234C18.1737 16.4707 17.647 16.9623 17.647 17.5687C17.647 18.1752 18.1737 18.6668 18.8234 18.6668H21.8654L23.8738 20.5412C24.3758 21.0098 25.2145 20.9616 25.6469 20.4236L28.1265 17.3379L30.7557 21.4278C31.1493 22.04 32.0554 22.1442 32.5964 21.6394L35.7814 18.6668H41.1764C41.826 18.6668 42.3529 18.1752 42.3529 17.5687C42.3529 16.9623 41.826 16.4707 41.1764 16.4707H35.294Z" fill="#075450"></path>
      <path d="M29.3204 40.3368C29.7709 40.7242 30.4645 40.7243 30.9151 40.3368C38.073 34.1791 37.822 34.3967 37.8625 34.3595C38.9418 33.3521 39.5363 32.0128 39.5363 30.5882C39.5363 29.1636 38.9418 27.8243 37.8625 26.8169C35.7367 24.8328 32.3597 24.7395 30.1177 26.5267C27.8749 24.7421 24.4921 24.8393 22.373 26.8169C20.1452 28.8963 20.1452 32.2799 22.373 34.3594C22.4052 34.3897 22.0632 34.094 29.3204 40.3368ZM24.0366 28.3698C25.3471 27.1467 27.4796 27.1465 28.7901 28.3696L29.2854 28.8321C29.7463 29.2624 30.4918 29.2592 30.9494 28.8323L31.445 28.3698C32.7583 27.1439 34.885 27.1437 36.1985 28.3698C37.5056 29.5898 37.5136 31.5635 36.2142 32.7919L30.1177 38.0361L24.021 32.7919C22.7263 31.5674 22.7314 29.5881 24.0366 28.3698Z" fill="#075450"></path>
      <path d="M41.1767 43.9219H20.0002C19.3504 43.9219 18.8237 44.4136 18.8237 45.0199C18.8237 45.6263 19.3504 46.118 20.0002 46.118H41.1767C41.8263 46.118 42.3531 45.6263 42.3531 45.0199C42.3531 44.4136 41.8263 43.9219 41.1767 43.9219Z" fill="#075450"></path>
    </g>
    <defs>
      <clipPath id="clip0_237_1811">
        <rect width="60" height="56" fill="white"></rect>
      </clipPath>
    </defs>
  </symbol>
  <symbol fill="none" xmlns="http://www.w3.org/2000/svg" viewBox="0 0 56 56" id="phamacies-labs">
    <g clip-path="url(#clip0_269_1216)">
      <path d="M38.5449 43.5164C38.1868 43.2269 33.9559 39.8092 32.9166 39.0146C32.2706 38.5205 31.2503 37.8942 29.8492 38.16C28.446 38.4263 27.0135 39.5388 25.4703 41.5612C22.6935 45.4439 19.0721 42.4254 16.2983 39.6996C13.5723 36.9247 10.5533 33.3049 14.4367 30.5277C16.4591 28.9842 17.5716 27.5519 17.8378 26.1485C18.1035 24.7482 17.4773 23.7273 16.9833 23.0812C16.1887 22.0421 12.7713 17.8115 12.4816 17.4529C11.5653 16.2224 10.0814 15.6724 8.40468 15.9439C5.1991 16.463 2.03554 19.6882 0.711515 23.7871C-1.76477 32.3721 2.53366 40.0304 9.18529 46.8124C15.8916 53.3903 23.6114 57.7949 32.2108 55.2864C36.3098 53.9622 39.5351 50.7986 40.0539 47.5931C40.3251 45.917 39.7752 44.4327 38.5449 43.5164ZM30.257 40.3098C30.6957 40.2267 31.0564 40.3466 31.5875 40.7527C32.6266 41.5473 37.1421 45.1961 37.1876 45.2328C38.3507 46.0116 37.9646 47.7319 37.2788 48.8818L28.2512 41.6603C29.1684 40.7083 29.8289 40.3911 30.257 40.3098ZM8.75434 18.1039C9.50825 17.963 10.3126 18.1558 10.7341 18.77C10.8102 18.8674 14.4129 23.3238 15.2451 24.4104C16.171 25.5359 15.6204 26.4546 14.3289 27.7549L7.10549 18.725C7.67385 18.3978 8.2351 18.188 8.75434 18.1039ZM31.5381 53.2041C18.1423 58.3946 -6.74347 32.8753 5.38608 20.0784L12.6506 29.1598C8.15217 32.9651 11.1627 37.7717 14.745 41.2409C18.2142 44.8289 23.0395 47.8544 26.8457 43.3381L35.9279 50.6032C34.8521 51.6612 33.3687 52.6128 31.5381 53.2041Z" fill="#A4E772"></path>
      <path fill-rule="evenodd" clip-rule="evenodd" d="M39.2526 0.000902717C48.5002 0.000902717 55.9969 7.49757 55.9969 16.7452C56.1304 29.7122 41.4064 37.8697 30.5111 31.0286C28.7184 31.5096 26.9257 31.9906 25.1327 32.471C24.1757 32.7411 23.2593 31.8655 23.5214 30.8814C24.0037 29.0817 24.4861 27.2837 24.9685 25.4857C18.1275 14.5876 26.2881 -0.132681 39.2526 0.000902717ZM30.8774 17.7777C31.8721 17.7777 32.8669 17.399 33.6242 16.6417L39.1495 11.1163C40.652 9.6759 40.6523 7.06297 39.1496 5.62232C37.6349 4.10772 35.1706 4.10761 33.6559 5.62232L28.1304 11.1477C25.6858 13.5811 27.4643 17.801 30.8774 17.7777ZM35.2031 7.16964C35.8645 6.50807 36.9409 6.50807 37.6024 7.16964L37.6025 7.16975C38.2562 7.79599 38.2562 8.943 37.6024 9.56912L35.6134 11.5582L33.2141 9.15874L35.2031 7.16964ZM29.6777 12.6949L31.6668 10.7058L34.0661 13.1053L32.077 15.0944C30.4274 16.6239 28.1487 14.3437 29.6777 12.6949ZM39.3584 16.8513C40.8024 9.51178 51.2971 10.3718 51.5099 17.8619C51.5641 20.7774 49.2743 23.4659 46.4032 23.8961C44.9988 31.202 34.4559 30.3879 34.252 22.8852C34.252 19.8563 36.4647 17.3346 39.3584 16.8513ZM36.5951 23.9792C37.07 25.6152 38.5822 26.8145 40.3692 26.8145C42.5358 26.8145 44.2985 25.0518 44.2985 22.8853C44.2004 18.3293 37.9258 17.4868 36.5951 21.7911H40.3692C40.9734 21.7911 41.4633 22.281 41.4633 22.8852C41.4633 23.4893 40.9734 23.9792 40.3692 23.9792H36.5951ZM46.3653 21.6699C47.0433 21.4977 47.6653 21.1459 48.1708 20.6404C49.6953 19.1777 49.6951 16.546 48.1707 15.0837C46.0765 12.9334 42.2849 13.9794 41.5844 16.8892C42.4119 17.0567 43.1795 17.3917 43.85 17.8572L44.6189 17.0883C45.0465 16.6612 45.7391 16.6613 46.1662 17.0884C46.5934 17.5158 46.5934 18.2084 46.1661 18.6356L45.3973 19.4044C45.8628 20.0748 46.1978 20.8423 46.3653 21.6699Z" fill="#A4E772"></path>
    </g>
    <defs>
      <clipPath id="clip0_269_1216">
        <rect width="56" height="56" fill="white"></rect>
      </clipPath>
    </defs>
  </symbol>
  <symbol fill="none" xmlns="http://www.w3.org/2000/svg" viewBox="0 0 56 56" id="regional-office">
    <path d="M21.9951 29.374H34.0066V48.3704H21.9951V29.374Z" fill="#A4E772"></path>
    <path d="M21.5205 19.7212H24.5039V22.7046C24.5039 23.3087 24.9937 23.7984 25.5977 23.7984H30.4008C31.0047 23.7984 31.4945 23.3087 31.4945 22.7046V19.7212H34.4779C35.0819 19.7212 35.5717 19.2315 35.5717 18.6274V13.8242C35.5717 13.2202 35.0819 12.7305 34.4779 12.7305H31.4945V9.74707C31.4945 9.14299 31.0047 8.65332 30.4008 8.65332H25.5977C24.9937 8.65332 24.5039 9.14299 24.5039 9.74707V12.7305H21.5205C20.9165 12.7305 20.4268 13.2202 20.4268 13.8242V18.6274C20.4268 19.2315 20.9164 19.7212 21.5205 19.7212ZM22.6143 14.918H25.5977C26.2016 14.918 26.6914 14.4283 26.6914 13.8242V10.8408H29.307V13.8242C29.307 14.4283 29.7968 14.918 30.4008 14.918H33.3842V17.5337H30.4008C29.7968 17.5337 29.307 18.0234 29.307 18.6274V21.6109H26.6914V18.6274C26.6914 18.0234 26.2016 17.5337 25.5977 17.5337H22.6143V14.918Z" fill="#A4E772"></path>
    <path d="M54.9062 47.2785H53.9545V22.3225C53.9545 21.7184 53.4647 21.2287 52.8607 21.2287H41.8049V4.16992H41.864C42.468 4.16992 42.9578 3.68025 42.9578 3.07617C42.9578 2.47209 42.468 1.98242 41.864 1.98242H14.136C13.532 1.98242 13.0422 2.47209 13.0422 3.07617C13.0422 3.68025 13.532 4.16992 14.136 4.16992H14.1951V21.2287H3.13928C2.53531 21.2287 2.04553 21.7184 2.04553 22.3225V47.2785H1.09375C0.489781 47.2785 0 47.7682 0 48.3723V52.9223C0 53.5264 0.489781 54.016 1.09375 54.016H54.9062C55.5102 54.016 56 53.5264 56 52.9223V48.3723C56 47.7682 55.5102 47.2785 54.9062 47.2785ZM51.767 23.4162V29.6785H47.7292C47.1252 29.6785 46.6354 30.1681 46.6354 30.7722C46.6354 31.3763 47.1252 31.866 47.7292 31.866H51.767V38.7264H47.7292C47.1252 38.7264 46.6354 39.2161 46.6354 39.8202C46.6354 40.4242 47.1252 40.9139 47.7292 40.9139H51.767V47.2785H41.8049V23.4162H51.767ZM39.6174 4.16992V47.2785H16.3826V4.16992H39.6174ZM4.23303 40.9139H8.27083C8.8748 40.9139 9.36458 40.4242 9.36458 39.8202C9.36458 39.2161 8.8748 38.7264 8.27083 38.7264H4.23303V31.866H8.27083C8.8748 31.866 9.36458 31.3763 9.36458 30.7722C9.36458 30.1681 8.8748 29.6785 8.27083 29.6785H4.23303V23.4162H14.1951V47.2785H4.23303V40.9139ZM53.8125 51.8285H2.1875V49.466H53.8125V51.8285Z" fill="#A4E772"></path>
  </symbol>
  <symbol fill="none" xmlns="http://www.w3.org/2000/svg" viewBox="0 0 52 52" id="teleconsultation">
    <path d="M29.4772 34.4848C27.428 36.1057 24.5743 36.1064 22.5261 34.4871C22.1273 34.1559 21.5345 34.1776 21.1605 34.5516C20.7319 34.9802 20.7723 35.6871 21.2467 36.0649C24.0003 38.2565 27.9472 38.296 30.752 36.0663C31.2367 35.6808 31.2666 34.9598 30.821 34.5353C30.4456 34.1781 29.8681 34.1646 29.4772 34.4848Z" fill="#075450"></path>
    <path d="M21.6943 29.5732L21.4245 30.5889H18.3735C13.3186 30.5889 8.20508 34.6981 8.20508 39.7671V50.9846H24.4713L22.3304 29.5732H21.6943Z" fill="#A4E772"></path>
    <path d="M43.7946 50.9846V39.7671C43.7946 34.6981 38.6809 30.5889 33.6261 30.5889H30.5752L30.3053 29.5732H29.6693L27.5283 50.9846H43.7946Z" fill="#A4E772"></path>
    <path d="M22.4404 14.2764C21.8796 14.2764 21.4248 14.7311 21.4248 15.292V16.3118C21.4248 16.8727 21.8796 17.3274 22.4404 17.3274C23.0014 17.3274 23.4561 16.8727 23.4561 16.3118V15.292C23.4561 14.7311 23.0014 14.2764 22.4404 14.2764Z" fill="#075450"></path>
    <path d="M29.5586 17.3274C30.1195 17.3274 30.5742 16.8727 30.5742 16.3118V15.292C30.5742 14.7311 30.1195 14.2764 29.5586 14.2764C28.9978 14.2764 28.543 14.7311 28.543 15.292V16.3118C28.543 16.8727 28.9978 17.3274 29.5586 17.3274Z" fill="#075450"></path>
    <path d="M33.6262 29.573H31.3562L30.749 27.2882C33.6756 25.6227 35.6649 22.4704 35.6837 18.8612C35.6837 18.3011 35.6834 7.2149 35.6834 6.96434C35.6835 3.12416 32.5594 0 28.7192 0H14.3059C13.7451 0 13.2903 0.454695 13.2903 1.01562V4.24491C13.2903 6.62401 14.4902 8.72737 16.3159 9.9842V18.8665C16.3346 22.4721 18.3239 25.6231 21.2505 27.2883L20.6434 29.573H18.3735C12.8367 29.573 7.18945 34.0525 7.18945 39.7668V50.9844C7.18945 51.5453 7.64425 52 8.20508 52H43.7946C44.3554 52 44.8102 51.5453 44.8102 50.9844V39.7668C44.8102 34.0548 39.1659 29.573 33.6262 29.573ZM36.7076 38.743C37.2722 38.743 37.7313 39.2022 37.7313 39.7668C37.7313 40.3314 37.2722 40.7905 36.7076 40.7905C36.143 40.7905 35.6838 40.3313 35.6838 39.7668C35.6838 39.2023 36.143 38.743 36.7076 38.743ZM15.3216 4.24491V2.03125H28.7192C31.4392 2.03125 33.6522 4.24419 33.6522 6.96434V9.1779H20.2548C17.5345 9.1779 15.3216 6.96495 15.3216 4.24491ZM18.3471 18.8612V10.9413C18.9538 11.1145 19.5933 11.2091 20.2547 11.2091H33.6526V18.8559C33.6306 23.0786 30.1976 26.5139 25.9998 26.5139C21.8022 26.5139 18.3691 23.0786 18.3471 18.8612ZM42.779 49.9688H38.7429V45.8859C38.7429 45.325 38.2881 44.8703 37.7273 44.8703C37.1664 44.8703 36.7116 45.325 36.7116 45.8859V49.9688H15.288V45.8859C15.288 45.325 14.8333 44.8703 14.2724 44.8703C13.7115 44.8703 13.2568 45.325 13.2568 45.8859V49.9688H9.2207V39.7668C9.2207 36.5776 11.4728 33.9392 14.2765 32.5855V37.9058C13.0898 38.3253 12.2371 39.4579 12.2371 40.7865V41.8062C12.2371 42.3671 12.6919 42.8218 13.2527 42.8218C13.8136 42.8218 14.2684 42.3671 14.2684 41.8062V40.7865C14.2684 40.222 14.7275 39.7627 15.2921 39.7627C15.8567 39.7627 16.3159 40.222 16.3159 40.7865V41.8062C16.3159 42.3671 16.7706 42.8218 17.3315 42.8218C17.8923 42.8218 18.3471 42.3671 18.3471 41.8062V40.7865C18.3471 39.4578 17.4944 38.3253 16.3077 37.9058V31.8569C16.9951 31.6917 17.6906 31.6042 18.3735 31.6042C21.6357 31.5987 21.4553 31.6188 21.6276 31.5838C22.0184 31.5053 22.3077 31.2184 22.406 30.8496C22.4195 30.799 23.1184 28.1687 23.1343 28.1087C24.9948 28.6908 27.0047 28.6908 28.8654 28.1086L29.5936 30.8493C29.712 31.2944 30.1147 31.6041 30.5752 31.6041H33.6262C34.3091 31.6041 35.0046 31.6916 35.692 31.8568V36.886C34.5053 37.3055 33.6526 38.4382 33.6526 39.7667C33.6526 41.4512 35.0231 42.8217 36.7076 42.8217C38.3921 42.8217 39.7626 41.4512 39.7626 39.7667C39.7626 38.4382 38.9099 37.3056 37.7232 36.886V32.5854C40.5269 33.9391 42.779 36.5775 42.779 39.7667V49.9688Z" fill="#075450"></path>
    <path d="M28.1602 22.5512C28.5568 22.1546 28.5568 21.5115 28.1602 21.1148C27.7635 20.7182 27.1206 20.7182 26.7238 21.1148C26.3238 21.515 25.6762 21.5152 25.2758 21.1149C24.8794 20.7184 24.2362 20.7182 23.8395 21.1148C23.4428 21.5114 23.4428 22.1544 23.8394 22.5511C25.0334 23.7453 26.966 23.7454 28.1602 22.5512Z" fill="#075450"></path>
  </symbol>
</svg>