<svg width="63" height="27" viewBox="0 0 63 27" fill="none" xmlns="http://www.w3.org/2000/svg">
<path fill-rule="evenodd" clip-rule="evenodd" d="M55.3445 14.1081C55.3445 11.1296 53.6869 8.7793 50.5187 8.7793C47.3371 8.7793 45.4121 11.1296 45.4121 14.0848C45.4121 17.587 47.6847 19.3555 50.9464 19.3555C52.5372 19.3555 53.7403 19.0413 54.6494 18.5992V16.2722C53.7403 16.6678 52.6976 16.9121 51.3742 16.9121C50.0775 16.9121 48.9279 16.5165 48.7808 15.1436H55.3177C55.3177 14.9924 55.3445 14.3873 55.3445 14.1081ZM48.7407 13.0028C48.7407 11.688 49.6631 11.1412 50.5053 11.1412C51.3207 11.1412 52.1897 11.688 52.1897 13.0028H48.7407Z" fill="white"/>
<path fill-rule="evenodd" clip-rule="evenodd" d="M40.2514 8.7793C38.9414 8.7793 38.0992 9.3145 37.6313 9.68682L37.4575 8.96546H34.5166V22.5318L37.8586 21.9152L37.872 18.6225C38.3532 18.925 39.0617 19.3555 40.2381 19.3555C42.6309 19.3555 44.8099 17.68 44.8099 13.9918C44.7965 10.6176 42.5908 8.7793 40.2514 8.7793ZM39.4494 16.7958C38.6607 16.7958 38.1928 16.5514 37.872 16.2489L37.8586 11.9324C38.2062 11.595 38.6874 11.3623 39.4494 11.3623C40.6659 11.3623 41.508 12.549 41.508 14.0732C41.508 15.6323 40.6792 16.7958 39.4494 16.7958Z" fill="white"/>
<path fill-rule="evenodd" clip-rule="evenodd" d="M29.9189 8.0937L33.2743 7.46541V5.10352L29.9189 5.72017V8.0937Z" fill="white"/>
<path d="M33.2743 8.97852H29.9189V19.1591H33.2743V8.97852Z" fill="white"/>
<path fill-rule="evenodd" clip-rule="evenodd" d="M26.3221 9.83867L26.1082 8.97769H23.2207V19.1583H26.5627V12.2587C27.3514 11.3629 28.6882 11.5257 29.1026 11.6537V8.97769C28.6748 8.83807 27.1108 8.5821 26.3221 9.83867Z" fill="white"/>
<path fill-rule="evenodd" clip-rule="evenodd" d="M19.6374 6.45312L16.3757 7.05814L16.3623 16.3777C16.3623 18.0997 17.8461 19.3679 19.8246 19.3679C20.9208 19.3679 21.7228 19.1934 22.164 18.984V16.6221C21.7362 16.7733 19.6241 17.3085 19.6241 15.5866V11.4562H22.164V8.97791H19.6241L19.6374 6.45312Z" fill="white"/>
<path fill-rule="evenodd" clip-rule="evenodd" d="M10.6018 11.9324C10.6018 11.4786 11.0296 11.3041 11.7381 11.3041C12.7541 11.3041 14.0374 11.5717 15.0533 12.0487V9.3145C13.9438 8.93055 12.8476 8.7793 11.7381 8.7793C9.0244 8.7793 7.21973 10.0126 7.21973 12.072C7.21973 15.2832 12.2995 14.7713 12.2995 16.1559C12.2995 16.6911 11.7648 16.8656 11.0162 16.8656C9.90668 16.8656 8.48968 16.47 7.36677 15.9348V18.7039C8.60999 19.1693 9.86658 19.3671 11.0162 19.3671C13.7968 19.3671 15.7084 18.1687 15.7084 16.086C15.695 12.6188 10.6018 13.2355 10.6018 11.9324Z" fill="white"/>
</svg>
